{"glyphs":{"0":{"ha":682,"x_min":-12,"x_max":608,"o":"m 601 644 q 608 538 608 582 q 547 224 608 374 q 438 65 510 131 q 278 0 367 0 q 136 42 201 0 q 33 160 71 85 q -12 393 -12 250 q 36 697 -12 557 q 167 903 86 838 l 214 904 l 172 908 q 231 942 199 929 q 322 961 271 961 q 375 956 351 961 q 472 913 428 943 l 460 913 l 451 913 q 429 914 436 913 q 415 928 422 928 q 403 922 411 928 q 394 915 400 919 q 383 910 388 911 q 372 913 378 910 l 372 907 q 461 908 401 908 q 478 910 474 908 q 524 863 508 883 q 528 857 522 857 q 601 644 586 781 m 246 913 q 226 906 236 913 q 293 910 261 911 q 357 907 313 907 l 356 913 q 329 910 333 910 q 308 918 317 910 q 285 911 299 911 q 268 913 275 911 l 246 913 m 301 876 l 314 874 l 313 878 l 301 876 m 414 863 q 403 856 403 860 l 425 858 q 428 868 431 864 q 414 863 425 865 m 229 825 l 240 825 l 240 828 l 229 828 l 229 825 m 207 811 q 205 816 207 814 q 200 818 203 818 l 197 810 l 207 811 m 185 811 l 185 814 l 178 814 l 178 811 l 185 811 m 417 800 q 417 801 417 800 q 418 801 418 801 l 421 804 l 413 806 q 413 802 411 804 q 417 800 414 800 m 179 803 l 175 800 q 174 796 174 799 q 175 794 174 794 l 175 793 q 190 794 185 789 l 190 801 l 179 803 m 207 786 l 204 782 l 208 779 l 213 785 l 207 786 m 126 769 q 122 767 125 769 q 119 764 119 765 q 128 763 121 763 l 128 765 q 126 769 128 768 m 172 763 l 172 764 q 172 765 172 764 q 171 765 171 765 l 171 767 l 161 763 l 172 763 m 447 749 q 457 751 451 749 q 447 764 457 758 l 447 749 m 126 756 q 135 757 133 756 l 138 757 q 126 763 132 763 l 126 756 m 146 757 q 150 753 146 756 q 150 763 154 758 l 142 763 l 146 757 m 139 746 q 128 738 135 744 l 138 738 l 156 732 l 156 738 q 155 738 156 738 q 154 739 154 739 l 151 739 l 149 738 l 142 738 l 139 746 m 407 743 q 399 746 404 746 l 396 738 q 401 736 400 738 q 404 738 401 738 l 407 738 l 407 743 m 454 735 q 451 732 451 732 l 449 731 l 460 728 q 464 733 464 731 l 463 739 l 454 735 m 158 736 q 158 725 154 728 l 163 725 l 165 726 l 164 732 l 158 736 m 135 713 q 140 711 139 713 q 146 719 146 717 l 146 725 l 143 726 l 142 731 l 139 729 l 139 728 l 138 728 q 137 727 138 728 q 136 726 136 726 q 135 725 135 726 l 135 713 m 471 724 q 474 721 471 724 l 479 718 l 475 726 l 471 726 l 471 724 m 368 460 q 371 567 371 532 q 349 706 371 674 q 314 722 336 722 q 284 699 296 722 q 260 639 272 675 q 214 364 214 468 q 247 253 214 269 q 268 247 254 247 q 308 269 290 247 q 338 329 325 292 q 358 393 351 367 q 368 460 364 419 m 172 717 l 172 714 l 183 715 l 183 719 l 172 717 m 150 707 q 156 703 150 703 l 158 703 q 160 708 160 704 l 160 711 l 158 711 q 150 707 150 711 m 431 706 l 425 706 l 425 699 l 435 699 q 433 704 435 703 l 431 706 m 165 694 q 166 698 167 696 q 164 700 165 700 q 158 694 158 699 l 165 694 m 149 692 q 153 693 150 693 q 150 696 153 696 q 146 694 147 696 q 146 692 144 693 q 149 692 147 692 m 432 685 q 436 692 436 688 l 433 693 l 432 693 q 425 689 428 692 q 422 686 422 689 l 432 685 m 447 688 q 457 693 457 688 l 447 693 l 447 688 m 447 674 q 458 672 450 672 q 451 676 451 675 q 449 679 449 679 q 442 678 444 679 l 439 676 l 447 674 m 446 669 l 443 667 l 449 663 l 453 665 l 446 669 m 450 656 l 454 656 l 454 660 l 450 660 l 450 656 m 439 647 q 436 650 439 647 l 436 646 q 439 647 439 646 m 443 640 q 465 640 457 643 l 465 646 l 450 646 q 446 643 449 646 q 443 640 446 643 m 453 614 q 453 617 453 617 l 453 619 q 449 615 453 615 l 451 615 l 453 614 m 482 614 q 479 617 479 614 q 467 608 479 606 l 468 606 l 468 603 l 474 607 q 482 610 476 607 l 482 614 m 421 610 l 421 614 l 418 614 l 418 610 l 421 610 m 453 604 q 456 608 453 608 l 450 608 q 453 606 453 608 l 453 604 m 464 588 q 468 596 468 590 q 464 592 467 592 l 458 588 l 464 588 m 453 578 q 449 579 450 578 q 447 582 447 579 q 440 588 444 586 l 431 583 l 435 583 q 439 585 435 585 q 443 576 443 581 l 451 576 l 453 578 m 421 557 q 428 564 428 560 l 421 564 q 421 557 418 557 z "},"1":{"ha":354,"x_min":-14,"x_max":324,"o":"m 319 881 q 324 831 324 860 l 322 771 q 315 681 321 731 q 307 613 310 632 l 303 571 q 260 47 276 357 q 238 24 257 26 l 33 0 q 13 8 21 0 q 6 28 4 17 l 72 651 l 18 635 q 10 633 15 633 q -4 640 3 633 q -14 661 -14 646 l 6 871 l 14 871 q 24 865 24 867 q 21 860 26 863 q 13 847 11 850 q 39 839 19 835 q 33 844 33 842 q 38 853 33 847 q 35 868 44 864 l 100 872 l 131 874 q 171 876 143 874 l 175 874 q 212 875 196 874 q 239 878 228 876 q 299 879 257 879 l 300 879 l 269 881 q 242 890 251 881 l 224 879 q 211 882 213 882 q 200 881 203 882 l 188 879 q 175 882 179 879 q 140 879 154 878 q 111 881 124 879 l 83 881 q 51 876 68 881 q 40 882 42 878 q 40 887 39 883 q 42 894 42 890 q 39 903 43 896 q 49 906 42 906 q 63 906 54 904 l 56 908 l 51 906 q 42 908 47 908 q 35 908 38 908 q 24 904 26 907 l 24 903 q 31 892 24 899 q 35 885 35 888 q 7 879 29 879 l 10 913 q 31 935 11 931 l 179 958 l 181 958 q 207 960 190 960 q 306 913 276 960 q 293 914 301 914 l 281 915 q 246 917 268 917 q 203 914 217 917 q 219 911 210 910 l 224 911 q 235 906 229 911 q 296 911 271 913 l 307 911 l 313 899 l 310 899 q 310 892 307 896 q 313 888 313 889 q 310 879 318 882 l 319 881 m 175 897 q 174 901 174 899 q 178 906 174 903 q 186 911 183 908 q 154 914 161 914 l 135 913 l 111 910 l 82 908 l 82 906 l 103 904 q 118 907 110 904 l 124 907 q 132 908 126 908 q 149 908 139 911 l 154 911 l 175 897 m 101 842 q 113 853 101 849 q 101 856 108 856 q 92 851 96 856 q 92 842 89 846 q 103 839 97 839 l 101 842 m 251 844 l 251 843 q 267 838 251 836 l 275 849 l 251 844 m 47 722 l 47 726 l 39 726 l 39 722 l 47 722 m 69 701 l 49 704 q 44 701 47 704 l 40 699 l 51 700 l 69 701 m 13 668 l 13 665 l 21 665 l 21 668 l 13 668 m 128 619 l 126 624 l 117 621 l 128 619 m 239 521 l 239 525 l 232 525 l 232 521 l 239 521 m 226 507 l 226 510 l 225 511 l 225 514 l 217 514 l 217 507 l 226 507 m 128 499 l 122 499 l 122 490 l 129 490 l 128 499 m 233 488 q 229 479 229 483 l 233 478 l 239 478 l 243 482 q 233 488 238 488 m 269 467 q 257 474 263 474 q 257 468 256 472 l 257 465 l 269 467 m 226 461 l 222 461 l 222 456 q 221 451 221 454 l 231 451 l 231 458 q 242 460 240 458 l 240 463 l 240 467 l 229 463 l 226 461 m 203 464 q 206 461 203 461 q 204 460 206 460 l 203 456 l 214 457 q 203 464 214 464 m 207 449 l 206 449 l 207 446 l 211 446 q 210 447 210 446 l 208 449 l 208 450 l 207 447 l 207 449 m 256 432 q 254 440 256 432 l 246 440 q 238 440 240 442 l 238 433 l 256 432 m 203 435 l 207 432 l 207 436 l 200 440 l 203 435 m 243 421 q 247 426 247 424 q 246 432 246 428 l 240 432 q 235 426 240 432 q 228 422 231 422 q 250 418 239 418 l 247 419 l 243 421 m 215 418 q 210 424 215 424 q 203 419 207 424 l 207 415 q 215 418 213 415 m 203 411 l 203 406 l 225 408 l 203 411 m 165 389 l 163 383 q 174 381 168 381 l 176 389 l 165 389 m 89 385 q 76 388 82 389 q 69 385 69 388 l 76 381 q 89 385 82 381 m 200 378 l 210 378 q 214 385 214 381 q 206 388 208 388 l 204 388 q 199 382 199 386 l 200 378 m 225 379 q 224 374 222 376 q 236 375 229 371 l 236 382 l 228 383 l 225 379 m 99 346 q 89 354 89 351 l 85 350 l 85 346 l 99 346 m 260 332 q 269 338 269 332 l 260 340 l 253 335 l 254 332 l 260 332 m 235 339 l 226 339 l 226 335 l 235 335 l 235 339 m 46 336 q 50 335 47 335 q 54 333 53 335 q 67 328 56 332 q 71 335 67 333 q 58 336 69 336 l 46 336 m 247 331 l 236 331 l 236 322 l 247 324 l 247 331 m 50 322 q 58 324 54 322 q 61 328 61 326 l 53 329 l 42 329 q 46 325 44 329 q 50 322 46 322 m 224 321 q 210 315 210 315 q 217 314 211 314 l 226 314 l 224 321 m 89 311 l 89 315 l 78 315 l 78 311 l 89 311 m 268 307 q 274 310 274 308 q 267 314 272 314 l 265 310 q 266 309 265 310 q 267 308 267 308 q 267 308 267 308 q 268 307 268 307 m 246 299 q 247 297 246 297 l 249 294 q 249 300 251 297 l 247 299 l 246 299 m 239 282 q 249 278 242 278 q 256 281 253 278 l 257 281 l 257 290 q 249 293 254 290 q 248 292 249 293 q 247 292 247 292 l 247 290 l 244 290 l 240 293 q 236 286 236 289 q 239 282 236 285 m 238 274 l 240 278 l 235 281 l 233 275 l 238 274 m 85 271 q 97 275 93 275 l 89 279 l 78 279 l 64 272 q 66 270 65 271 q 68 269 67 269 l 69 268 l 72 267 l 85 271 m 225 276 q 208 271 215 276 l 208 265 q 228 276 221 265 l 225 276 m 260 261 q 272 263 271 258 q 271 267 272 265 l 269 271 l 258 271 l 260 265 l 260 261 m 235 247 q 225 250 228 247 l 226 261 q 215 265 219 265 l 215 260 l 214 260 q 208 259 211 261 q 203 254 204 257 q 214 244 206 253 q 224 235 218 239 l 226 236 l 228 236 l 231 239 l 235 247 m 233 249 q 243 247 240 249 l 249 247 q 256 254 256 247 l 246 254 q 236 256 240 254 l 233 249 m 75 253 l 68 251 l 68 250 l 78 251 l 75 253 m 190 251 l 190 247 l 200 247 l 200 251 l 190 251 m 250 239 q 246 235 250 239 q 240 228 242 232 l 251 226 l 254 225 l 257 226 q 256 229 257 229 q 265 239 261 233 l 250 239 m 76 233 q 78 234 78 233 q 78 236 79 235 l 72 233 l 76 233 m 89 221 l 89 217 l 97 217 l 97 221 l 89 221 m 253 215 l 256 217 q 250 219 253 219 l 246 219 l 247 214 l 253 215 m 267 210 q 265 211 267 211 l 265 213 l 264 215 l 257 215 l 256 208 q 261 210 260 208 l 267 210 m 190 204 l 197 207 l 190 204 z "},"2":{"ha":661,"x_min":-14,"x_max":589,"o":"m 333 265 q 456 288 403 274 q 526 307 503 301 q 535 308 529 308 q 549 303 543 308 q 558 282 558 294 l 546 65 q 525 42 546 44 q 268 7 372 17 q 143 0 201 0 q 97 1 113 0 q 3 49 31 7 q -14 113 -14 81 q -4 172 -14 139 q 43 269 13 225 l 142 419 l 142 421 q 260 589 196 493 q 265 597 263 592 q 271 607 267 601 l 272 607 l 278 610 l 278 613 q 274 615 278 614 q 293 663 279 626 q 297 678 293 664 q 300 699 301 692 q 299 700 299 699 q 288 703 296 703 q 242 693 269 703 q 193 674 215 683 q 54 596 146 651 q 42 593 50 593 q 23 600 31 593 q 15 618 15 607 l 24 879 q 40 903 24 897 q 238 954 168 943 q 350 965 296 965 q 449 954 406 965 q 556 887 522 936 q 589 774 589 838 q 572 681 589 722 q 519 567 546 610 l 519 565 l 464 478 l 333 265 m 342 893 q 356 885 351 893 q 356 900 361 894 q 346 897 347 897 l 338 893 l 342 893 m 376 890 q 379 885 376 888 q 385 881 382 882 q 387 882 386 881 q 389 885 388 883 l 389 890 l 376 890 m 326 869 q 322 867 322 869 q 342 868 333 867 l 346 868 q 354 858 354 868 l 344 851 q 342 846 342 849 q 374 842 358 838 q 367 849 368 844 q 368 856 365 853 l 375 861 q 379 867 379 865 l 356 871 l 333 874 q 326 869 329 869 m 381 833 l 386 833 l 386 836 l 381 836 l 381 833 m 368 808 q 372 801 368 804 q 381 797 375 797 l 383 799 l 393 799 l 390 810 l 383 814 q 376 815 381 815 q 369 813 372 815 l 368 808 m 317 794 q 313 799 319 797 l 313 796 l 317 794 m 240 792 l 240 786 l 244 786 q 247 789 247 789 l 250 792 l 240 792 m 356 778 q 357 779 357 778 q 356 783 357 782 q 355 783 356 783 q 354 782 354 782 q 353 781 354 782 q 353 779 353 781 q 356 778 353 778 m 258 781 q 251 774 253 781 l 253 772 l 265 772 q 269 774 268 772 q 265 779 265 776 l 267 782 l 258 781 m 336 767 q 331 771 336 771 q 326 769 326 769 l 326 765 l 331 764 q 333 761 331 764 l 336 764 l 336 767 m 333 760 q 318 753 331 753 q 320 748 318 751 q 325 744 322 744 q 329 747 329 744 q 336 750 332 750 q 340 753 338 750 l 340 756 q 338 758 340 758 q 333 760 335 758 m 261 747 l 265 753 q 257 754 263 754 q 251 751 251 754 q 256 749 254 749 l 261 747 m 197 738 q 194 743 197 740 l 190 742 l 188 742 l 189 736 l 197 738 m 371 731 l 368 733 l 361 731 l 368 726 q 369 727 368 726 q 369 728 369 728 l 371 731 m 333 721 q 336 719 333 719 q 337 719 336 719 q 338 718 338 718 q 343 719 339 719 q 338 725 343 724 q 333 721 333 724 m 317 721 q 321 721 319 719 l 326 721 l 321 724 q 317 721 317 724 m 274 715 q 276 719 276 718 q 272 722 276 722 l 268 722 q 265 718 265 719 l 267 715 l 274 715 m 475 646 l 476 650 l 475 651 l 474 647 l 475 646 m 499 636 q 499 629 497 632 q 506 626 501 626 q 511 625 507 625 q 524 631 518 625 q 526 636 526 636 l 528 640 l 519 642 l 511 643 l 504 639 l 499 636 m 428 615 q 424 616 426 615 q 421 615 422 617 l 422 614 q 424 611 422 611 q 428 613 426 611 l 428 615 m 500 599 l 504 600 q 500 604 504 604 l 496 603 l 496 596 l 500 599 m 435 585 q 437 587 435 586 q 442 589 439 588 l 440 592 l 435 593 q 428 590 428 596 l 428 588 l 435 585 m 389 590 q 381 590 385 594 l 385 589 l 389 590 m 461 578 q 461 581 464 578 q 458 585 458 582 q 457 588 457 585 q 458 588 457 588 q 458 589 458 589 l 458 590 l 453 592 q 446 589 449 592 l 443 588 q 449 574 453 582 q 461 578 458 574 m 503 579 q 494 578 497 579 q 497 572 494 572 l 503 574 l 503 579 m 492 567 q 488 560 485 563 l 490 558 l 493 564 l 494 568 l 492 567 m 396 547 q 389 547 392 544 q 385 550 385 547 l 383 542 q 389 533 381 539 l 392 535 l 397 544 l 396 547 m 369 533 q 367 538 367 536 l 363 540 l 358 533 q 367 531 367 532 l 369 533 m 429 529 q 428 532 429 532 l 425 533 q 417 528 418 532 q 421 524 415 525 l 426 526 q 427 527 426 526 q 428 528 428 528 l 429 529 m 468 524 q 471 520 468 522 q 476 519 474 518 l 479 525 l 478 526 q 468 526 468 532 l 468 524 m 389 490 q 393 493 393 490 l 389 500 l 390 503 l 390 510 q 383 519 390 517 q 381 519 381 522 l 378 519 q 382 513 382 514 q 379 510 382 513 l 376 508 l 375 503 q 382 492 375 494 q 384 491 383 492 q 386 492 385 490 l 389 490 m 369 499 q 360 507 369 503 q 350 501 351 506 q 351 495 349 499 q 354 492 353 492 l 358 490 q 364 492 361 490 q 368 497 367 494 l 369 499 m 415 474 q 417 478 417 475 q 407 478 411 479 l 407 472 l 413 471 q 415 474 413 471 m 396 474 l 396 472 l 401 469 l 403 471 l 396 474 m 376 453 q 382 458 382 453 l 383 461 q 379 465 379 464 l 375 463 q 372 457 372 460 l 372 456 l 376 453 m 356 449 l 354 449 q 353 447 354 447 l 353 446 q 355 444 353 444 q 360 444 357 443 l 361 447 l 358 447 l 356 449 m 379 439 q 383 446 385 443 l 376 446 q 379 439 379 443 m 332 421 q 338 418 333 419 q 344 417 342 417 l 347 419 q 346 428 346 421 l 342 429 l 332 421 m 331 421 q 329 425 331 424 l 324 425 q 322 419 322 425 q 328 418 328 419 q 329 419 329 418 l 331 419 l 331 421 m 399 411 q 396 414 399 414 q 396 413 394 413 l 399 411 m 338 378 q 338 381 340 381 l 338 382 l 342 394 l 347 406 l 347 407 l 343 407 q 340 408 342 408 q 338 407 339 407 l 338 401 q 333 394 338 397 q 329 390 331 393 q 326 385 328 386 l 322 378 q 324 368 319 374 l 328 368 l 335 374 q 338 378 338 376 m 368 390 q 368 394 371 393 q 363 400 363 400 q 358 399 360 400 l 353 392 l 354 390 l 357 389 l 363 388 q 368 390 365 388 m 297 382 q 296 378 296 381 q 297 375 297 378 l 307 371 q 308 376 307 375 q 304 378 306 376 q 303 378 303 378 q 306 379 304 379 l 307 381 q 303 388 307 382 l 297 382 m 272 369 q 281 371 278 369 l 276 375 l 272 375 l 271 371 l 272 369 m 321 358 l 324 358 l 325 364 l 321 358 m 286 347 q 283 354 286 349 q 279 360 281 360 q 274 354 279 360 l 272 353 q 276 344 269 346 q 286 347 282 350 m 228 338 l 231 339 l 225 340 l 224 336 l 228 338 m 238 338 q 239 333 235 335 q 240 339 240 335 l 238 338 m 354 331 l 349 331 l 347 329 l 347 328 q 353 322 347 322 q 356 328 356 325 l 356 329 l 354 331 m 265 317 q 264 313 264 315 q 269 307 264 308 q 279 307 275 306 l 281 310 l 281 314 q 279 317 281 317 l 271 319 q 265 317 268 319 m 265 300 l 265 301 l 261 304 l 261 301 l 265 300 m 451 217 q 449 213 449 217 l 453 211 q 451 217 453 215 m 449 201 q 449 199 449 200 q 450 196 450 197 l 453 196 l 453 201 l 449 201 m 221 196 q 218 199 221 199 l 215 199 q 208 196 210 199 q 219 190 211 193 q 221 193 219 193 l 221 196 m 401 178 q 397 174 401 181 l 404 174 l 408 179 l 407 179 l 406 181 q 401 178 404 181 m 118 171 q 117 172 117 171 l 110 172 q 107 168 107 169 l 115 168 l 118 171 m 313 172 l 308 172 l 307 169 l 314 168 l 317 169 l 317 171 l 313 172 m 292 168 l 286 167 l 286 163 q 290 156 290 158 q 297 151 290 151 l 300 151 q 296 154 299 154 l 293 156 l 293 161 l 300 167 l 292 168 m 508 164 q 503 161 503 164 q 506 157 503 160 l 510 160 l 510 161 l 508 164 m 471 156 l 472 158 l 471 158 l 468 157 l 471 156 m 140 150 q 132 153 135 153 l 126 151 l 121 150 l 121 146 l 128 144 q 133 146 129 146 q 140 147 136 143 l 140 150 m 367 150 q 366 149 367 150 q 365 149 365 149 q 375 143 365 143 q 379 144 378 143 l 385 144 l 386 147 q 381 151 383 150 q 376 151 378 153 l 367 151 l 367 150 m 501 147 q 510 144 504 144 l 515 146 l 515 149 l 511 150 q 508 151 511 151 l 507 150 l 504 149 l 501 147 m 46 146 q 49 150 49 149 l 40 150 q 39 147 39 150 l 40 144 q 46 146 42 146 m 488 144 q 489 144 489 143 q 488 150 490 150 l 488 149 l 486 149 l 486 147 l 488 144 m 15 144 l 15 142 l 18 143 l 19 144 l 15 144 m 301 117 q 294 120 300 118 q 283 122 288 122 l 276 122 q 267 121 269 122 l 251 121 l 243 122 q 238 124 242 124 l 231 122 l 224 117 l 301 117 m 415 124 q 413 117 415 124 l 510 117 q 494 120 508 118 q 469 122 479 122 q 467 122 468 122 q 461 121 465 121 q 455 120 457 121 q 451 119 453 119 l 444 119 q 428 122 439 119 q 421 124 425 124 l 415 124 z "},"3":{"ha":647,"x_min":-12,"x_max":575,"o":"m 572 356 q 575 311 575 325 q 538 164 575 229 q 405 42 494 83 q 214 0 315 0 q 175 1 188 0 l 53 13 q 31 33 32 15 l -12 274 l -12 278 q -4 297 -12 290 q 17 303 4 304 q 85 292 64 293 q 85 289 83 290 l 89 289 q 90 290 89 289 q 90 290 90 290 q 181 283 143 283 q 249 294 211 283 l 250 294 q 275 321 267 299 q 279 350 279 336 q 268 396 279 375 q 261 407 268 397 q 260 414 265 411 l 257 413 l 236 429 q 193 457 221 440 l 193 461 q 186 472 193 471 l 183 467 q 182 463 182 465 q 158 475 161 475 q 144 499 144 481 q 154 518 144 510 l 201 554 q 224 576 224 576 l 225 576 q 249 635 249 607 q 247 649 249 644 l 246 650 q 228 674 243 674 q 186 667 210 674 q 142 654 163 661 q 57 624 74 631 q 42 622 49 619 l 42 658 q 40 667 40 661 l 40 676 l 42 681 l 42 700 l 40 707 l 36 713 l 36 625 q 32 626 33 625 q 22 650 21 638 l 42 881 q 63 904 43 900 l 247 936 q 371 947 319 947 q 519 907 469 947 q 521 906 519 906 q 572 751 575 856 l 571 739 l 569 739 q 561 733 561 739 l 564 728 l 569 728 q 534 625 561 672 q 458 525 507 578 q 571 358 551 456 l 572 356 m 264 924 q 271 924 267 921 q 274 928 278 926 l 264 924 m 342 911 q 350 904 349 908 q 360 901 353 901 q 368 904 367 901 q 372 910 368 906 l 363 915 l 342 911 m 179 890 q 110 879 143 890 q 140 878 131 876 l 154 879 l 168 882 q 196 883 176 883 q 222 879 210 883 l 304 879 l 304 885 l 299 885 q 286 888 297 885 q 276 889 281 889 q 268 885 272 889 l 264 889 l 258 885 l 254 889 l 232 888 l 214 889 l 179 890 m 315 885 l 319 879 l 319 885 l 315 885 m 390 885 q 368 883 382 883 l 344 883 l 492 874 q 453 883 468 882 q 411 885 435 885 l 390 885 m 289 847 q 406 849 360 847 q 493 858 451 851 l 492 858 l 385 853 l 381 858 q 365 851 371 851 q 356 853 360 851 q 350 856 353 854 q 335 858 336 858 q 319 853 326 858 l 296 851 l 271 853 q 222 847 243 853 q 204 853 213 853 q 183 850 200 853 q 169 847 175 847 q 147 858 154 847 q 133 850 140 850 l 117 850 q 101 850 108 853 q 90 840 94 849 q 186 846 131 846 q 238 847 219 846 l 289 847 m 521 719 l 526 719 l 526 724 l 522 724 l 521 719 m 460 500 l 440 500 l 440 496 l 460 496 l 460 500 m 204 465 l 208 469 l 210 472 q 206 478 207 476 q 205 480 206 479 q 204 482 204 481 q 201 489 203 485 q 199 494 200 493 q 194 497 196 497 q 194 495 193 497 q 196 492 194 493 l 196 481 q 198 470 196 476 q 201 464 200 464 l 204 465 m 290 479 q 296 489 290 488 q 310 490 304 489 q 297 490 308 493 l 283 490 q 279 489 279 490 q 275 486 278 489 q 282 481 278 483 q 290 479 286 479 m 367 485 l 367 489 l 356 489 l 356 485 l 367 485 m 329 482 q 339 479 338 482 l 339 471 q 347 467 338 467 q 354 472 351 472 q 350 476 350 476 l 346 479 l 351 483 q 342 485 350 485 q 331 488 339 485 l 329 482 m 268 483 l 274 479 l 276 482 l 268 485 l 268 483 m 306 471 q 317 474 311 471 q 310 478 314 474 l 303 481 q 297 472 297 476 l 306 471 m 351 457 q 374 453 364 451 l 374 474 q 367 468 367 469 q 363 461 367 465 l 361 461 q 357 463 361 463 q 353 460 353 463 l 353 458 l 351 457 m 286 460 q 278 465 278 460 q 278 471 278 471 q 272 469 275 471 q 269 465 269 468 l 269 458 l 281 458 l 286 460 m 329 469 l 324 471 q 319 460 324 464 l 326 460 q 333 468 333 464 l 329 469 m 217 469 l 211 468 q 208 467 211 467 l 207 467 l 208 464 l 208 463 l 217 463 l 217 469 m 236 464 l 242 464 l 244 467 l 239 468 l 236 464 m 346 461 l 344 463 l 339 461 l 339 458 l 346 461 m 275 449 l 268 449 l 269 451 q 271 457 271 453 q 261 454 264 453 q 254 457 258 457 q 260 451 254 457 q 264 447 260 451 l 264 446 l 275 446 l 275 449 m 319 439 q 318 443 319 443 q 319 449 318 447 q 317 453 319 450 l 310 453 q 311 439 306 446 l 319 439 m 339 447 q 335 453 339 451 l 332 451 l 328 450 l 329 447 l 329 446 q 335 447 333 446 l 339 447 m 236 447 l 232 447 l 228 449 l 219 443 l 226 439 l 232 436 l 236 447 m 253 435 q 253 442 258 440 q 244 439 249 442 l 250 436 l 253 435 m 333 438 l 324 439 q 317 438 318 439 q 321 429 317 432 l 333 438 m 243 435 l 238 435 l 238 429 l 243 429 l 243 435 m 299 410 q 306 404 300 406 l 313 403 q 310 410 315 408 l 299 410 m 329 396 q 332 400 332 396 l 331 404 l 329 408 l 329 410 l 326 410 l 325 407 l 326 396 l 329 396 m 301 389 q 299 393 301 390 l 296 396 l 294 396 l 293 397 l 293 388 l 297 388 l 301 389 m 363 375 l 368 375 l 368 378 q 367 378 368 378 q 367 379 367 379 l 363 382 q 356 374 356 378 l 360 374 l 363 375 m 347 356 l 358 354 l 358 357 l 347 360 l 347 356 m 400 328 q 410 322 400 322 q 417 329 417 322 q 415 332 417 332 l 414 332 l 414 333 l 411 335 l 403 335 l 400 328 m 358 333 l 354 329 l 360 328 l 363 332 l 358 333 m 367 290 q 367 290 367 290 q 368 289 368 289 l 369 289 q 371 288 369 288 l 379 288 q 381 290 379 290 l 381 292 q 381 292 381 292 q 382 293 382 293 q 378 297 379 294 l 368 297 l 367 290 m 433 292 l 426 293 l 422 294 q 419 290 419 292 l 421 285 l 426 286 l 433 292 m 400 283 q 396 282 397 283 l 394 282 l 392 281 q 381 279 383 281 l 381 278 q 390 269 381 275 l 393 271 l 396 274 l 397 274 l 399 275 q 399 276 399 275 q 400 276 400 276 l 400 283 m 393 236 q 394 239 394 236 q 385 250 394 242 l 382 249 l 382 247 l 379 246 q 375 243 376 243 l 374 244 l 368 246 q 358 247 364 247 q 354 246 354 247 l 354 242 l 356 240 l 356 239 q 358 238 356 238 q 367 236 361 236 l 375 235 l 375 233 l 378 233 l 385 231 q 386 232 386 231 l 393 232 l 393 236 m 422 242 q 424 246 424 242 l 415 246 q 411 239 415 242 l 422 239 l 422 242 m 408 236 l 408 228 l 414 228 l 414 236 l 408 236 m 367 213 l 375 217 q 381 222 381 221 l 381 226 l 368 226 l 363 225 l 358 222 q 351 217 351 219 l 351 213 l 367 213 m 414 201 q 421 208 421 204 q 411 218 421 211 q 404 210 404 217 q 410 200 404 206 l 414 201 m 382 210 q 378 213 382 213 l 374 213 l 368 208 l 368 204 q 382 204 375 201 l 382 210 m 356 186 l 354 190 l 354 192 l 351 193 q 349 189 349 190 l 349 183 q 354 185 353 183 l 354 186 l 356 186 m 306 165 q 317 163 314 163 q 313 171 317 171 q 312 170 313 171 q 311 169 311 169 l 310 169 l 306 165 m 383 165 l 382 169 l 382 171 l 368 169 l 383 165 m 324 149 q 332 153 332 149 q 321 157 328 157 l 318 149 l 324 149 m 300 154 l 294 154 l 294 149 l 300 149 l 300 154 m 39 135 q 47 138 44 135 q 37 142 42 142 q 28 139 32 143 q 31 135 31 138 q 31 133 32 133 l 39 135 m 58 140 q 63 136 58 135 l 65 138 l 65 139 q 65 140 65 139 q 64 140 64 140 l 61 142 l 58 140 m 326 128 l 317 128 q 315 126 315 128 l 317 121 l 326 128 m 72 124 q 68 125 71 125 q 64 124 67 124 l 60 118 l 61 117 l 64 117 l 67 119 q 78 118 67 117 q 72 124 75 124 m 49 107 l 40 110 l 40 107 l 47 106 l 49 107 m 100 89 q 101 90 100 89 q 101 90 101 90 l 101 94 q 98 95 100 94 q 94 94 96 96 q 85 99 85 94 q 82 101 85 99 l 74 104 q 65 107 72 106 q 58 108 61 108 q 53 107 56 107 l 53 104 l 60 99 q 68 96 67 94 q 69 97 68 97 l 85 93 l 92 90 l 99 89 l 100 89 m 151 103 q 153 106 153 103 q 151 107 151 106 l 150 107 q 147 104 149 107 q 150 101 146 101 q 151 102 150 101 q 151 103 151 103 m 115 99 l 121 97 l 122 99 l 125 104 q 119 106 121 104 l 117 106 l 117 103 l 115 100 l 115 99 m 126 90 q 124 92 125 92 q 122 94 122 93 q 114 94 117 100 l 113 89 l 125 89 l 126 90 m 68 90 q 69 94 69 92 l 67 93 q 68 92 67 92 l 68 90 m 147 86 q 150 90 147 90 l 139 90 q 147 86 142 86 m 92 81 q 91 81 92 81 q 90 82 90 82 l 81 85 l 79 85 q 76 81 76 85 q 78 76 76 76 q 85 75 81 75 l 90 78 l 92 81 m 107 54 l 104 57 q 103 56 104 57 q 103 56 103 56 l 103 54 l 101 53 l 104 53 l 107 54 z "},"4":{"ha":694,"x_min":-14,"x_max":636,"o":"m 610 433 q 628 425 619 433 q 635 407 636 417 l 628 233 q 604 208 626 211 l 524 203 l 517 25 q 492 0 517 0 l 324 0 q 305 8 313 0 q 297 26 297 15 l 300 188 l 97 169 q 79 168 90 168 q -10 232 6 168 q -14 275 -14 253 q -12 299 -14 290 l -6 299 l -4 300 l -4 304 q -11 306 -8 304 q -10 310 -11 308 l -10 315 q 13 382 -3 340 q 51 481 24 414 q 122 639 75 535 l 272 946 q 294 960 279 960 l 451 968 q 535 938 508 971 q 557 846 561 904 l 531 433 l 610 433 m 407 832 l 410 824 l 418 824 l 418 828 q 419 831 419 828 l 415 831 l 407 832 m 411 821 q 406 825 407 824 q 399 826 404 826 l 397 818 l 411 821 m 240 818 q 233 813 235 818 l 236 810 l 249 810 q 253 813 250 810 q 247 817 247 814 q 250 821 247 818 q 240 818 242 818 m 344 789 l 344 793 l 333 793 l 333 789 l 344 789 m 386 790 l 388 783 q 397 785 390 785 l 408 785 q 400 792 408 792 l 394 792 l 386 790 m 421 768 q 426 778 426 774 q 413 778 418 779 l 413 776 l 411 775 l 411 768 l 421 768 m 388 758 l 393 761 l 389 765 l 385 764 l 388 758 m 400 736 q 400 746 406 740 q 399 742 400 743 q 396 740 396 742 l 399 739 l 400 736 m 208 735 q 204 736 207 736 q 201 739 204 736 l 197 735 l 208 729 l 208 735 m 379 733 l 379 738 l 372 738 l 372 733 l 379 733 m 415 724 q 426 729 424 724 q 422 731 425 731 q 418 732 422 732 l 417 731 q 415 724 415 729 m 325 722 l 325 726 l 314 726 l 314 722 l 325 722 m 363 724 q 375 718 364 722 l 378 725 l 369 725 q 363 724 364 725 m 340 714 l 344 710 l 354 711 l 354 717 l 340 714 m 389 708 l 399 708 l 399 715 l 389 715 l 389 708 m 421 701 q 411 707 421 707 l 406 707 l 406 706 l 403 704 l 411 699 l 421 701 m 374 701 l 374 704 l 363 704 l 363 696 l 375 697 l 374 701 m 388 704 l 379 704 l 379 700 l 388 700 l 388 704 m 365 683 l 365 689 l 360 689 l 360 683 l 365 683 m 178 678 q 189 681 183 678 l 189 683 l 186 685 l 183 686 l 179 686 l 175 685 l 175 681 q 176 680 175 681 q 176 679 176 679 l 178 678 m 414 683 q 403 679 407 683 l 406 674 l 417 674 l 414 683 m 400 632 l 400 626 l 422 629 l 400 632 m 404 615 l 407 615 q 413 619 413 615 l 408 622 q 404 624 407 624 l 399 619 l 404 615 m 414 600 l 415 603 l 408 606 l 408 601 l 414 600 m 390 592 q 388 588 390 590 q 400 592 397 588 l 390 592 m 414 575 q 422 582 422 574 l 414 582 l 410 578 l 407 582 q 406 581 407 582 q 406 581 406 581 l 403 579 l 399 578 l 401 572 q 411 574 408 572 l 410 576 l 414 575 m 515 561 q 519 563 518 561 q 521 567 521 565 l 518 568 l 510 568 l 507 567 l 507 565 q 515 561 511 561 m 408 557 l 403 560 l 394 560 q 392 550 392 557 l 410 551 l 410 557 l 408 557 m 326 558 l 324 547 l 322 547 q 290 467 314 528 l 276 431 l 318 432 l 326 558 m 467 550 q 469 553 467 550 q 465 551 465 553 q 461 549 464 551 l 465 549 q 467 550 465 550 m 494 546 l 494 547 l 489 550 l 488 549 l 494 546 m 446 546 q 443 549 449 547 l 444 546 q 445 544 444 544 q 446 546 446 544 m 415 543 q 417 539 415 540 q 422 540 419 538 l 426 546 l 415 547 l 415 543 m 392 525 q 401 531 396 525 l 397 535 l 392 535 q 388 533 390 533 q 392 525 388 529 m 490 518 q 499 520 494 518 q 503 526 503 522 l 500 529 q 488 529 496 533 q 483 526 483 529 q 490 518 483 518 m 361 501 l 361 506 l 350 506 l 350 499 l 360 499 l 361 501 m 497 500 q 497 501 497 500 q 496 501 496 501 l 496 503 l 490 503 q 488 500 488 503 l 496 499 l 497 500 m 124 489 l 128 489 l 129 493 l 119 494 l 124 489 m 365 490 l 365 486 l 374 486 l 374 490 l 365 490 m 340 468 q 347 474 347 471 q 342 478 346 476 q 336 481 338 479 l 329 475 l 331 465 l 336 467 l 340 468 m 425 476 q 428 479 428 476 l 422 479 q 419 481 419 479 l 418 478 l 419 475 q 425 476 421 476 m 132 469 q 140 467 138 467 l 132 478 l 125 474 l 132 469 m 399 474 q 394 475 399 475 l 394 472 l 396 472 l 399 474 m 126 460 q 132 461 131 460 l 129 465 l 125 468 q 121 469 124 469 l 117 469 l 114 468 q 111 457 110 461 l 119 453 l 119 454 q 121 458 118 456 q 126 460 124 460 m 346 438 q 347 436 346 436 q 351 436 349 436 q 354 440 354 436 q 350 446 354 444 q 346 449 350 444 l 346 438 m 369 436 q 365 443 369 442 q 357 438 357 443 l 357 433 l 365 433 l 369 436 m 318 428 q 329 421 318 421 l 329 428 l 318 428 m 363 415 l 363 422 l 357 422 l 357 415 l 363 415 m 218 411 l 224 414 l 222 414 l 219 415 l 217 414 l 218 414 l 218 411 m 40 401 q 44 406 44 404 q 43 407 43 406 l 33 407 q 36 403 33 403 q 40 401 39 403 m 199 385 q 206 388 204 385 q 196 393 206 390 l 192 389 l 192 386 q 199 385 194 385 m 358 379 q 371 385 365 379 q 363 388 365 388 q 360 383 360 385 q 358 379 358 382 m 125 349 l 125 350 l 122 347 l 126 347 l 125 349 m 388 342 q 389 344 388 344 q 388 349 389 347 l 385 347 l 382 346 l 379 344 l 382 344 l 383 343 q 388 342 385 342 m 247 346 q 250 342 246 342 l 253 344 l 247 346 m 72 328 q 74 329 74 328 q 75 331 75 331 q 71 335 75 333 q 65 336 67 335 q 60 331 60 333 q 61 328 60 328 l 72 328 m 194 328 q 201 331 199 328 l 194 333 l 192 331 l 194 328 m 225 322 q 218 324 224 324 q 213 325 214 324 q 214 321 213 321 l 219 321 l 225 322 m 254 286 q 260 292 256 286 q 243 299 253 292 q 242 293 242 297 q 244 289 242 292 q 251 286 247 286 l 254 286 m 236 276 q 236 279 236 279 l 236 283 l 233 283 q 229 285 233 285 l 225 283 q 223 280 222 282 q 225 278 224 278 q 231 275 228 275 l 235 275 q 236 276 235 276 m 189 274 q 200 274 196 271 l 194 275 q 192 278 192 278 q 191 277 192 278 q 190 275 190 276 q 190 274 190 275 q 189 274 189 274 m 88 272 l 88 268 l 92 267 l 94 265 l 96 268 l 96 272 l 88 272 m 382 239 q 388 242 388 239 q 386 244 388 243 q 385 244 385 244 q 378 246 383 251 l 378 240 q 378 240 378 240 q 379 239 379 239 l 382 239 m 367 217 q 361 222 367 222 q 354 220 358 222 q 350 217 350 218 q 363 208 350 208 q 367 217 367 208 m 304 206 q 303 206 304 206 q 303 207 303 207 l 296 207 l 296 206 q 294 203 294 206 q 301 199 294 199 q 304 203 304 201 l 304 206 z "},"5":{"ha":672,"x_min":-15,"x_max":600,"o":"m 571 521 q 415 657 522 629 l 414 657 q 347 664 379 664 q 272 658 319 664 l 278 715 l 510 733 q 533 758 533 736 l 546 944 q 539 964 546 956 q 518 972 529 972 l 90 947 q 67 926 69 947 l 61 882 l 108 882 q 143 883 131 882 q 296 889 208 883 q 414 886 349 890 l 414 879 q 399 885 408 885 q 367 876 388 883 q 351 872 358 872 l 353 867 l 336 878 q 272 882 301 882 q 206 879 228 879 q 139 878 183 878 q 74 882 107 878 q 65 875 71 874 l 60 876 l 11 517 l 10 500 q 13 476 10 493 q 30 443 15 457 q 71 429 44 429 q 97 433 83 429 q 214 457 168 450 q 251 460 236 460 q 301 447 285 460 q 325 392 325 426 q 316 350 325 371 q 292 314 307 329 q 163 257 253 274 q 13 250 122 250 q -8 240 0 250 q -12 219 -15 231 l 22 21 q 50 0 26 0 l 121 4 q 382 49 281 13 q 597 335 567 117 l 597 336 q 600 385 600 369 q 571 521 600 458 m 478 883 q 469 882 472 883 q 465 882 467 881 q 463 885 463 883 q 472 892 463 890 q 478 883 478 894 m 335 589 l 335 593 l 346 593 q 349 583 346 589 l 333 583 l 333 586 l 335 589 m 379 579 q 363 579 371 574 q 368 585 368 579 q 379 579 376 579 m 351 574 q 346 572 350 572 l 340 572 l 340 575 l 343 578 l 343 579 q 351 574 351 579 m 268 568 l 261 565 l 257 565 l 254 567 l 254 572 l 264 578 q 266 576 264 576 q 269 574 268 575 l 275 571 l 268 568 m 340 553 q 333 546 333 550 q 326 549 331 549 l 318 551 l 326 569 q 333 561 329 563 q 340 553 339 556 m 389 567 l 400 569 l 400 564 l 389 563 l 389 567 m 400 551 l 397 551 l 396 550 q 396 560 390 556 q 397 558 397 560 l 399 558 q 400 557 399 557 l 400 556 l 401 556 l 401 554 l 400 551 m 265 525 l 264 522 l 261 522 l 257 524 l 258 532 q 260 538 263 535 l 258 540 q 257 544 257 542 q 264 535 261 540 l 267 529 l 267 526 l 265 525 m 329 540 l 335 540 l 335 532 l 329 532 l 329 540 m 340 522 q 350 532 340 528 q 353 522 350 525 l 340 522 m 225 526 l 228 526 l 228 521 l 225 521 l 225 526 m 346 488 q 345 487 346 488 q 344 486 344 486 l 344 485 l 339 485 q 344 476 339 483 l 342 471 q 338 468 342 468 l 331 468 q 328 472 331 469 l 333 478 l 335 483 q 328 493 328 488 l 329 496 l 331 500 l 333 501 l 336 504 l 342 503 l 343 501 l 343 500 q 344 499 343 500 q 344 499 344 499 l 344 494 q 342 490 342 493 l 340 489 l 343 489 q 346 488 346 492 m 158 501 l 161 501 l 164 496 l 161 496 l 158 501 m 514 446 q 510 440 514 444 l 510 451 q 514 446 514 450 m 331 440 q 333 444 331 442 l 338 450 l 343 444 q 346 440 346 442 l 331 440 m 353 436 q 343 426 347 428 l 339 429 q 335 431 336 429 q 336 432 335 432 l 336 435 q 337 435 336 435 q 338 436 338 436 l 340 436 l 343 438 q 353 436 350 438 m 514 429 q 513 428 514 428 l 511 425 q 510 421 510 424 q 510 416 510 418 q 510 413 511 414 q 504 415 507 415 l 504 418 q 508 426 511 422 q 514 433 506 432 l 514 429 m 411 413 q 403 410 406 410 l 400 408 l 394 407 l 394 417 q 400 419 397 417 q 411 413 411 415 m 421 403 l 415 403 l 415 411 l 419 411 l 424 413 l 426 406 l 421 403 m 351 401 l 351 408 l 357 404 q 358 400 358 403 l 353 396 l 351 401 m 514 400 q 512 391 514 396 q 507 383 510 386 l 513 378 l 510 376 l 504 378 l 504 393 q 503 400 503 396 q 504 408 504 404 l 510 408 q 513 404 513 404 l 514 400 m 561 404 q 561 401 561 403 q 560 397 561 399 l 560 403 q 561 407 558 404 l 561 404 m 510 353 q 507 356 507 356 q 504 358 504 358 l 510 358 l 510 353 m 513 304 q 510 286 510 293 l 503 283 l 510 278 q 508 276 508 278 l 507 276 q 502 281 506 278 q 499 285 499 283 l 500 289 l 501 294 l 503 294 l 508 296 q 501 299 506 299 q 501 309 501 306 q 500 313 500 313 l 500 326 q 501 327 500 326 q 501 328 501 328 l 504 329 q 508 332 507 329 l 508 338 q 510 343 508 342 l 511 319 q 504 317 507 319 q 511 311 510 314 q 513 304 513 308 m 501 267 l 500 268 l 500 272 l 501 274 l 503 274 l 510 272 l 510 265 l 504 265 l 501 267 m 501 207 q 493 207 497 206 l 493 211 l 501 211 l 501 207 m 494 169 l 490 169 l 490 172 l 494 172 l 494 169 z "},"6":{"ha":694,"x_min":-14,"x_max":613,"o":"m 610 454 q 613 408 613 424 q 546 176 613 285 q 469 81 510 118 l 386 81 q 261 79 346 79 q 232 83 244 83 q 200 76 218 83 q 163 82 182 82 q 138 81 146 82 l 111 79 q 72 81 90 79 l 76 65 q -14 293 -14 149 q -10 360 -14 326 q 51 571 3 453 l 51 569 q 53 560 51 563 q 50 553 53 556 q 56 547 56 549 l 57 586 q 89 657 82 642 l 140 768 l 157 801 l 239 958 q 260 974 247 974 q 274 969 265 974 l 425 894 q 439 874 439 889 q 436 861 439 865 l 349 667 q 393 671 371 671 q 494 646 449 671 q 568 575 540 621 q 610 454 601 524 m 167 763 q 172 756 169 763 q 174 738 175 743 l 171 738 l 171 735 l 172 735 l 160 706 l 172 704 l 194 783 l 219 851 l 260 933 l 254 953 l 246 939 q 238 914 238 926 q 217 858 232 879 q 210 846 215 854 l 203 835 l 188 807 l 167 763 m 261 757 l 246 783 l 246 775 l 254 765 l 261 757 l 261 749 q 268 744 263 747 l 261 757 m 211 746 q 214 736 214 736 l 221 736 l 218 740 q 211 746 214 744 m 157 744 q 160 740 158 744 q 160 738 160 739 q 163 736 161 738 q 167 744 167 740 l 157 744 m 204 735 l 182 735 l 183 732 q 193 729 188 729 q 201 732 199 729 l 204 735 m 221 725 q 226 728 224 728 q 231 729 229 728 q 222 733 226 733 q 220 732 221 733 q 219 731 219 731 q 221 725 221 729 m 178 724 q 189 722 182 718 q 178 724 183 725 m 157 651 l 168 651 l 168 658 l 157 658 l 157 651 m 214 640 l 225 640 l 225 647 l 214 647 l 214 640 m 229 603 q 232 607 232 606 q 222 613 232 611 q 229 603 222 607 m 207 600 l 214 600 l 214 608 l 207 608 l 207 600 m 183 594 q 196 594 193 585 l 183 594 m 235 592 q 254 592 247 585 l 235 592 m 221 582 l 210 582 l 210 575 l 221 575 l 221 582 m 153 568 l 168 568 l 167 575 l 167 578 q 153 575 158 578 l 153 568 m 161 547 q 156 557 168 551 l 156 549 l 161 547 m 168 551 l 168 544 l 178 544 l 178 551 l 168 551 m 56 544 q 50 542 50 543 l 53 540 q 56 536 56 538 l 56 544 m 271 533 q 269 528 268 529 l 269 525 l 278 525 q 276 531 278 529 q 274 532 274 531 q 271 533 274 533 m 163 528 q 156 519 157 525 l 168 519 q 163 528 168 524 m 57 507 l 63 507 l 63 518 l 57 518 l 57 507 m 203 517 l 194 517 l 194 507 l 203 507 l 203 517 m 136 507 l 144 507 l 144 515 l 136 515 l 136 507 m 57 483 l 63 483 l 63 499 l 57 499 l 57 483 m 335 293 q 364 408 364 347 q 354 461 364 440 q 331 478 349 475 l 329 478 l 322 478 q 310 476 313 478 q 282 450 293 471 q 263 401 271 429 q 250 314 250 351 q 254 282 250 297 q 288 250 265 250 q 317 267 304 250 q 335 293 328 281 m 117 460 q 132 464 128 463 l 128 471 q 117 460 121 467 m 146 457 l 157 460 l 154 465 l 146 463 l 146 457 m 274 458 l 278 464 l 274 458 m 151 444 l 153 444 l 156 446 l 161 446 l 150 450 q 148 451 150 451 q 144 453 146 451 q 133 456 142 456 l 136 443 l 151 444 m 156 428 l 156 422 l 168 422 l 168 428 l 156 428 m 57 414 l 63 418 l 63 422 l 57 414 m 172 410 l 164 410 l 164 401 l 172 401 l 172 410 m 156 382 q 146 376 146 382 l 154 371 q 156 382 157 379 m 218 361 l 210 361 l 210 354 l 218 354 l 218 361 m 531 353 l 528 353 l 528 347 l 531 347 l 531 353 m 522 314 q 523 315 522 314 q 524 315 524 315 q 526 317 526 315 l 522 317 l 522 314 m 531 300 l 526 301 q 519 300 522 301 q 515 294 517 299 q 524 292 521 292 q 531 294 525 292 l 531 300 m 157 297 l 149 297 l 149 289 l 157 289 l 157 297 m 160 275 q 172 281 171 279 q 160 285 165 285 l 160 275 m 501 267 l 494 267 l 493 263 l 500 263 l 501 267 m 186 257 l 175 257 l 175 250 l 186 250 l 186 257 m 74 213 q 75 222 75 215 q 71 239 75 231 q 68 244 68 242 l 68 238 q 63 211 68 224 l 74 213 m 72 131 l 71 140 l 65 139 l 72 131 m 74 101 l 72 117 l 68 101 l 74 101 m 397 65 q 425 68 407 68 q 444 67 440 68 l 451 67 q 322 6 390 18 q 254 0 293 0 q 82 60 147 0 q 78 63 79 63 q 108 69 85 68 l 131 69 q 153 72 136 69 q 161 65 160 65 q 164 68 161 65 q 167 71 167 71 l 175 64 l 217 69 q 249 72 231 72 l 292 69 l 304 68 q 322 71 308 68 l 349 72 l 353 72 q 371 68 361 72 l 382 67 q 388 68 382 69 l 393 67 q 397 65 396 67 z "},"7":{"ha":651,"x_min":-14,"x_max":590,"o":"m 471 346 q 549 643 500 497 q 588 796 575 732 q 590 831 590 807 q 557 919 590 886 q 431 960 517 960 q 257 938 371 960 l 18 894 q -1 872 -1 892 l -14 629 q -5 608 -14 615 q 18 603 4 600 l 314 686 q 253 426 278 521 q 175 31 218 272 l 174 24 q 182 7 174 14 q 201 0 190 0 l 389 15 q 411 36 407 17 q 471 346 450 242 m 171 867 l 169 865 l 164 867 l 164 869 l 171 867 m 410 858 q 408 854 410 856 q 406 853 407 853 l 404 850 l 397 854 q 390 857 393 854 q 400 858 393 860 l 410 858 m 474 840 l 458 840 l 458 846 l 474 846 l 474 840 m 256 839 l 264 839 l 264 833 l 256 833 l 256 839 m 439 822 l 429 821 l 429 832 q 437 835 432 833 q 444 838 442 838 l 450 824 l 439 822 m 225 814 q 213 815 222 815 q 214 832 210 821 l 222 832 l 231 825 l 231 818 l 225 814 m 260 822 q 250 808 247 815 l 243 808 q 238 811 239 810 q 235 813 236 813 q 254 826 246 824 l 256 825 l 260 822 m 197 824 l 208 824 l 208 819 l 197 819 l 197 824 m 215 814 l 233 810 l 215 807 l 215 814 m 344 808 l 335 808 l 335 813 l 344 813 l 344 808 m 368 803 q 363 806 365 806 q 360 807 361 807 q 354 811 354 808 l 372 811 l 369 808 l 368 803 m 251 797 q 249 794 251 800 l 249 793 l 239 793 l 238 796 q 235 801 235 796 l 238 804 q 242 807 239 804 l 249 804 l 253 801 l 251 797 m 263 789 q 253 795 254 792 q 258 804 253 799 l 261 804 l 264 803 l 268 803 l 268 793 l 263 789 m 221 790 l 228 790 l 228 786 l 221 786 l 221 790 m 228 769 q 227 769 228 769 q 226 768 226 768 q 222 769 224 768 l 221 772 l 222 774 l 222 775 l 224 775 l 229 774 l 231 772 l 228 769 m 424 765 l 419 763 l 414 767 l 417 769 l 424 765 m 390 750 q 386 753 386 750 l 390 754 l 396 757 q 396 746 404 753 l 390 750 m 403 740 l 392 736 l 392 740 l 401 744 l 403 740 m 396 663 l 396 667 l 413 664 l 410 658 l 396 663 m 357 583 l 347 583 l 347 589 l 357 589 l 357 583 m 392 553 l 378 551 l 376 557 l 392 557 l 392 553 m 442 490 l 429 482 l 426 488 l 439 494 l 442 490 m 364 485 q 363 481 365 483 q 361 476 361 478 q 347 467 353 468 l 346 483 l 364 485 m 424 469 l 417 468 l 415 479 l 424 481 l 424 469 m 415 457 l 410 457 l 408 465 l 415 465 l 415 457 m 451 419 q 449 424 444 422 q 453 428 449 426 l 451 419 m 447 397 q 443 396 444 397 q 444 401 442 400 l 444 406 q 443 408 444 408 q 442 411 442 408 l 442 413 l 443 413 l 444 414 q 446 407 449 413 q 449 400 443 404 l 447 397 m 396 400 q 397 396 400 399 l 394 392 l 393 392 l 393 396 q 396 400 396 399 m 446 392 q 443 386 444 389 q 442 379 442 383 l 438 367 q 432 365 433 367 l 429 368 l 432 369 l 436 371 q 435 379 435 372 q 436 386 435 386 q 438 390 436 389 q 439 392 439 390 l 446 392 m 431 351 q 429 350 431 350 q 426 347 426 347 l 426 353 l 431 351 m 379 340 q 375 332 375 336 q 364 335 369 332 q 356 340 358 338 l 379 340 m 426 324 q 417 301 424 315 q 411 300 413 301 q 415 299 413 299 l 417 299 q 417 294 417 294 l 417 290 q 413 288 417 288 q 410 285 411 285 q 407 283 408 285 q 406 284 407 283 q 406 285 406 285 l 407 288 l 413 290 l 407 293 l 408 301 q 410 308 408 307 l 411 313 l 419 317 q 415 321 419 321 l 424 339 l 421 329 q 426 324 421 329 m 293 315 q 290 304 293 310 q 279 297 286 297 q 276 298 278 297 q 274 299 275 299 q 272 300 275 300 q 272 294 271 299 l 276 288 q 268 288 275 286 q 261 296 261 289 q 264 306 261 300 l 271 315 l 293 315 m 347 278 q 344 257 343 264 l 344 253 q 340 242 344 249 q 342 239 342 242 q 340 235 342 236 q 339 231 339 233 l 340 217 l 339 214 l 339 213 l 319 217 l 346 294 q 347 286 346 292 q 347 278 349 281 m 408 275 l 401 275 l 404 282 l 411 281 l 413 281 l 411 276 l 408 275 m 401 257 l 403 261 l 406 260 l 404 257 l 401 257 m 397 247 l 399 249 l 401 249 l 400 246 l 397 247 m 400 225 q 393 228 393 225 l 393 231 l 401 229 l 400 225 m 351 201 q 347 196 351 196 l 346 196 q 343 201 343 199 q 344 206 343 204 q 346 211 344 210 l 349 217 q 351 208 349 208 q 351 201 354 206 z "},"8":{"ha":671,"x_min":-14,"x_max":599,"o":"m 171 913 l 156 913 q 329 956 228 956 q 482 919 422 956 l 489 915 q 442 917 457 915 l 396 917 l 265 915 q 243 913 257 908 q 224 914 236 914 l 171 913 m 586 396 q 599 321 599 361 q 594 271 599 296 q 553 154 586 208 l 553 153 l 551 153 l 532 125 l 521 125 q 506 126 511 125 l 492 126 q 463 128 485 128 l 432 124 q 369 126 414 124 q 342 128 360 128 q 307 126 318 128 q 306 118 311 121 q 303 111 303 117 q 442 118 368 110 l 479 119 q 529 122 515 122 q 397 24 474 56 q 263 -3 328 -3 q 88 49 165 -3 q 12 135 38 83 q -14 244 -14 186 q 8 354 -14 299 q 7 225 8 274 q 14 368 14 306 q 106 488 42 431 q 64 550 81 521 q 31 674 31 608 q 142 903 31 817 q 190 901 161 901 l 236 901 q 304 903 278 901 q 350 906 332 903 q 422 907 393 906 l 428 903 l 485 906 l 503 906 l 519 892 q 463 893 506 893 q 403 892 429 893 q 353 888 376 892 q 413 886 374 886 q 469 888 451 886 l 519 890 q 583 721 583 831 q 565 626 583 667 q 519 546 550 578 l 493 515 q 494 514 493 514 q 495 513 494 514 q 496 513 496 513 l 496 511 q 500 510 496 510 q 586 396 564 457 m 328 888 q 322 886 324 888 l 317 885 l 332 883 q 328 888 331 888 m 457 850 l 457 851 l 450 853 l 450 851 l 457 850 m 254 819 q 249 815 249 819 l 261 808 l 272 803 l 276 807 l 276 813 l 267 814 l 264 815 q 254 819 256 819 m 353 815 q 351 816 353 815 q 350 818 350 817 l 349 815 l 353 815 m 357 815 q 360 813 357 813 l 360 810 l 364 814 l 364 815 l 357 815 m 296 811 q 293 808 294 810 q 293 806 292 806 q 303 800 297 801 l 304 801 l 301 807 q 296 811 300 811 m 372 796 l 372 800 l 368 801 q 365 803 368 803 q 357 800 360 803 l 357 796 l 364 793 l 372 796 m 413 779 l 417 775 q 415 772 417 772 l 414 771 q 417 762 414 767 q 425 757 419 757 l 431 757 q 433 761 433 757 l 431 764 q 428 765 428 764 q 425 774 428 765 q 415 781 424 781 l 413 779 m 394 769 q 388 763 388 768 l 389 758 q 394 756 390 756 q 404 763 404 756 q 394 769 404 768 m 339 636 q 342 636 342 633 l 343 646 l 343 658 q 342 667 342 661 l 342 692 l 344 715 l 339 726 l 339 721 l 336 725 q 303 739 324 739 q 285 735 293 739 q 261 692 272 725 q 260 676 260 686 q 265 654 260 661 q 292 644 271 644 q 336 685 325 644 l 338 685 l 338 635 q 338 635 338 635 q 339 636 339 636 m 418 715 q 421 717 421 715 l 421 722 q 415 725 418 725 l 413 722 l 413 715 l 418 715 m 422 708 q 425 706 422 706 l 425 703 q 426 710 429 704 l 425 710 l 425 708 l 422 708 m 400 704 q 404 703 401 703 q 407 706 407 703 l 404 706 q 403 706 404 706 q 403 707 403 707 l 400 706 q 399 704 399 706 l 400 704 m 438 688 q 435 690 435 688 l 433 694 l 429 694 q 426 689 426 692 q 426 688 426 689 q 425 688 425 688 l 425 686 q 429 685 425 685 l 435 685 q 435 684 435 685 q 436 683 436 683 l 438 688 m 482 692 q 483 691 482 692 q 483 690 483 690 q 484 693 485 692 q 482 694 483 694 q 481 694 482 694 q 481 693 481 693 l 481 692 l 482 692 m 414 688 q 415 685 414 685 l 415 682 l 422 682 l 422 686 l 421 689 l 414 688 m 440 675 q 439 676 440 676 l 436 676 l 433 675 l 436 669 q 435 663 438 665 q 433 660 433 663 q 432 654 433 656 l 432 646 q 433 642 432 643 q 436 639 436 642 l 440 640 l 443 646 q 444 650 444 647 q 444 651 446 651 q 444 652 444 651 q 443 653 443 653 l 443 665 q 443 675 442 669 l 440 675 m 465 667 q 457 674 465 674 l 453 672 l 453 665 q 457 663 453 663 q 460 663 458 663 q 463 664 461 664 q 465 667 465 664 m 446 654 l 449 653 l 450 654 q 451 655 450 654 q 451 656 451 656 l 446 654 m 410 644 q 413 639 408 643 l 421 638 l 421 642 l 415 643 l 417 644 l 417 646 q 413 650 417 649 l 410 644 m 397 633 l 394 635 l 390 635 l 390 631 l 392 629 q 400 632 400 632 l 397 633 m 438 629 l 440 629 l 440 635 l 439 635 l 438 629 m 413 614 q 410 615 411 614 q 407 618 408 617 l 403 624 q 400 619 403 624 q 399 614 399 618 q 401 610 399 613 q 404 610 403 608 l 408 613 l 413 614 m 339 594 l 339 596 q 336 596 339 597 l 336 593 l 339 594 m 346 594 q 349 593 347 593 q 350 596 351 593 l 346 594 m 153 588 l 153 586 l 160 585 l 160 586 l 153 588 m 382 586 q 378 583 379 586 q 386 576 378 576 q 390 578 389 576 l 394 578 l 394 581 q 390 586 394 582 l 382 586 m 265 579 q 269 582 269 579 l 267 583 l 258 583 l 257 581 q 265 579 257 579 m 215 565 q 216 566 215 565 q 217 567 217 567 q 219 568 219 567 q 217 568 218 568 q 215 568 215 568 q 213 565 215 568 l 215 565 m 194 561 q 197 563 196 563 q 196 564 197 564 l 193 565 q 194 563 193 563 l 194 561 m 396 550 l 396 547 l 394 547 q 399 547 397 546 l 401 547 l 403 550 l 396 550 m 235 539 q 240 536 235 536 q 247 538 243 536 q 251 543 251 539 q 244 549 250 549 q 233 543 233 546 l 235 539 m 332 540 q 325 539 326 540 l 318 539 q 308 529 308 532 q 319 524 308 524 l 321 524 q 328 526 325 524 q 332 531 332 528 l 332 540 m 461 536 q 457 539 461 539 l 457 536 l 461 536 m 286 538 l 283 538 l 283 535 l 285 533 l 286 538 m 246 515 l 247 518 l 246 519 l 239 519 q 238 519 239 519 q 238 518 238 518 l 236 517 l 246 515 m 419 517 l 419 513 q 420 512 419 513 q 421 511 421 511 l 425 513 q 426 515 425 515 l 422 518 l 419 517 m 357 511 q 350 511 351 513 l 354 510 q 357 511 357 510 m 269 497 q 261 501 265 501 q 251 496 257 501 l 251 494 l 257 493 q 261 494 258 494 q 269 494 265 493 l 269 497 m 389 482 q 400 488 396 482 q 397 490 400 488 q 394 493 394 490 q 392 496 392 493 l 392 499 l 386 499 l 382 496 q 379 493 382 496 q 389 482 389 489 m 176 494 q 179 496 179 494 l 174 496 l 171 497 q 170 497 171 497 q 169 496 169 496 q 171 494 169 494 l 171 493 l 176 494 m 433 497 q 427 494 428 497 q 432 490 426 490 l 433 492 l 435 494 l 435 496 q 434 497 435 496 q 433 497 433 497 m 372 489 q 378 493 375 493 l 375 496 l 371 496 q 365 492 365 497 q 367 489 367 492 l 372 489 m 146 489 q 147 490 147 489 l 151 490 l 146 493 l 146 489 m 331 483 q 329 485 331 485 q 326 482 326 482 l 329 482 l 331 483 m 431 478 q 431 479 431 478 q 431 482 431 481 l 432 485 q 426 481 426 485 q 427 478 425 479 q 431 478 429 478 m 357 446 q 354 450 358 446 q 349 446 353 446 q 343 449 344 446 l 346 442 q 353 436 346 439 l 356 438 l 357 446 m 429 440 q 432 442 432 440 l 433 442 l 433 447 q 428 449 432 449 q 422 446 422 449 q 424 444 424 446 q 425 443 425 443 q 429 440 425 443 m 389 438 l 390 440 l 388 442 l 383 443 q 379 438 382 443 q 383 433 379 433 l 389 438 m 333 435 l 329 436 l 328 429 l 336 429 l 338 432 l 333 435 m 456 414 l 463 414 l 464 415 q 465 416 464 415 q 465 417 465 417 l 461 418 l 456 418 l 456 414 m 438 401 q 444 397 438 397 l 447 397 l 447 399 q 443 400 446 400 q 442 401 443 400 q 442 401 442 401 l 442 406 l 447 411 l 440 414 q 433 411 436 414 l 433 408 q 438 401 439 404 m 399 393 q 390 392 392 393 l 392 389 l 392 386 l 397 388 l 397 390 l 399 393 m 328 278 q 340 321 344 294 q 296 356 332 361 q 243 288 243 344 q 278 251 243 251 q 326 276 303 251 q 328 278 328 276 m 528 324 q 525 326 525 324 l 519 326 q 518 322 518 325 l 525 322 l 528 324 m 542 307 q 531 303 539 307 l 531 300 l 536 299 q 543 300 539 300 q 549 301 547 300 l 549 304 l 542 307 m 443 244 q 447 246 446 244 q 447 249 449 247 l 446 251 q 439 251 443 256 l 439 246 l 442 246 q 442 245 442 246 q 443 244 443 244 m 425 218 q 431 225 431 218 q 425 229 431 229 q 419 228 422 229 q 415 225 415 226 q 425 218 415 218 m 124 210 q 129 214 129 210 q 128 215 129 215 l 128 217 l 121 217 l 121 214 q 124 210 121 211 m 379 215 q 378 216 379 215 q 378 217 378 217 l 372 217 q 372 216 372 217 q 371 215 371 215 l 371 214 q 375 210 371 210 q 379 214 379 214 l 379 215 m 154 179 q 146 182 149 182 q 143 178 143 182 l 143 174 l 154 179 m 51 156 l 49 154 l 49 153 l 50 151 l 57 153 l 57 156 l 51 156 m 517 149 q 512 153 515 151 q 504 156 508 156 q 496 154 499 156 q 489 153 493 153 l 458 153 q 439 149 447 153 l 517 149 m 78 149 q 72 151 75 151 l 65 149 q 72 144 68 146 l 72 139 l 68 138 l 65 136 l 65 135 l 68 133 q 75 138 75 133 q 78 147 74 140 l 78 149 m 249 131 q 251 133 251 131 l 243 133 l 243 129 q 249 131 244 131 m 222 126 q 223 127 222 126 q 224 128 224 128 l 218 129 l 218 126 l 222 126 z "},"9":{"ha":651,"x_min":-12,"x_max":593,"o":"m 332 0 q 314 4 318 0 l 154 104 q 142 122 142 113 q 147 139 142 128 q 217 257 182 194 q 218 256 217 256 l 232 251 l 236 251 l 242 250 l 247 250 q 249 253 247 253 l 249 256 q 242 264 249 257 q 238 260 242 264 q 233 258 236 258 l 226 260 q 219 261 224 261 l 221 265 l 224 269 l 235 292 l 247 315 q 207 313 219 313 l 181 314 l 161 317 l 150 319 q 94 340 118 326 l 93 340 q -12 549 -12 400 q 71 829 -12 713 q 188 933 121 900 q 328 967 256 967 q 432 950 385 967 q 571 819 531 915 q 593 682 593 764 q 592 631 593 647 q 573 507 588 563 q 536 393 558 451 q 488 272 508 321 q 426 153 467 222 q 349 13 382 67 q 332 0 342 3 m 242 932 q 238 939 242 938 l 236 938 q 234 935 235 936 q 235 935 233 935 q 242 932 238 932 m 172 924 q 170 923 171 924 q 169 922 169 922 l 172 919 l 178 924 l 172 924 m 206 913 l 201 910 l 204 908 l 207 911 l 206 913 m 178 896 q 182 897 181 896 q 182 901 185 901 q 176 899 179 901 q 172 894 175 894 l 178 896 m 189 890 q 196 893 196 890 l 196 896 l 192 899 l 188 896 q 185 893 185 893 q 189 890 185 890 m 142 872 q 149 874 146 872 q 149 881 150 875 q 143 886 144 882 l 132 881 l 133 872 l 142 872 m 151 854 l 149 851 l 154 849 l 157 851 l 151 854 m 136 849 l 129 853 l 125 847 l 133 843 l 136 846 l 136 849 m 333 835 l 326 835 l 326 832 l 333 832 l 333 835 m 282 800 q 285 801 282 801 l 279 806 q 275 808 276 808 q 272 807 275 807 l 271 807 l 282 799 l 282 800 m 239 799 q 242 800 242 799 l 244 804 l 238 806 q 233 804 236 804 l 232 803 l 232 799 l 233 796 l 236 799 l 239 799 m 333 799 l 325 800 q 332 794 325 794 l 333 799 m 226 779 q 232 781 231 779 l 232 785 q 226 792 232 790 l 219 792 l 219 782 l 226 779 m 319 785 q 321 788 322 786 q 318 790 319 790 q 317 792 317 790 l 313 792 q 319 785 315 785 m 288 538 q 331 572 315 542 q 361 643 347 601 q 368 693 368 665 q 365 722 368 714 q 326 753 356 753 q 267 719 296 753 q 232 639 239 685 q 229 610 229 629 q 243 557 229 581 q 276 536 256 536 q 288 538 283 536 m 347 756 q 345 755 346 756 q 343 753 344 754 q 342 750 342 753 l 347 756 m 438 744 q 438 747 439 746 q 438 750 438 749 q 432 742 432 744 q 435 740 432 740 l 438 739 l 438 744 m 435 731 l 432 731 l 432 726 l 435 726 l 435 731 m 408 585 q 421 628 418 597 l 422 631 q 424 635 424 632 l 422 646 l 421 658 l 421 682 q 422 689 421 686 q 419 699 422 693 q 417 703 419 703 l 414 707 l 410 715 l 408 722 l 408 651 l 411 650 l 411 649 l 410 649 l 408 646 l 408 585 m 432 619 l 429 619 l 429 590 l 432 590 l 432 619 m 468 560 q 464 556 464 558 q 468 551 464 554 l 468 560 m 472 531 l 472 533 q 468 540 465 536 q 464 544 471 543 l 463 544 l 463 542 q 465 540 463 540 q 467 533 468 538 q 468 529 467 529 l 472 531 m 126 525 l 119 525 l 119 522 l 126 522 l 126 525 m 472 499 l 472 525 l 468 525 q 464 518 464 519 q 466 510 464 515 q 471 503 468 504 l 467 500 q 466 499 467 500 q 465 499 465 499 l 468 497 l 472 499 m 424 515 q 425 519 424 519 q 421 524 425 522 l 422 515 l 424 515 m 468 478 q 471 481 468 481 l 472 483 l 468 483 l 468 478 m 472 415 q 478 421 478 421 q 476 425 478 424 l 475 429 l 469 431 q 474 432 471 435 q 476 444 474 431 l 476 457 l 469 460 q 468 469 469 468 l 467 450 q 472 449 472 450 q 465 443 467 446 l 465 438 l 467 431 l 468 422 q 472 421 471 422 l 468 415 l 469 414 l 471 414 l 472 415 m 428 335 q 428 335 428 335 q 429 336 429 336 q 426 344 429 339 q 421 351 424 349 l 421 356 q 422 360 422 357 q 422 360 422 360 q 421 361 421 361 l 419 361 q 419 378 424 369 q 414 399 417 385 q 408 413 414 401 l 408 333 l 428 333 l 428 335 m 474 406 l 475 406 l 476 407 l 476 411 l 475 413 l 471 413 q 468 411 471 411 l 468 404 l 472 404 l 474 406 m 474 357 q 482 357 478 356 l 482 360 l 474 360 l 474 357 m 443 318 q 444 325 444 319 q 442 331 444 331 q 438 340 440 331 l 436 333 l 435 328 q 440 319 435 321 q 442 318 440 318 l 443 318 m 274 299 q 282 303 278 299 q 276 304 281 304 q 274 300 274 301 l 274 299 m 250 288 l 256 290 l 254 294 q 249 292 251 294 q 239 290 240 292 q 243 285 239 290 l 249 285 l 250 288 m 274 258 q 276 260 276 258 l 269 260 q 268 256 269 257 l 274 256 l 274 258 m 224 232 l 232 236 q 236 240 236 239 l 236 244 l 228 244 l 218 240 q 211 235 211 238 l 211 232 l 219 231 l 224 232 m 269 225 q 272 228 272 225 q 264 236 272 232 q 261 229 261 233 q 264 221 261 226 l 269 225 m 228 225 q 238 225 233 222 l 238 229 l 236 231 l 232 231 l 228 228 l 228 225 m 210 206 q 214 208 211 206 l 213 211 l 211 214 q 210 206 210 211 z "}," ":{"ha":417,"x_min":0,"x_max":0,"o":""},"A":{"ha":836,"x_min":-14,"x_max":768,"o":"m 768 28 q 760 8 768 17 q 740 0 753 0 l 531 0 q 503 25 506 0 l 489 194 l 279 153 l 249 25 q 221 4 243 4 l 15 8 q -6 19 1 8 q -11 44 -14 29 q 85 372 24 175 q 169 610 117 476 q 300 925 218 733 q 321 942 306 938 l 350 947 q 414 958 392 956 q 456 961 426 961 q 494 960 482 961 q 601 864 561 954 q 631 768 614 831 q 664 615 649 693 l 768 33 l 768 28 m 333 900 l 333 908 l 328 908 l 328 900 l 333 900 m 501 864 l 501 875 l 497 875 l 497 864 l 501 864 m 490 840 q 493 851 493 846 q 486 853 486 851 l 486 844 l 490 840 m 329 846 l 329 828 q 336 844 329 833 l 332 844 l 329 846 m 513 842 q 517 844 515 844 l 501 846 l 501 840 q 503 836 503 839 l 508 836 q 513 842 508 838 m 501 836 l 501 839 l 499 844 l 499 840 l 501 836 m 528 829 q 518 819 522 829 l 521 817 l 539 817 l 544 819 q 538 828 538 824 l 540 832 q 528 829 532 829 m 524 792 q 518 786 518 792 q 525 783 521 783 q 532 781 526 783 q 535 785 535 783 l 536 788 q 524 792 529 792 m 411 779 l 413 783 l 411 783 l 408 781 l 411 779 m 426 765 l 433 765 q 436 765 435 764 q 439 765 438 765 q 436 774 439 771 q 433 773 435 774 q 431 772 432 772 l 425 772 l 426 765 m 547 747 q 540 743 547 746 q 538 739 538 743 q 540 735 538 738 l 549 735 q 554 740 554 738 q 547 747 554 747 m 242 693 q 238 692 243 696 q 233 686 233 688 q 237 676 233 682 q 242 671 240 671 q 243 682 243 675 q 242 693 243 690 m 338 672 q 338 673 338 672 q 340 674 339 674 q 346 675 344 672 l 339 678 q 338 675 338 678 l 338 672 m 240 636 l 246 636 l 246 653 l 240 651 l 240 636 m 403 646 q 386 636 392 646 q 393 625 389 626 q 406 628 397 624 l 410 639 l 408 642 q 406 646 408 643 l 403 646 m 553 642 l 563 642 l 563 644 l 553 644 l 553 642 m 568 619 q 560 626 568 626 l 558 622 l 560 619 l 568 619 m 447 467 q 438 533 442 511 q 419 621 426 592 l 351 397 l 456 400 l 447 467 m 388 601 l 390 600 l 394 611 l 392 613 l 388 601 m 522 601 l 525 603 l 522 606 l 518 604 l 522 601 m 349 521 q 358 530 353 524 q 364 540 363 536 l 367 551 l 381 581 l 374 583 l 367 578 q 360 572 361 572 q 353 547 353 546 q 347 538 349 538 q 343 532 347 535 q 339 522 340 529 l 329 492 l 324 472 q 311 450 319 460 q 301 433 303 440 q 299 425 299 426 q 296 413 296 419 q 288 393 294 404 q 281 376 282 382 q 283 367 281 367 q 290 367 288 365 q 294 371 290 367 q 303 394 300 383 q 313 417 304 407 q 321 429 313 421 l 326 444 q 335 467 329 449 q 349 504 340 485 l 349 521 m 540 553 q 541 553 540 553 q 542 554 542 554 l 532 556 l 532 550 l 540 550 l 540 553 m 568 540 l 560 543 l 560 540 l 568 538 l 568 540 m 501 533 q 506 531 503 531 q 508 533 508 531 l 501 533 m 574 485 q 581 490 581 485 l 574 485 m 485 481 q 482 485 485 482 l 476 486 l 476 481 l 485 481 m 535 467 q 518 481 533 478 q 514 472 514 479 l 522 472 q 521 463 515 468 l 533 463 l 533 467 l 535 467 m 571 475 q 579 478 579 475 q 577 478 578 478 q 576 481 576 479 l 574 481 q 571 478 571 481 l 571 475 m 553 475 q 557 472 556 472 l 560 476 q 551 478 560 478 l 553 475 m 571 460 q 579 457 576 457 q 593 461 586 457 q 582 467 588 467 l 571 467 l 571 460 m 533 443 q 540 442 539 443 l 549 442 l 549 449 l 544 450 q 540 451 543 451 q 533 443 533 449 m 478 447 l 478 444 l 489 444 l 489 447 l 478 447 m 600 442 q 596 447 599 447 l 582 447 q 571 440 575 442 q 567 436 567 438 q 579 411 567 431 l 599 411 l 604 413 q 594 419 600 419 q 581 428 589 419 q 592 433 590 431 q 600 442 593 438 m 261 443 l 258 431 q 263 422 258 425 q 267 433 267 429 l 267 443 l 261 443 m 536 436 l 535 439 l 525 439 l 525 433 l 532 428 l 532 429 l 535 431 l 538 431 l 536 436 m 553 429 q 552 430 553 429 q 551 431 551 431 l 549 431 l 551 414 q 557 428 556 419 l 553 429 m 519 422 q 513 423 517 424 q 508 422 510 422 l 513 415 q 521 417 515 417 l 531 415 q 537 417 533 415 q 540 422 540 419 l 519 422 m 506 407 l 504 403 l 507 401 l 508 407 l 506 407 m 525 388 q 526 392 526 389 l 518 393 l 515 390 l 514 388 l 524 385 q 525 388 524 388 m 503 388 q 506 390 508 388 l 503 388 m 581 372 q 576 378 581 374 l 572 376 q 571 375 571 376 l 579 372 l 581 372 m 568 353 q 565 361 565 356 q 563 369 563 367 q 540 376 550 378 q 544 374 540 374 q 554 361 550 372 l 554 353 l 568 353 m 494 367 l 494 361 l 499 361 l 499 367 l 494 367 m 625 350 l 625 351 l 617 353 l 617 350 l 625 350 m 525 343 l 531 343 l 531 350 l 525 350 l 525 343 m 494 338 l 494 340 l 490 340 l 490 338 l 494 338 m 442 333 l 442 331 l 449 331 l 449 333 l 442 333 m 478 311 q 479 318 479 313 q 469 314 476 318 l 475 314 l 478 311 m 524 308 q 517 301 517 301 q 531 297 525 297 q 540 308 540 304 q 536 314 540 310 q 532 317 532 314 l 524 308 m 553 269 l 560 269 l 560 272 l 553 272 l 553 269 m 535 269 q 543 258 535 263 l 543 269 l 535 269 m 589 260 q 592 252 589 257 q 601 247 596 247 q 610 249 608 247 q 618 250 610 249 q 614 253 617 253 l 608 257 q 607 269 607 258 q 600 264 606 264 l 589 260 m 278 258 l 278 251 l 293 251 l 293 258 l 278 258 m 260 232 q 257 240 257 238 q 240 247 243 247 q 230 243 233 247 q 226 236 226 239 q 232 227 226 232 q 244 222 238 222 q 249 224 247 222 l 263 224 l 260 232 m 494 247 l 494 242 l 499 242 l 499 247 l 494 247 m 651 243 l 651 246 l 646 246 l 646 243 l 651 243 m 510 242 q 515 238 515 240 l 529 238 l 529 242 l 510 242 m 442 240 l 438 239 l 439 236 l 443 238 l 442 240 m 674 50 q 681 53 678 50 l 675 86 l 669 119 l 664 126 l 661 133 q 668 143 661 138 q 657 156 656 150 q 660 167 660 164 q 654 185 660 175 q 650 194 650 192 q 654 200 650 200 q 656 204 656 200 q 651 218 656 210 l 642 210 l 632 203 l 628 206 l 628 219 q 640 226 628 226 l 646 222 l 646 233 q 635 238 642 236 q 625 240 628 240 q 608 235 618 240 q 599 225 599 231 q 601 221 599 224 l 607 217 q 607 207 603 213 l 613 203 q 615 201 614 203 q 615 200 615 200 q 606 197 611 197 q 593 190 593 197 q 590 181 590 181 q 597 181 593 182 q 599 176 600 179 q 596 174 599 174 q 594 172 594 174 q 593 168 594 169 l 590 163 l 590 150 q 605 143 592 149 q 606 132 618 138 q 622 131 610 131 q 629 132 626 131 l 638 132 l 638 113 l 636 113 l 636 111 l 635 111 l 639 107 q 643 103 643 103 q 646 100 643 100 q 650 96 646 100 l 651 83 q 661 72 654 76 q 660 68 661 69 l 660 65 q 665 56 660 63 q 674 50 671 50 m 150 217 q 146 222 154 221 l 146 219 l 150 217 m 210 194 q 208 201 213 197 q 206 194 206 199 q 208 193 206 193 q 210 194 210 193 m 579 181 q 581 185 581 181 l 571 185 q 572 181 571 181 q 576 176 572 181 q 577 178 576 178 q 579 181 578 179 m 176 169 l 179 171 l 179 178 q 171 182 179 182 l 168 181 q 167 180 168 181 q 167 179 167 179 l 167 174 l 176 169 m 514 181 l 514 175 l 524 175 l 524 181 l 514 181 m 549 164 q 545 169 549 168 q 540 169 542 169 l 540 164 l 549 164 m 171 147 q 173 150 171 149 q 176 153 175 151 l 186 156 l 186 161 q 182 164 183 164 l 176 168 q 154 156 171 156 q 158 149 154 153 q 167 144 163 144 q 171 147 168 144 m 532 154 q 525 157 526 156 l 526 147 l 540 150 l 532 154 m 226 119 q 229 125 229 121 l 226 128 q 224 126 224 128 l 221 126 l 215 125 l 221 121 l 226 119 m 168 111 q 164 113 167 111 q 158 117 161 115 q 151 111 151 117 q 160 111 153 110 l 168 111 m 185 106 q 190 110 189 110 q 185 117 190 115 q 176 111 176 113 l 185 106 m 557 106 q 551 114 557 108 l 544 110 l 542 106 l 557 106 m 571 40 q 572 41 571 40 q 572 42 572 42 q 568 56 568 50 l 554 56 q 561 45 557 50 q 569 38 565 40 l 571 40 z "},"":{"ha":836,"x_min":-14,"x_max":768,"o":"m 317 1042 q 297 1049 306 1042 q 288 1067 288 1057 q 290 1078 288 1074 l 399 1249 q 426 1269 410 1269 l 646 1276 q 664 1269 656 1276 q 672 1251 672 1261 q 664 1233 672 1242 l 497 1065 q 478 1049 486 1054 q 457 1044 469 1044 l 317 1042 m 450 1228 q 451 1224 450 1226 q 450 1218 451 1222 q 451 1210 451 1215 q 471 1197 461 1197 q 469 1200 471 1199 q 467 1201 468 1201 q 461 1215 464 1206 l 463 1224 l 450 1228 m 492 1219 l 493 1226 l 488 1228 l 486 1221 l 492 1219 m 528 1221 l 529 1224 l 525 1224 l 524 1221 l 528 1221 m 576 1215 l 578 1218 l 571 1219 l 569 1217 l 576 1215 m 435 1206 l 442 1206 q 433 1211 436 1211 l 432 1211 l 435 1206 m 518 1196 l 519 1201 l 515 1203 l 514 1197 l 518 1196 m 483 1183 q 481 1179 481 1182 q 483 1178 482 1179 q 488 1176 485 1176 l 492 1178 l 493 1181 l 485 1185 q 484 1184 485 1185 q 483 1183 483 1183 m 407 1154 q 397 1149 403 1150 q 400 1142 397 1144 l 413 1139 q 427 1144 424 1143 q 431 1147 431 1144 l 431 1150 q 428 1160 431 1154 q 425 1174 426 1167 l 414 1176 l 406 1178 l 400 1178 q 408 1169 403 1169 q 419 1157 414 1167 q 407 1154 408 1157 m 504 1178 q 501 1175 500 1178 l 504 1178 m 497 1160 l 499 1163 l 497 1165 l 494 1160 l 497 1160 m 451 1164 q 442 1151 446 1160 l 446 1150 l 447 1147 l 450 1147 l 451 1164 m 488 1153 q 479 1154 482 1153 q 476 1156 478 1154 q 471 1157 475 1157 q 464 1157 468 1158 q 460 1153 460 1156 l 479 1149 q 490 1146 483 1146 l 488 1153 m 460 1144 q 460 1142 460 1143 q 460 1139 461 1140 l 461 1136 l 471 1133 l 472 1139 l 467 1146 l 465 1144 l 463 1143 l 460 1144 m 449 1128 q 453 1125 450 1125 q 461 1131 458 1125 q 454 1135 454 1133 l 451 1135 q 447 1136 450 1136 l 444 1129 l 449 1128 m 421 1124 q 399 1128 413 1132 q 408 1119 406 1121 q 419 1117 419 1117 l 421 1124 m 504 1119 l 503 1117 l 514 1114 l 515 1117 l 504 1119 m 467 1092 q 474 1099 471 1092 l 469 1099 q 465 1100 468 1100 q 468 1110 474 1103 l 457 1113 l 456 1108 l 454 1108 q 467 1092 454 1096 m 408 1108 q 413 1107 410 1108 q 417 1107 417 1106 q 413 1109 415 1108 q 408 1108 410 1110 m 435 1104 q 432 1108 433 1108 l 428 1106 q 435 1101 428 1104 q 435 1104 436 1103 m 413 1100 q 407 1101 410 1101 q 404 1097 404 1100 l 413 1100 m 358 1090 q 360 1085 357 1089 q 364 1082 363 1085 l 365 1088 l 358 1090 m 768 28 q 760 8 768 17 q 740 0 753 0 l 531 0 q 503 25 506 0 l 489 194 l 279 153 l 249 25 q 221 4 243 4 l 15 8 q -6 19 1 8 q -11 44 -14 29 q 85 372 24 175 q 169 610 117 476 q 300 925 218 733 q 321 942 306 938 l 350 947 q 414 958 392 956 q 456 961 426 961 q 494 960 482 961 q 601 864 561 954 q 631 768 614 831 q 664 615 649 693 l 768 33 l 768 28 m 333 900 l 333 908 l 328 908 l 328 900 l 333 900 m 501 864 l 501 875 l 497 875 l 497 864 l 501 864 m 490 840 q 493 851 493 846 q 486 853 486 851 l 486 844 l 490 840 m 329 846 l 329 828 q 336 844 329 833 l 332 844 l 329 846 m 513 842 q 517 844 515 844 l 501 846 l 501 840 q 503 836 503 839 l 508 836 q 513 842 508 838 m 501 836 l 501 839 l 499 844 l 499 840 l 501 836 m 528 829 q 518 819 522 829 l 521 817 l 539 817 l 544 819 q 538 828 538 824 l 540 832 q 528 829 532 829 m 524 792 q 518 786 518 792 q 525 783 521 783 q 532 781 526 783 q 535 785 535 783 l 536 788 q 524 792 529 792 m 411 779 l 413 783 l 411 783 l 408 781 l 411 779 m 426 765 l 433 765 q 436 765 435 764 q 439 765 438 765 q 436 774 439 771 q 433 773 435 774 q 431 772 432 772 l 425 772 l 426 765 m 547 747 q 540 743 547 746 q 538 739 538 743 q 540 735 538 738 l 549 735 q 554 740 554 738 q 547 747 554 747 m 242 693 q 238 692 243 696 q 233 686 233 688 q 237 676 233 682 q 242 671 240 671 q 243 682 243 675 q 242 693 243 690 m 338 672 q 338 673 338 672 q 340 674 339 674 q 346 675 344 672 l 339 678 q 338 675 338 678 l 338 672 m 240 636 l 246 636 l 246 653 l 240 651 l 240 636 m 403 646 q 386 636 392 646 q 393 625 389 626 q 406 628 397 624 l 410 639 l 408 642 q 406 646 408 643 l 403 646 m 553 642 l 563 642 l 563 644 l 553 644 l 553 642 m 568 619 q 560 626 568 626 l 558 622 l 560 619 l 568 619 m 447 467 q 438 533 442 511 q 419 621 426 592 l 351 397 l 456 400 l 447 467 m 388 601 l 390 600 l 394 611 l 392 613 l 388 601 m 522 601 l 525 603 l 522 606 l 518 604 l 522 601 m 349 521 q 358 530 353 524 q 364 540 363 536 l 367 551 l 381 581 l 374 583 l 367 578 q 360 572 361 572 q 353 547 353 546 q 347 538 349 538 q 343 532 347 535 q 339 522 340 529 l 329 492 l 324 472 q 311 450 319 460 q 301 433 303 440 q 299 425 299 426 q 296 413 296 419 q 288 393 294 404 q 281 376 282 382 q 283 367 281 367 q 290 367 288 365 q 294 371 290 367 q 303 394 300 383 q 313 417 304 407 q 321 429 313 421 l 326 444 q 335 467 329 449 q 349 504 340 485 l 349 521 m 540 553 q 541 553 540 553 q 542 554 542 554 l 532 556 l 532 550 l 540 550 l 540 553 m 568 540 l 560 543 l 560 540 l 568 538 l 568 540 m 501 533 q 506 531 503 531 q 508 533 508 531 l 501 533 m 574 485 q 581 490 581 485 l 574 485 m 485 481 q 482 485 485 482 l 476 486 l 476 481 l 485 481 m 535 467 q 518 481 533 478 q 514 472 514 479 l 522 472 q 521 463 515 468 l 533 463 l 533 467 l 535 467 m 571 475 q 579 478 579 475 q 577 478 578 478 q 576 481 576 479 l 574 481 q 571 478 571 481 l 571 475 m 553 475 q 557 472 556 472 l 560 476 q 551 478 560 478 l 553 475 m 571 460 q 579 457 576 457 q 593 461 586 457 q 582 467 588 467 l 571 467 l 571 460 m 533 443 q 540 442 539 443 l 549 442 l 549 449 l 544 450 q 540 451 543 451 q 533 443 533 449 m 478 447 l 478 444 l 489 444 l 489 447 l 478 447 m 600 442 q 596 447 599 447 l 582 447 q 571 440 575 442 q 567 436 567 438 q 579 411 567 431 l 599 411 l 604 413 q 594 419 600 419 q 581 428 589 419 q 592 433 590 431 q 600 442 593 438 m 261 443 l 258 431 q 263 422 258 425 q 267 433 267 429 l 267 443 l 261 443 m 536 436 l 535 439 l 525 439 l 525 433 l 532 428 l 532 429 l 535 431 l 538 431 l 536 436 m 553 429 q 552 430 553 429 q 551 431 551 431 l 549 431 l 551 414 q 557 428 556 419 l 553 429 m 519 422 q 513 423 517 424 q 508 422 510 422 l 513 415 q 521 417 515 417 l 531 415 q 537 417 533 415 q 540 422 540 419 l 519 422 m 506 407 l 504 403 l 507 401 l 508 407 l 506 407 m 525 388 q 526 392 526 389 l 518 393 l 515 390 l 514 388 l 524 385 q 525 388 524 388 m 503 388 q 506 390 508 388 l 503 388 m 581 372 q 576 378 581 374 l 572 376 q 571 375 571 376 l 579 372 l 581 372 m 568 353 q 565 361 565 356 q 563 369 563 367 q 540 376 550 378 q 544 374 540 374 q 554 361 550 372 l 554 353 l 568 353 m 494 367 l 494 361 l 499 361 l 499 367 l 494 367 m 625 350 l 625 351 l 617 353 l 617 350 l 625 350 m 525 343 l 531 343 l 531 350 l 525 350 l 525 343 m 494 338 l 494 340 l 490 340 l 490 338 l 494 338 m 442 333 l 442 331 l 449 331 l 449 333 l 442 333 m 478 311 q 479 318 479 313 q 469 314 476 318 l 475 314 l 478 311 m 524 308 q 517 301 517 301 q 531 297 525 297 q 540 308 540 304 q 536 314 540 310 q 532 317 532 314 l 524 308 m 553 269 l 560 269 l 560 272 l 553 272 l 553 269 m 535 269 q 543 258 535 263 l 543 269 l 535 269 m 589 260 q 592 252 589 257 q 601 247 596 247 q 610 249 608 247 q 618 250 610 249 q 614 253 617 253 l 608 257 q 607 269 607 258 q 600 264 606 264 l 589 260 m 278 258 l 278 251 l 293 251 l 293 258 l 278 258 m 260 232 q 257 240 257 238 q 240 247 243 247 q 230 243 233 247 q 226 236 226 239 q 232 227 226 232 q 244 222 238 222 q 249 224 247 222 l 263 224 l 260 232 m 494 247 l 494 242 l 499 242 l 499 247 l 494 247 m 651 243 l 651 246 l 646 246 l 646 243 l 651 243 m 510 242 q 515 238 515 240 l 529 238 l 529 242 l 510 242 m 442 240 l 438 239 l 439 236 l 443 238 l 442 240 m 674 50 q 681 53 678 50 l 675 86 l 669 119 l 664 126 l 661 133 q 668 143 661 138 q 657 156 656 150 q 660 167 660 164 q 654 185 660 175 q 650 194 650 192 q 654 200 650 200 q 656 204 656 200 q 651 218 656 210 l 642 210 l 632 203 l 628 206 l 628 219 q 640 226 628 226 l 646 222 l 646 233 q 635 238 642 236 q 625 240 628 240 q 608 235 618 240 q 599 225 599 231 q 601 221 599 224 l 607 217 q 607 207 603 213 l 613 203 q 615 201 614 203 q 615 200 615 200 q 606 197 611 197 q 593 190 593 197 q 590 181 590 181 q 597 181 593 182 q 599 176 600 179 q 596 174 599 174 q 594 172 594 174 q 593 168 594 169 l 590 163 l 590 150 q 605 143 592 149 q 606 132 618 138 q 622 131 610 131 q 629 132 626 131 l 638 132 l 638 113 l 636 113 l 636 111 l 635 111 l 639 107 q 643 103 643 103 q 646 100 643 100 q 650 96 646 100 l 651 83 q 661 72 654 76 q 660 68 661 69 l 660 65 q 665 56 660 63 q 674 50 671 50 m 150 217 q 146 222 154 221 l 146 219 l 150 217 m 210 194 q 208 201 213 197 q 206 194 206 199 q 208 193 206 193 q 210 194 210 193 m 579 181 q 581 185 581 181 l 571 185 q 572 181 571 181 q 576 176 572 181 q 577 178 576 178 q 579 181 578 179 m 176 169 l 179 171 l 179 178 q 171 182 179 182 l 168 181 q 167 180 168 181 q 167 179 167 179 l 167 174 l 176 169 m 514 181 l 514 175 l 524 175 l 524 181 l 514 181 m 549 164 q 545 169 549 168 q 540 169 542 169 l 540 164 l 549 164 m 171 147 q 173 150 171 149 q 176 153 175 151 l 186 156 l 186 161 q 182 164 183 164 l 176 168 q 154 156 171 156 q 158 149 154 153 q 167 144 163 144 q 171 147 168 144 m 532 154 q 525 157 526 156 l 526 147 l 540 150 l 532 154 m 226 119 q 229 125 229 121 l 226 128 q 224 126 224 128 l 221 126 l 215 125 l 221 121 l 226 119 m 168 111 q 164 113 167 111 q 158 117 161 115 q 151 111 151 117 q 160 111 153 110 l 168 111 m 185 106 q 190 110 189 110 q 185 117 190 115 q 176 111 176 113 l 185 106 m 557 106 q 551 114 557 108 l 544 110 l 542 106 l 557 106 m 571 40 q 572 41 571 40 q 572 42 572 42 q 568 56 568 50 l 554 56 q 561 45 557 50 q 569 38 565 40 l 571 40 z "},"":{"ha":836,"x_min":-14,"x_max":768,"o":"m 446 1042 q 291 1085 361 1042 q 219 1242 221 1128 q 250 1278 219 1278 l 364 1279 q 378 1274 372 1279 q 383 1258 385 1268 q 403 1203 382 1225 q 454 1182 424 1182 q 506 1201 481 1182 q 536 1254 531 1221 q 545 1271 538 1264 q 560 1278 553 1278 l 675 1285 q 696 1274 689 1286 q 700 1242 703 1261 q 608 1085 685 1128 q 446 1042 532 1043 m 303 1235 q 295 1231 299 1235 q 292 1225 292 1228 q 313 1211 307 1224 q 318 1214 315 1214 q 322 1217 319 1214 l 324 1222 l 314 1226 q 310 1229 313 1228 q 308 1232 308 1231 q 304 1235 306 1235 l 303 1235 m 313 1210 l 301 1206 l 301 1200 q 302 1199 301 1200 q 303 1199 303 1199 l 306 1197 q 314 1201 314 1197 l 315 1208 l 313 1210 m 586 1199 q 597 1200 593 1199 q 596 1207 596 1207 l 589 1204 l 586 1199 m 613 1197 l 622 1201 l 621 1206 l 611 1201 l 613 1197 m 589 1188 l 588 1186 l 589 1181 l 596 1179 l 600 1176 l 596 1190 l 590 1189 l 589 1188 l 593 1193 l 589 1192 l 586 1188 l 589 1188 m 342 1183 q 339 1182 339 1183 q 342 1175 339 1178 q 343 1182 346 1179 q 342 1183 343 1183 m 276 1160 q 282 1161 281 1160 q 282 1165 283 1163 l 278 1163 l 276 1160 m 582 1146 q 586 1140 582 1144 q 592 1150 589 1149 l 596 1150 q 589 1160 590 1156 q 576 1165 588 1165 l 575 1163 l 582 1146 m 546 1154 q 546 1146 544 1150 l 546 1139 q 550 1138 547 1138 l 553 1138 q 553 1150 556 1144 q 546 1154 550 1156 m 375 1151 q 363 1147 368 1151 q 356 1139 357 1143 q 359 1132 356 1136 q 369 1126 363 1128 q 386 1132 375 1126 q 390 1140 386 1136 l 393 1149 l 379 1149 q 375 1151 378 1151 m 421 1111 l 421 1118 l 406 1119 l 406 1113 l 421 1111 m 508 1118 q 506 1114 508 1118 l 508 1107 q 515 1104 514 1103 q 519 1113 521 1107 q 514 1118 517 1113 q 508 1118 513 1119 m 768 28 q 760 8 768 17 q 740 0 753 0 l 531 0 q 503 25 506 0 l 489 194 l 279 153 l 249 25 q 221 4 243 4 l 15 8 q -6 19 1 8 q -11 44 -14 29 q 85 372 24 175 q 169 610 117 476 q 300 925 218 733 q 321 942 306 938 l 350 947 q 414 958 392 956 q 456 961 426 961 q 494 960 482 961 q 601 864 561 954 q 631 768 614 831 q 664 615 649 693 l 768 33 l 768 28 m 333 900 l 333 908 l 328 908 l 328 900 l 333 900 m 501 864 l 501 875 l 497 875 l 497 864 l 501 864 m 490 840 q 493 851 493 846 q 486 853 486 851 l 486 844 l 490 840 m 329 846 l 329 828 q 336 844 329 833 l 332 844 l 329 846 m 513 842 q 517 844 515 844 l 501 846 l 501 840 q 503 836 503 839 l 508 836 q 513 842 508 838 m 501 836 l 501 839 l 499 844 l 499 840 l 501 836 m 528 829 q 518 819 522 829 l 521 817 l 539 817 l 544 819 q 538 828 538 824 l 540 832 q 528 829 532 829 m 524 792 q 518 786 518 792 q 525 783 521 783 q 532 781 526 783 q 535 785 535 783 l 536 788 q 524 792 529 792 m 411 779 l 413 783 l 411 783 l 408 781 l 411 779 m 426 765 l 433 765 q 436 765 435 764 q 439 765 438 765 q 436 774 439 771 q 433 773 435 774 q 431 772 432 772 l 425 772 l 426 765 m 547 747 q 540 743 547 746 q 538 739 538 743 q 540 735 538 738 l 549 735 q 554 740 554 738 q 547 747 554 747 m 242 693 q 238 692 243 696 q 233 686 233 688 q 237 676 233 682 q 242 671 240 671 q 243 682 243 675 q 242 693 243 690 m 338 672 q 338 673 338 672 q 340 674 339 674 q 346 675 344 672 l 339 678 q 338 675 338 678 l 338 672 m 240 636 l 246 636 l 246 653 l 240 651 l 240 636 m 403 646 q 386 636 392 646 q 393 625 389 626 q 406 628 397 624 l 410 639 l 408 642 q 406 646 408 643 l 403 646 m 553 642 l 563 642 l 563 644 l 553 644 l 553 642 m 568 619 q 560 626 568 626 l 558 622 l 560 619 l 568 619 m 447 467 q 438 533 442 511 q 419 621 426 592 l 351 397 l 456 400 l 447 467 m 388 601 l 390 600 l 394 611 l 392 613 l 388 601 m 522 601 l 525 603 l 522 606 l 518 604 l 522 601 m 349 521 q 358 530 353 524 q 364 540 363 536 l 367 551 l 381 581 l 374 583 l 367 578 q 360 572 361 572 q 353 547 353 546 q 347 538 349 538 q 343 532 347 535 q 339 522 340 529 l 329 492 l 324 472 q 311 450 319 460 q 301 433 303 440 q 299 425 299 426 q 296 413 296 419 q 288 393 294 404 q 281 376 282 382 q 283 367 281 367 q 290 367 288 365 q 294 371 290 367 q 303 394 300 383 q 313 417 304 407 q 321 429 313 421 l 326 444 q 335 467 329 449 q 349 504 340 485 l 349 521 m 540 553 q 541 553 540 553 q 542 554 542 554 l 532 556 l 532 550 l 540 550 l 540 553 m 568 540 l 560 543 l 560 540 l 568 538 l 568 540 m 501 533 q 506 531 503 531 q 508 533 508 531 l 501 533 m 574 485 q 581 490 581 485 l 574 485 m 485 481 q 482 485 485 482 l 476 486 l 476 481 l 485 481 m 535 467 q 518 481 533 478 q 514 472 514 479 l 522 472 q 521 463 515 468 l 533 463 l 533 467 l 535 467 m 571 475 q 579 478 579 475 q 577 478 578 478 q 576 481 576 479 l 574 481 q 571 478 571 481 l 571 475 m 553 475 q 557 472 556 472 l 560 476 q 551 478 560 478 l 553 475 m 571 460 q 579 457 576 457 q 593 461 586 457 q 582 467 588 467 l 571 467 l 571 460 m 533 443 q 540 442 539 443 l 549 442 l 549 449 l 544 450 q 540 451 543 451 q 533 443 533 449 m 478 447 l 478 444 l 489 444 l 489 447 l 478 447 m 600 442 q 596 447 599 447 l 582 447 q 571 440 575 442 q 567 436 567 438 q 579 411 567 431 l 599 411 l 604 413 q 594 419 600 419 q 581 428 589 419 q 592 433 590 431 q 600 442 593 438 m 261 443 l 258 431 q 263 422 258 425 q 267 433 267 429 l 267 443 l 261 443 m 536 436 l 535 439 l 525 439 l 525 433 l 532 428 l 532 429 l 535 431 l 538 431 l 536 436 m 553 429 q 552 430 553 429 q 551 431 551 431 l 549 431 l 551 414 q 557 428 556 419 l 553 429 m 519 422 q 513 423 517 424 q 508 422 510 422 l 513 415 q 521 417 515 417 l 531 415 q 537 417 533 415 q 540 422 540 419 l 519 422 m 506 407 l 504 403 l 507 401 l 508 407 l 506 407 m 525 388 q 526 392 526 389 l 518 393 l 515 390 l 514 388 l 524 385 q 525 388 524 388 m 503 388 q 506 390 508 388 l 503 388 m 581 372 q 576 378 581 374 l 572 376 q 571 375 571 376 l 579 372 l 581 372 m 568 353 q 565 361 565 356 q 563 369 563 367 q 540 376 550 378 q 544 374 540 374 q 554 361 550 372 l 554 353 l 568 353 m 494 367 l 494 361 l 499 361 l 499 367 l 494 367 m 625 350 l 625 351 l 617 353 l 617 350 l 625 350 m 525 343 l 531 343 l 531 350 l 525 350 l 525 343 m 494 338 l 494 340 l 490 340 l 490 338 l 494 338 m 442 333 l 442 331 l 449 331 l 449 333 l 442 333 m 478 311 q 479 318 479 313 q 469 314 476 318 l 475 314 l 478 311 m 524 308 q 517 301 517 301 q 531 297 525 297 q 540 308 540 304 q 536 314 540 310 q 532 317 532 314 l 524 308 m 553 269 l 560 269 l 560 272 l 553 272 l 553 269 m 535 269 q 543 258 535 263 l 543 269 l 535 269 m 589 260 q 592 252 589 257 q 601 247 596 247 q 610 249 608 247 q 618 250 610 249 q 614 253 617 253 l 608 257 q 607 269 607 258 q 600 264 606 264 l 589 260 m 278 258 l 278 251 l 293 251 l 293 258 l 278 258 m 260 232 q 257 240 257 238 q 240 247 243 247 q 230 243 233 247 q 226 236 226 239 q 232 227 226 232 q 244 222 238 222 q 249 224 247 222 l 263 224 l 260 232 m 494 247 l 494 242 l 499 242 l 499 247 l 494 247 m 651 243 l 651 246 l 646 246 l 646 243 l 651 243 m 510 242 q 515 238 515 240 l 529 238 l 529 242 l 510 242 m 442 240 l 438 239 l 439 236 l 443 238 l 442 240 m 674 50 q 681 53 678 50 l 675 86 l 669 119 l 664 126 l 661 133 q 668 143 661 138 q 657 156 656 150 q 660 167 660 164 q 654 185 660 175 q 650 194 650 192 q 654 200 650 200 q 656 204 656 200 q 651 218 656 210 l 642 210 l 632 203 l 628 206 l 628 219 q 640 226 628 226 l 646 222 l 646 233 q 635 238 642 236 q 625 240 628 240 q 608 235 618 240 q 599 225 599 231 q 601 221 599 224 l 607 217 q 607 207 603 213 l 613 203 q 615 201 614 203 q 615 200 615 200 q 606 197 611 197 q 593 190 593 197 q 590 181 590 181 q 597 181 593 182 q 599 176 600 179 q 596 174 599 174 q 594 172 594 174 q 593 168 594 169 l 590 163 l 590 150 q 605 143 592 149 q 606 132 618 138 q 622 131 610 131 q 629 132 626 131 l 638 132 l 638 113 l 636 113 l 636 111 l 635 111 l 639 107 q 643 103 643 103 q 646 100 643 100 q 650 96 646 100 l 651 83 q 661 72 654 76 q 660 68 661 69 l 660 65 q 665 56 660 63 q 674 50 671 50 m 150 217 q 146 222 154 221 l 146 219 l 150 217 m 210 194 q 208 201 213 197 q 206 194 206 199 q 208 193 206 193 q 210 194 210 193 m 579 181 q 581 185 581 181 l 571 185 q 572 181 571 181 q 576 176 572 181 q 577 178 576 178 q 579 181 578 179 m 176 169 l 179 171 l 179 178 q 171 182 179 182 l 168 181 q 167 180 168 181 q 167 179 167 179 l 167 174 l 176 169 m 514 181 l 514 175 l 524 175 l 524 181 l 514 181 m 549 164 q 545 169 549 168 q 540 169 542 169 l 540 164 l 549 164 m 171 147 q 173 150 171 149 q 176 153 175 151 l 186 156 l 186 161 q 182 164 183 164 l 176 168 q 154 156 171 156 q 158 149 154 153 q 167 144 163 144 q 171 147 168 144 m 532 154 q 525 157 526 156 l 526 147 l 540 150 l 532 154 m 226 119 q 229 125 229 121 l 226 128 q 224 126 224 128 l 221 126 l 215 125 l 221 121 l 226 119 m 168 111 q 164 113 167 111 q 158 117 161 115 q 151 111 151 117 q 160 111 153 110 l 168 111 m 185 106 q 190 110 189 110 q 185 117 190 115 q 176 111 176 113 l 185 106 m 557 106 q 551 114 557 108 l 544 110 l 542 106 l 557 106 m 571 40 q 572 41 571 40 q 572 42 572 42 q 568 56 568 50 l 554 56 q 561 45 557 50 q 569 38 565 40 l 571 40 z "},"":{"ha":836,"x_min":-14,"x_max":768,"o":"m 210 1038 q 192 1044 200 1036 q 183 1063 183 1053 q 192 1081 183 1072 l 358 1258 q 379 1276 371 1271 q 399 1281 388 1281 l 539 1285 q 579 1264 565 1285 l 703 1083 q 708 1065 708 1076 q 701 1049 708 1056 q 683 1042 693 1042 l 513 1040 q 486 1063 496 1040 l 454 1133 l 407 1065 q 379 1044 392 1044 l 210 1038 m 549 1232 q 558 1229 557 1229 q 560 1233 561 1231 q 557 1238 560 1236 l 549 1232 m 413 1224 q 422 1229 422 1224 l 411 1232 l 408 1224 l 413 1224 m 390 1224 l 374 1221 l 378 1219 l 382 1217 q 394 1224 393 1217 l 390 1224 m 379 1207 l 382 1211 l 372 1217 l 369 1211 l 379 1207 m 415 1204 l 418 1207 l 404 1215 l 400 1211 l 415 1204 m 418 1211 l 421 1201 l 429 1203 l 426 1210 l 418 1211 m 443 1197 q 442 1198 443 1197 q 442 1199 442 1199 l 438 1197 l 443 1197 m 558 1194 l 567 1175 l 572 1176 l 564 1196 l 558 1194 m 540 1188 l 540 1194 l 531 1194 l 531 1188 l 540 1188 m 351 1161 l 353 1169 l 350 1171 l 344 1163 l 351 1161 m 556 1164 q 547 1171 556 1167 l 553 1158 l 556 1164 m 415 1164 q 415 1168 418 1167 q 406 1163 410 1169 q 409 1163 407 1163 q 413 1163 411 1164 l 415 1164 m 514 1160 q 519 1157 514 1157 q 522 1156 519 1156 l 526 1154 q 528 1164 524 1157 l 514 1160 m 397 1158 q 401 1154 401 1154 l 403 1154 l 406 1153 l 407 1160 q 401 1160 404 1161 q 396 1160 399 1160 l 396 1158 l 397 1158 m 603 1142 l 611 1140 q 617 1131 614 1135 q 622 1128 619 1128 l 633 1131 q 615 1144 617 1139 l 615 1151 q 616 1152 615 1151 q 617 1153 617 1153 l 615 1154 l 607 1151 q 600 1149 606 1151 l 597 1146 l 593 1143 l 603 1142 m 321 1143 l 324 1146 l 319 1151 l 314 1149 l 321 1143 m 390 1140 l 388 1144 l 381 1144 l 382 1139 l 390 1140 m 569 1139 q 572 1131 569 1136 q 573 1130 572 1131 q 574 1129 574 1129 l 574 1126 q 574 1122 576 1125 q 570 1119 574 1121 q 564 1115 567 1118 q 576 1119 574 1117 l 581 1122 l 583 1125 l 586 1126 l 582 1136 l 576 1136 l 569 1139 m 519 1125 q 504 1119 508 1122 l 507 1118 l 508 1118 l 508 1117 l 514 1114 l 544 1131 q 529 1128 538 1128 q 519 1125 526 1125 m 328 1126 q 321 1129 325 1126 q 325 1123 322 1125 q 329 1118 328 1121 l 336 1111 q 343 1117 342 1114 q 351 1125 351 1125 l 349 1126 q 344 1128 346 1126 l 343 1128 q 339 1125 342 1128 q 336 1121 339 1124 l 333 1124 l 331 1125 l 329 1125 l 328 1126 m 406 1122 q 408 1125 408 1122 q 404 1128 407 1128 l 397 1125 l 406 1122 m 311 1111 l 324 1108 q 326 1104 324 1107 l 329 1106 q 336 1110 335 1106 l 321 1115 l 318 1114 l 304 1119 l 301 1117 l 311 1111 m 390 1115 l 381 1119 l 378 1115 l 386 1111 l 390 1115 m 290 1107 l 297 1114 l 292 1118 l 286 1111 l 290 1107 m 660 1097 q 668 1094 667 1096 q 668 1082 669 1092 l 674 1085 l 663 1104 l 660 1097 m 314 1100 q 306 1096 306 1100 l 304 1094 l 304 1092 q 324 1090 314 1088 l 325 1096 l 314 1100 m 396 1094 q 382 1092 388 1097 q 394 1089 388 1089 l 396 1094 m 578 1083 q 579 1089 582 1088 l 581 1089 q 576 1094 581 1090 l 576 1093 l 574 1093 l 569 1086 q 575 1083 572 1083 l 578 1083 m 632 1090 l 631 1083 l 638 1082 l 639 1090 l 632 1090 m 343 1088 q 336 1087 339 1088 q 331 1085 333 1086 l 342 1079 l 349 1088 l 343 1088 m 365 1079 l 367 1086 l 361 1088 l 360 1081 l 365 1079 m 604 1085 l 596 1076 l 599 1075 q 601 1074 600 1075 q 601 1072 601 1074 l 614 1075 l 604 1085 m 550 1075 q 556 1081 553 1076 l 542 1078 l 539 1078 l 533 1076 q 533 1067 539 1072 q 544 1071 543 1067 q 550 1075 549 1074 q 550 1075 551 1076 m 661 1075 q 663 1079 663 1076 l 661 1081 l 660 1076 l 657 1072 l 661 1075 m 622 1071 q 628 1072 626 1071 l 626 1074 q 621 1076 624 1074 q 622 1071 617 1071 m 768 28 q 760 8 768 17 q 740 0 753 0 l 531 0 q 503 25 506 0 l 489 194 l 279 153 l 249 25 q 221 4 243 4 l 15 8 q -6 19 1 8 q -11 44 -14 29 q 85 372 24 175 q 169 610 117 476 q 300 925 218 733 q 321 942 306 938 l 350 947 q 414 958 392 956 q 456 961 426 961 q 494 960 482 961 q 601 864 561 954 q 631 768 614 831 q 664 615 649 693 l 768 33 l 768 28 m 333 900 l 333 908 l 328 908 l 328 900 l 333 900 m 501 864 l 501 875 l 497 875 l 497 864 l 501 864 m 490 840 q 493 851 493 846 q 486 853 486 851 l 486 844 l 490 840 m 329 846 l 329 828 q 336 844 329 833 l 332 844 l 329 846 m 513 842 q 517 844 515 844 l 501 846 l 501 840 q 503 836 503 839 l 508 836 q 513 842 508 838 m 501 836 l 501 839 l 499 844 l 499 840 l 501 836 m 528 829 q 518 819 522 829 l 521 817 l 539 817 l 544 819 q 538 828 538 824 l 540 832 q 528 829 532 829 m 524 792 q 518 786 518 792 q 525 783 521 783 q 532 781 526 783 q 535 785 535 783 l 536 788 q 524 792 529 792 m 411 779 l 413 783 l 411 783 l 408 781 l 411 779 m 426 765 l 433 765 q 436 765 435 764 q 439 765 438 765 q 436 774 439 771 q 433 773 435 774 q 431 772 432 772 l 425 772 l 426 765 m 547 747 q 540 743 547 746 q 538 739 538 743 q 540 735 538 738 l 549 735 q 554 740 554 738 q 547 747 554 747 m 242 693 q 238 692 243 696 q 233 686 233 688 q 237 676 233 682 q 242 671 240 671 q 243 682 243 675 q 242 693 243 690 m 338 672 q 338 673 338 672 q 340 674 339 674 q 346 675 344 672 l 339 678 q 338 675 338 678 l 338 672 m 240 636 l 246 636 l 246 653 l 240 651 l 240 636 m 403 646 q 386 636 392 646 q 393 625 389 626 q 406 628 397 624 l 410 639 l 408 642 q 406 646 408 643 l 403 646 m 553 642 l 563 642 l 563 644 l 553 644 l 553 642 m 568 619 q 560 626 568 626 l 558 622 l 560 619 l 568 619 m 447 467 q 438 533 442 511 q 419 621 426 592 l 351 397 l 456 400 l 447 467 m 388 601 l 390 600 l 394 611 l 392 613 l 388 601 m 522 601 l 525 603 l 522 606 l 518 604 l 522 601 m 349 521 q 358 530 353 524 q 364 540 363 536 l 367 551 l 381 581 l 374 583 l 367 578 q 360 572 361 572 q 353 547 353 546 q 347 538 349 538 q 343 532 347 535 q 339 522 340 529 l 329 492 l 324 472 q 311 450 319 460 q 301 433 303 440 q 299 425 299 426 q 296 413 296 419 q 288 393 294 404 q 281 376 282 382 q 283 367 281 367 q 290 367 288 365 q 294 371 290 367 q 303 394 300 383 q 313 417 304 407 q 321 429 313 421 l 326 444 q 335 467 329 449 q 349 504 340 485 l 349 521 m 540 553 q 541 553 540 553 q 542 554 542 554 l 532 556 l 532 550 l 540 550 l 540 553 m 568 540 l 560 543 l 560 540 l 568 538 l 568 540 m 501 533 q 506 531 503 531 q 508 533 508 531 l 501 533 m 574 485 q 581 490 581 485 l 574 485 m 485 481 q 482 485 485 482 l 476 486 l 476 481 l 485 481 m 535 467 q 518 481 533 478 q 514 472 514 479 l 522 472 q 521 463 515 468 l 533 463 l 533 467 l 535 467 m 571 475 q 579 478 579 475 q 577 478 578 478 q 576 481 576 479 l 574 481 q 571 478 571 481 l 571 475 m 553 475 q 557 472 556 472 l 560 476 q 551 478 560 478 l 553 475 m 571 460 q 579 457 576 457 q 593 461 586 457 q 582 467 588 467 l 571 467 l 571 460 m 533 443 q 540 442 539 443 l 549 442 l 549 449 l 544 450 q 540 451 543 451 q 533 443 533 449 m 478 447 l 478 444 l 489 444 l 489 447 l 478 447 m 600 442 q 596 447 599 447 l 582 447 q 571 440 575 442 q 567 436 567 438 q 579 411 567 431 l 599 411 l 604 413 q 594 419 600 419 q 581 428 589 419 q 592 433 590 431 q 600 442 593 438 m 261 443 l 258 431 q 263 422 258 425 q 267 433 267 429 l 267 443 l 261 443 m 536 436 l 535 439 l 525 439 l 525 433 l 532 428 l 532 429 l 535 431 l 538 431 l 536 436 m 553 429 q 552 430 553 429 q 551 431 551 431 l 549 431 l 551 414 q 557 428 556 419 l 553 429 m 519 422 q 513 423 517 424 q 508 422 510 422 l 513 415 q 521 417 515 417 l 531 415 q 537 417 533 415 q 540 422 540 419 l 519 422 m 506 407 l 504 403 l 507 401 l 508 407 l 506 407 m 525 388 q 526 392 526 389 l 518 393 l 515 390 l 514 388 l 524 385 q 525 388 524 388 m 503 388 q 506 390 508 388 l 503 388 m 581 372 q 576 378 581 374 l 572 376 q 571 375 571 376 l 579 372 l 581 372 m 568 353 q 565 361 565 356 q 563 369 563 367 q 540 376 550 378 q 544 374 540 374 q 554 361 550 372 l 554 353 l 568 353 m 494 367 l 494 361 l 499 361 l 499 367 l 494 367 m 625 350 l 625 351 l 617 353 l 617 350 l 625 350 m 525 343 l 531 343 l 531 350 l 525 350 l 525 343 m 494 338 l 494 340 l 490 340 l 490 338 l 494 338 m 442 333 l 442 331 l 449 331 l 449 333 l 442 333 m 478 311 q 479 318 479 313 q 469 314 476 318 l 475 314 l 478 311 m 524 308 q 517 301 517 301 q 531 297 525 297 q 540 308 540 304 q 536 314 540 310 q 532 317 532 314 l 524 308 m 553 269 l 560 269 l 560 272 l 553 272 l 553 269 m 535 269 q 543 258 535 263 l 543 269 l 535 269 m 589 260 q 592 252 589 257 q 601 247 596 247 q 610 249 608 247 q 618 250 610 249 q 614 253 617 253 l 608 257 q 607 269 607 258 q 600 264 606 264 l 589 260 m 278 258 l 278 251 l 293 251 l 293 258 l 278 258 m 260 232 q 257 240 257 238 q 240 247 243 247 q 230 243 233 247 q 226 236 226 239 q 232 227 226 232 q 244 222 238 222 q 249 224 247 222 l 263 224 l 260 232 m 494 247 l 494 242 l 499 242 l 499 247 l 494 247 m 651 243 l 651 246 l 646 246 l 646 243 l 651 243 m 510 242 q 515 238 515 240 l 529 238 l 529 242 l 510 242 m 442 240 l 438 239 l 439 236 l 443 238 l 442 240 m 674 50 q 681 53 678 50 l 675 86 l 669 119 l 664 126 l 661 133 q 668 143 661 138 q 657 156 656 150 q 660 167 660 164 q 654 185 660 175 q 650 194 650 192 q 654 200 650 200 q 656 204 656 200 q 651 218 656 210 l 642 210 l 632 203 l 628 206 l 628 219 q 640 226 628 226 l 646 222 l 646 233 q 635 238 642 236 q 625 240 628 240 q 608 235 618 240 q 599 225 599 231 q 601 221 599 224 l 607 217 q 607 207 603 213 l 613 203 q 615 201 614 203 q 615 200 615 200 q 606 197 611 197 q 593 190 593 197 q 590 181 590 181 q 597 181 593 182 q 599 176 600 179 q 596 174 599 174 q 594 172 594 174 q 593 168 594 169 l 590 163 l 590 150 q 605 143 592 149 q 606 132 618 138 q 622 131 610 131 q 629 132 626 131 l 638 132 l 638 113 l 636 113 l 636 111 l 635 111 l 639 107 q 643 103 643 103 q 646 100 643 100 q 650 96 646 100 l 651 83 q 661 72 654 76 q 660 68 661 69 l 660 65 q 665 56 660 63 q 674 50 671 50 m 150 217 q 146 222 154 221 l 146 219 l 150 217 m 210 194 q 208 201 213 197 q 206 194 206 199 q 208 193 206 193 q 210 194 210 193 m 579 181 q 581 185 581 181 l 571 185 q 572 181 571 181 q 576 176 572 181 q 577 178 576 178 q 579 181 578 179 m 176 169 l 179 171 l 179 178 q 171 182 179 182 l 168 181 q 167 180 168 181 q 167 179 167 179 l 167 174 l 176 169 m 514 181 l 514 175 l 524 175 l 524 181 l 514 181 m 549 164 q 545 169 549 168 q 540 169 542 169 l 540 164 l 549 164 m 171 147 q 173 150 171 149 q 176 153 175 151 l 186 156 l 186 161 q 182 164 183 164 l 176 168 q 154 156 171 156 q 158 149 154 153 q 167 144 163 144 q 171 147 168 144 m 532 154 q 525 157 526 156 l 526 147 l 540 150 l 532 154 m 226 119 q 229 125 229 121 l 226 128 q 224 126 224 128 l 221 126 l 215 125 l 221 121 l 226 119 m 168 111 q 164 113 167 111 q 158 117 161 115 q 151 111 151 117 q 160 111 153 110 l 168 111 m 185 106 q 190 110 189 110 q 185 117 190 115 q 176 111 176 113 l 185 106 m 557 106 q 551 114 557 108 l 544 110 l 542 106 l 557 106 m 571 40 q 572 41 571 40 q 572 42 572 42 q 568 56 568 50 l 554 56 q 561 45 557 50 q 569 38 565 40 l 571 40 z "},"":{"ha":836,"x_min":-14,"x_max":768,"o":"m 319 1035 q 263 1065 289 1035 q 236 1144 236 1094 q 270 1234 236 1199 q 346 1269 304 1269 q 413 1239 383 1269 q 442 1164 442 1208 q 406 1071 442 1107 q 319 1035 369 1035 m 569 1035 q 513 1065 539 1035 q 486 1144 486 1094 q 520 1234 486 1199 q 596 1269 554 1269 q 663 1239 633 1269 q 692 1164 692 1208 q 656 1071 692 1107 q 569 1035 619 1035 m 308 1236 q 301 1226 301 1229 q 307 1215 301 1221 l 313 1218 q 310 1229 311 1225 q 308 1236 310 1233 m 590 1226 l 601 1226 l 603 1236 l 588 1233 l 590 1226 m 422 1185 l 424 1185 l 421 1188 l 419 1186 l 422 1185 m 533 1181 q 536 1171 531 1176 l 543 1171 l 543 1178 q 543 1179 543 1178 q 543 1181 543 1181 l 543 1185 q 533 1181 533 1185 m 640 1175 q 635 1164 635 1169 l 640 1154 q 643 1162 642 1156 q 646 1172 644 1168 l 640 1175 m 415 1128 q 422 1129 417 1129 l 422 1135 l 421 1138 l 417 1138 q 414 1139 417 1139 l 406 1129 l 415 1128 m 553 1133 q 542 1138 551 1135 q 538 1129 538 1136 q 540 1122 535 1122 l 549 1122 l 551 1128 l 553 1133 m 351 1117 l 351 1119 l 340 1119 l 340 1117 l 351 1117 m 269 1111 l 269 1118 l 263 1118 q 258 1108 258 1114 q 268 1104 258 1104 l 268 1108 l 269 1111 m 404 1118 q 400 1111 400 1118 q 404 1103 400 1106 q 415 1107 414 1106 l 414 1113 l 413 1118 l 404 1118 m 667 1111 l 669 1114 l 668 1114 l 665 1113 l 667 1111 m 557 1111 q 550 1113 551 1111 l 540 1111 l 549 1101 q 551 1103 551 1101 l 556 1103 l 557 1106 l 557 1111 m 589 1086 l 589 1083 l 600 1083 l 600 1086 l 589 1086 m 343 1063 l 343 1072 l 332 1072 l 329 1065 l 343 1063 m 768 28 q 760 8 768 17 q 740 0 753 0 l 531 0 q 503 25 506 0 l 489 194 l 279 153 l 249 25 q 221 4 243 4 l 15 8 q -6 19 1 8 q -11 44 -14 29 q 85 372 24 175 q 169 610 117 476 q 300 925 218 733 q 321 942 306 938 l 350 947 q 414 958 392 956 q 456 961 426 961 q 494 960 482 961 q 601 864 561 954 q 631 768 614 831 q 664 615 649 693 l 768 33 l 768 28 m 333 900 l 333 908 l 328 908 l 328 900 l 333 900 m 501 864 l 501 875 l 497 875 l 497 864 l 501 864 m 490 840 q 493 851 493 846 q 486 853 486 851 l 486 844 l 490 840 m 329 846 l 329 828 q 336 844 329 833 l 332 844 l 329 846 m 513 842 q 517 844 515 844 l 501 846 l 501 840 q 503 836 503 839 l 508 836 q 513 842 508 838 m 501 836 l 501 839 l 499 844 l 499 840 l 501 836 m 528 829 q 518 819 522 829 l 521 817 l 539 817 l 544 819 q 538 828 538 824 l 540 832 q 528 829 532 829 m 524 792 q 518 786 518 792 q 525 783 521 783 q 532 781 526 783 q 535 785 535 783 l 536 788 q 524 792 529 792 m 411 779 l 413 783 l 411 783 l 408 781 l 411 779 m 426 765 l 433 765 q 436 765 435 764 q 439 765 438 765 q 436 774 439 771 q 433 773 435 774 q 431 772 432 772 l 425 772 l 426 765 m 547 747 q 540 743 547 746 q 538 739 538 743 q 540 735 538 738 l 549 735 q 554 740 554 738 q 547 747 554 747 m 242 693 q 238 692 243 696 q 233 686 233 688 q 237 676 233 682 q 242 671 240 671 q 243 682 243 675 q 242 693 243 690 m 338 672 q 338 673 338 672 q 340 674 339 674 q 346 675 344 672 l 339 678 q 338 675 338 678 l 338 672 m 240 636 l 246 636 l 246 653 l 240 651 l 240 636 m 403 646 q 386 636 392 646 q 393 625 389 626 q 406 628 397 624 l 410 639 l 408 642 q 406 646 408 643 l 403 646 m 553 642 l 563 642 l 563 644 l 553 644 l 553 642 m 568 619 q 560 626 568 626 l 558 622 l 560 619 l 568 619 m 447 467 q 438 533 442 511 q 419 621 426 592 l 351 397 l 456 400 l 447 467 m 388 601 l 390 600 l 394 611 l 392 613 l 388 601 m 522 601 l 525 603 l 522 606 l 518 604 l 522 601 m 349 521 q 358 530 353 524 q 364 540 363 536 l 367 551 l 381 581 l 374 583 l 367 578 q 360 572 361 572 q 353 547 353 546 q 347 538 349 538 q 343 532 347 535 q 339 522 340 529 l 329 492 l 324 472 q 311 450 319 460 q 301 433 303 440 q 299 425 299 426 q 296 413 296 419 q 288 393 294 404 q 281 376 282 382 q 283 367 281 367 q 290 367 288 365 q 294 371 290 367 q 303 394 300 383 q 313 417 304 407 q 321 429 313 421 l 326 444 q 335 467 329 449 q 349 504 340 485 l 349 521 m 540 553 q 541 553 540 553 q 542 554 542 554 l 532 556 l 532 550 l 540 550 l 540 553 m 568 540 l 560 543 l 560 540 l 568 538 l 568 540 m 501 533 q 506 531 503 531 q 508 533 508 531 l 501 533 m 574 485 q 581 490 581 485 l 574 485 m 485 481 q 482 485 485 482 l 476 486 l 476 481 l 485 481 m 535 467 q 518 481 533 478 q 514 472 514 479 l 522 472 q 521 463 515 468 l 533 463 l 533 467 l 535 467 m 571 475 q 579 478 579 475 q 577 478 578 478 q 576 481 576 479 l 574 481 q 571 478 571 481 l 571 475 m 553 475 q 557 472 556 472 l 560 476 q 551 478 560 478 l 553 475 m 571 460 q 579 457 576 457 q 593 461 586 457 q 582 467 588 467 l 571 467 l 571 460 m 533 443 q 540 442 539 443 l 549 442 l 549 449 l 544 450 q 540 451 543 451 q 533 443 533 449 m 478 447 l 478 444 l 489 444 l 489 447 l 478 447 m 600 442 q 596 447 599 447 l 582 447 q 571 440 575 442 q 567 436 567 438 q 579 411 567 431 l 599 411 l 604 413 q 594 419 600 419 q 581 428 589 419 q 592 433 590 431 q 600 442 593 438 m 261 443 l 258 431 q 263 422 258 425 q 267 433 267 429 l 267 443 l 261 443 m 536 436 l 535 439 l 525 439 l 525 433 l 532 428 l 532 429 l 535 431 l 538 431 l 536 436 m 553 429 q 552 430 553 429 q 551 431 551 431 l 549 431 l 551 414 q 557 428 556 419 l 553 429 m 519 422 q 513 423 517 424 q 508 422 510 422 l 513 415 q 521 417 515 417 l 531 415 q 537 417 533 415 q 540 422 540 419 l 519 422 m 506 407 l 504 403 l 507 401 l 508 407 l 506 407 m 525 388 q 526 392 526 389 l 518 393 l 515 390 l 514 388 l 524 385 q 525 388 524 388 m 503 388 q 506 390 508 388 l 503 388 m 581 372 q 576 378 581 374 l 572 376 q 571 375 571 376 l 579 372 l 581 372 m 568 353 q 565 361 565 356 q 563 369 563 367 q 540 376 550 378 q 544 374 540 374 q 554 361 550 372 l 554 353 l 568 353 m 494 367 l 494 361 l 499 361 l 499 367 l 494 367 m 625 350 l 625 351 l 617 353 l 617 350 l 625 350 m 525 343 l 531 343 l 531 350 l 525 350 l 525 343 m 494 338 l 494 340 l 490 340 l 490 338 l 494 338 m 442 333 l 442 331 l 449 331 l 449 333 l 442 333 m 478 311 q 479 318 479 313 q 469 314 476 318 l 475 314 l 478 311 m 524 308 q 517 301 517 301 q 531 297 525 297 q 540 308 540 304 q 536 314 540 310 q 532 317 532 314 l 524 308 m 553 269 l 560 269 l 560 272 l 553 272 l 553 269 m 535 269 q 543 258 535 263 l 543 269 l 535 269 m 589 260 q 592 252 589 257 q 601 247 596 247 q 610 249 608 247 q 618 250 610 249 q 614 253 617 253 l 608 257 q 607 269 607 258 q 600 264 606 264 l 589 260 m 278 258 l 278 251 l 293 251 l 293 258 l 278 258 m 260 232 q 257 240 257 238 q 240 247 243 247 q 230 243 233 247 q 226 236 226 239 q 232 227 226 232 q 244 222 238 222 q 249 224 247 222 l 263 224 l 260 232 m 494 247 l 494 242 l 499 242 l 499 247 l 494 247 m 651 243 l 651 246 l 646 246 l 646 243 l 651 243 m 510 242 q 515 238 515 240 l 529 238 l 529 242 l 510 242 m 442 240 l 438 239 l 439 236 l 443 238 l 442 240 m 674 50 q 681 53 678 50 l 675 86 l 669 119 l 664 126 l 661 133 q 668 143 661 138 q 657 156 656 150 q 660 167 660 164 q 654 185 660 175 q 650 194 650 192 q 654 200 650 200 q 656 204 656 200 q 651 218 656 210 l 642 210 l 632 203 l 628 206 l 628 219 q 640 226 628 226 l 646 222 l 646 233 q 635 238 642 236 q 625 240 628 240 q 608 235 618 240 q 599 225 599 231 q 601 221 599 224 l 607 217 q 607 207 603 213 l 613 203 q 615 201 614 203 q 615 200 615 200 q 606 197 611 197 q 593 190 593 197 q 590 181 590 181 q 597 181 593 182 q 599 176 600 179 q 596 174 599 174 q 594 172 594 174 q 593 168 594 169 l 590 163 l 590 150 q 605 143 592 149 q 606 132 618 138 q 622 131 610 131 q 629 132 626 131 l 638 132 l 638 113 l 636 113 l 636 111 l 635 111 l 639 107 q 643 103 643 103 q 646 100 643 100 q 650 96 646 100 l 651 83 q 661 72 654 76 q 660 68 661 69 l 660 65 q 665 56 660 63 q 674 50 671 50 m 150 217 q 146 222 154 221 l 146 219 l 150 217 m 210 194 q 208 201 213 197 q 206 194 206 199 q 208 193 206 193 q 210 194 210 193 m 579 181 q 581 185 581 181 l 571 185 q 572 181 571 181 q 576 176 572 181 q 577 178 576 178 q 579 181 578 179 m 176 169 l 179 171 l 179 178 q 171 182 179 182 l 168 181 q 167 180 168 181 q 167 179 167 179 l 167 174 l 176 169 m 514 181 l 514 175 l 524 175 l 524 181 l 514 181 m 549 164 q 545 169 549 168 q 540 169 542 169 l 540 164 l 549 164 m 171 147 q 173 150 171 149 q 176 153 175 151 l 186 156 l 186 161 q 182 164 183 164 l 176 168 q 154 156 171 156 q 158 149 154 153 q 167 144 163 144 q 171 147 168 144 m 532 154 q 525 157 526 156 l 526 147 l 540 150 l 532 154 m 226 119 q 229 125 229 121 l 226 128 q 224 126 224 128 l 221 126 l 215 125 l 221 121 l 226 119 m 168 111 q 164 113 167 111 q 158 117 161 115 q 151 111 151 117 q 160 111 153 110 l 168 111 m 185 106 q 190 110 189 110 q 185 117 190 115 q 176 111 176 113 l 185 106 m 557 106 q 551 114 557 108 l 544 110 l 542 106 l 557 106 m 571 40 q 572 41 571 40 q 572 42 572 42 q 568 56 568 50 l 554 56 q 561 45 557 50 q 569 38 565 40 l 571 40 z "},"":{"ha":836,"x_min":-14,"x_max":768,"o":"m 228 1222 q 221 1240 221 1231 q 228 1258 221 1251 q 246 1265 236 1265 l 446 1272 q 474 1251 463 1272 l 568 1078 q 571 1068 571 1069 q 562 1049 571 1057 q 542 1042 553 1042 l 401 1038 q 361 1058 378 1038 l 228 1222 m 360 1232 l 367 1233 q 371 1238 369 1235 q 369 1242 372 1242 l 361 1240 l 360 1238 l 360 1232 m 342 1225 q 349 1223 344 1224 q 351 1219 353 1222 q 354 1213 351 1214 l 360 1213 q 361 1217 363 1215 q 355 1223 360 1219 q 344 1226 350 1226 q 344 1226 344 1226 q 344 1225 344 1225 l 342 1225 m 403 1210 q 405 1207 403 1208 q 410 1206 407 1206 l 408 1214 l 403 1210 m 340 1200 l 344 1199 q 350 1203 343 1200 l 349 1208 q 340 1201 344 1207 l 340 1200 m 357 1189 q 361 1185 361 1188 l 364 1183 q 368 1189 369 1188 q 367 1192 368 1192 l 365 1194 q 357 1189 364 1196 m 375 1178 q 367 1172 369 1178 q 375 1168 367 1168 l 375 1178 m 482 1157 q 479 1150 479 1153 q 484 1149 481 1147 q 489 1150 488 1150 l 489 1157 q 490 1159 492 1157 q 489 1164 489 1161 q 482 1157 489 1157 m 385 1158 q 374 1163 383 1165 l 360 1157 q 365 1149 363 1150 l 375 1151 l 379 1151 l 383 1153 l 385 1156 q 385 1158 386 1156 m 433 1151 q 451 1156 443 1151 l 444 1160 q 440 1159 442 1158 q 436 1163 438 1160 l 433 1151 m 435 1104 q 426 1097 432 1101 q 418 1089 419 1092 l 433 1093 l 436 1099 l 435 1104 m 465 1083 q 470 1078 465 1082 q 478 1074 475 1075 q 478 1083 474 1079 q 471 1090 478 1088 q 471 1083 475 1088 l 465 1083 m 768 28 q 760 8 768 17 q 740 0 753 0 l 531 0 q 503 25 506 0 l 489 194 l 279 153 l 249 25 q 221 4 243 4 l 15 8 q -6 19 1 8 q -11 44 -14 29 q 85 372 24 175 q 169 610 117 476 q 300 925 218 733 q 321 942 306 938 l 350 947 q 414 958 392 956 q 456 961 426 961 q 494 960 482 961 q 601 864 561 954 q 631 768 614 831 q 664 615 649 693 l 768 33 l 768 28 m 328 900 l 333 900 l 333 908 l 328 908 l 328 900 m 497 864 l 501 864 l 501 875 l 497 875 l 497 864 m 486 844 l 490 840 q 493 851 493 846 q 486 853 486 851 l 486 844 m 332 844 l 329 846 l 329 828 q 336 844 329 833 l 332 844 m 513 842 q 517 844 515 844 l 501 846 l 501 840 q 503 836 503 839 l 508 836 q 513 842 508 838 m 499 840 l 501 836 l 501 839 l 499 844 l 499 840 m 528 829 q 518 819 522 829 l 521 817 l 539 817 l 544 819 q 538 828 538 824 l 540 832 q 528 829 532 829 m 524 792 q 518 786 518 792 q 525 783 521 783 q 532 781 526 783 q 535 785 535 783 l 536 788 q 524 792 529 792 m 408 781 l 411 779 l 413 783 l 411 783 l 408 781 m 425 772 l 426 765 l 433 765 q 436 765 435 764 q 439 765 438 765 q 436 774 439 771 q 433 773 435 774 q 431 772 432 772 l 425 772 m 547 747 q 540 743 547 746 q 538 739 538 743 q 540 735 538 738 l 549 735 q 554 740 554 738 q 547 747 554 747 m 242 693 q 238 692 243 696 q 233 686 233 688 q 237 676 233 682 q 242 671 240 671 q 243 682 243 675 q 242 693 243 690 m 338 672 q 338 673 338 672 q 340 674 339 674 q 346 675 344 672 l 339 678 q 338 675 338 678 l 338 672 m 240 651 l 240 636 l 246 636 l 246 653 l 240 651 m 403 646 q 386 636 392 646 q 393 625 389 626 q 406 628 397 624 l 410 639 l 408 642 q 406 646 408 643 l 403 646 m 553 644 l 553 642 l 563 642 l 563 644 l 553 644 m 568 619 q 560 626 568 626 l 558 622 l 560 619 l 568 619 m 456 400 l 447 467 q 438 533 442 511 q 419 621 426 592 l 351 397 l 456 400 m 392 613 l 388 601 l 390 600 l 394 611 l 392 613 m 518 604 l 522 601 l 525 603 l 522 606 l 518 604 m 349 521 q 358 530 353 524 q 364 540 363 536 l 367 551 l 381 581 l 374 583 l 367 578 q 360 572 361 572 q 353 547 353 546 q 347 538 349 538 q 343 532 347 535 q 339 522 340 529 l 329 492 l 324 472 q 311 450 319 460 q 301 433 303 440 q 299 425 299 426 q 296 413 296 419 q 288 393 294 404 q 281 376 282 382 q 283 367 281 367 q 290 367 288 365 q 294 371 290 367 q 303 394 300 383 q 313 417 304 407 q 321 429 313 421 l 326 444 q 335 467 329 449 q 349 504 340 485 l 349 521 m 540 550 l 540 553 q 541 553 540 553 q 542 554 542 554 l 532 556 l 532 550 l 540 550 m 568 538 l 568 540 l 560 543 l 560 540 l 568 538 m 501 533 q 506 531 503 531 q 508 533 508 531 l 501 533 m 574 485 q 581 490 581 485 l 574 485 m 476 481 l 485 481 q 482 485 485 482 l 476 486 l 476 481 m 535 467 q 518 481 533 478 q 514 472 514 479 l 522 472 q 521 463 515 468 l 533 463 l 533 467 l 535 467 m 571 475 q 579 478 579 475 q 577 478 578 478 q 576 481 576 479 l 574 481 q 571 478 571 481 l 571 475 m 553 475 q 557 472 556 472 l 560 476 q 551 478 560 478 l 553 475 m 571 460 q 579 457 576 457 q 593 461 586 457 q 582 467 588 467 l 571 467 l 571 460 m 533 443 q 540 442 539 443 l 549 442 l 549 449 l 544 450 q 540 451 543 451 q 533 443 533 449 m 489 447 l 478 447 l 478 444 l 489 444 l 489 447 m 600 442 q 596 447 599 447 l 582 447 q 571 440 575 442 q 567 436 567 438 q 579 411 567 431 l 599 411 l 604 413 q 594 419 600 419 q 581 428 589 419 q 592 433 590 431 q 600 442 593 438 m 267 443 l 261 443 l 258 431 q 263 422 258 425 q 267 433 267 429 l 267 443 m 536 436 l 535 439 l 525 439 l 525 433 l 532 428 l 532 429 l 535 431 l 538 431 l 536 436 m 553 429 q 552 430 553 429 q 551 431 551 431 l 549 431 l 551 414 q 557 428 556 419 l 553 429 m 519 422 q 513 423 517 424 q 508 422 510 422 l 513 415 q 521 417 515 417 l 531 415 q 537 417 533 415 q 540 422 540 419 l 519 422 m 508 407 l 506 407 l 504 403 l 507 401 l 508 407 m 525 388 q 526 392 526 389 l 518 393 l 515 390 l 514 388 l 524 385 q 525 388 524 388 m 503 388 q 506 390 508 388 l 503 388 m 581 372 q 576 378 581 374 l 572 376 q 571 375 571 376 l 579 372 l 581 372 m 568 353 q 565 361 565 356 q 563 369 563 367 q 540 376 550 378 q 544 374 540 374 q 554 361 550 372 l 554 353 l 568 353 m 499 367 l 494 367 l 494 361 l 499 361 l 499 367 m 617 350 l 625 350 l 625 351 l 617 353 l 617 350 m 525 350 l 525 343 l 531 343 l 531 350 l 525 350 m 490 338 l 494 338 l 494 340 l 490 340 l 490 338 m 449 333 l 442 333 l 442 331 l 449 331 l 449 333 m 478 311 q 479 318 479 313 q 469 314 476 318 l 475 314 l 478 311 m 524 308 q 517 301 517 301 q 531 297 525 297 q 540 308 540 304 q 536 314 540 310 q 532 317 532 314 l 524 308 m 553 272 l 553 269 l 560 269 l 560 272 l 553 272 m 535 269 q 543 258 535 263 l 543 269 l 535 269 m 589 260 q 592 252 589 257 q 601 247 596 247 q 610 249 608 247 q 618 250 610 249 q 614 253 617 253 l 608 257 q 607 269 607 258 q 600 264 606 264 l 589 260 m 293 258 l 278 258 l 278 251 l 293 251 l 293 258 m 263 224 l 260 232 q 257 240 257 238 q 240 247 243 247 q 230 243 233 247 q 226 236 226 239 q 232 227 226 232 q 244 222 238 222 q 249 224 247 222 l 263 224 m 499 247 l 494 247 l 494 242 l 499 242 l 499 247 m 646 243 l 651 243 l 651 246 l 646 246 l 646 243 m 510 242 q 515 238 515 240 l 529 238 l 529 242 l 510 242 m 443 238 l 442 240 l 438 239 l 439 236 l 443 238 m 674 50 q 681 53 678 50 l 675 86 l 669 119 l 664 126 l 661 133 q 668 143 661 138 q 657 156 656 150 q 660 167 660 164 q 654 185 660 175 q 650 194 650 192 q 654 200 650 200 q 656 204 656 200 q 651 218 656 210 l 642 210 l 632 203 l 628 206 l 628 219 q 640 226 628 226 l 646 222 l 646 233 q 635 238 642 236 q 625 240 628 240 q 608 235 618 240 q 599 225 599 231 q 601 221 599 224 l 607 217 q 607 207 603 213 l 613 203 q 615 201 614 203 q 615 200 615 200 q 606 197 611 197 q 593 190 593 197 q 590 181 590 181 q 597 181 593 182 q 599 176 600 179 q 596 174 599 174 q 594 172 594 174 q 593 168 594 169 l 590 163 l 590 150 q 605 143 592 149 q 606 132 618 138 q 622 131 610 131 q 629 132 626 131 l 638 132 l 638 113 l 636 113 l 636 111 l 635 111 l 639 107 q 643 103 643 103 q 646 100 643 100 q 650 96 646 100 l 651 83 q 661 72 654 76 q 660 68 661 69 l 660 65 q 665 56 660 63 q 674 50 671 50 m 150 217 q 146 222 154 221 l 146 219 l 150 217 m 210 194 q 208 201 213 197 q 206 194 206 199 q 208 193 206 193 q 210 194 210 193 m 579 181 q 581 185 581 181 l 571 185 q 572 181 571 181 q 576 176 572 181 q 577 178 576 178 q 579 181 578 179 m 167 174 l 176 169 l 179 171 l 179 178 q 171 182 179 182 l 168 181 q 167 180 168 181 q 167 179 167 179 l 167 174 m 524 181 l 514 181 l 514 175 l 524 175 l 524 181 m 540 164 l 549 164 q 545 169 549 168 q 540 169 542 169 l 540 164 m 171 147 q 173 150 171 149 q 176 153 175 151 l 186 156 l 186 161 q 182 164 183 164 l 176 168 q 154 156 171 156 q 158 149 154 153 q 167 144 163 144 q 171 147 168 144 m 540 150 l 532 154 q 525 157 526 156 l 526 147 l 540 150 m 226 119 q 229 125 229 121 l 226 128 q 224 126 224 128 l 221 126 l 215 125 l 221 121 l 226 119 m 168 111 q 164 113 167 111 q 158 117 161 115 q 151 111 151 117 q 160 111 153 110 l 168 111 m 185 106 q 190 110 189 110 q 185 117 190 115 q 176 111 176 113 l 185 106 m 542 106 l 557 106 q 551 114 557 108 l 544 110 l 542 106 m 571 40 q 572 41 571 40 q 572 42 572 42 q 568 56 568 50 l 554 56 q 561 45 557 50 q 569 38 565 40 l 571 40 z "},"":{"ha":836,"x_min":-14,"x_max":768,"o":"m 242 1058 l 242 1111 l 247 1213 l 244 1232 l 679 1250 q 697 1242 690 1250 q 703 1225 704 1235 l 696 1097 q 675 1076 693 1076 l 285 1061 l 282 1094 l 278 1100 l 274 1060 l 242 1058 m 221 1057 q 202 1063 211 1057 q 194 1081 193 1068 l 201 1207 q 224 1231 204 1231 l 232 1231 l 232 1228 l 231 1213 q 233 1199 231 1204 q 238 1158 238 1181 q 236 1122 238 1132 q 233 1107 233 1111 l 231 1092 q 228 1076 229 1085 q 226 1057 226 1068 l 221 1057 m 621 1183 l 624 1186 l 621 1188 l 619 1183 l 621 1183 m 503 1183 l 503 1186 l 494 1186 l 494 1183 l 503 1183 m 572 1176 l 569 1178 l 567 1181 l 567 1175 l 572 1176 m 489 1169 q 489 1175 494 1171 q 488 1174 488 1175 l 486 1174 l 485 1172 l 489 1169 m 535 1169 q 528 1172 529 1172 l 531 1163 l 533 1167 l 535 1169 m 558 1167 q 553 1161 553 1164 l 561 1161 l 561 1164 q 560 1165 561 1164 q 558 1167 560 1167 m 363 1138 q 372 1143 368 1138 l 382 1151 q 375 1153 378 1151 l 367 1154 l 363 1138 m 465 1136 l 468 1136 l 464 1142 l 461 1142 l 465 1136 m 596 1138 q 601 1131 596 1131 q 606 1138 606 1135 l 596 1138 m 547 1131 l 547 1135 l 544 1135 l 544 1131 l 547 1131 m 506 1128 q 502 1130 504 1129 q 497 1131 500 1131 l 500 1125 q 501 1126 500 1125 q 503 1126 501 1126 l 506 1128 m 768 28 q 760 8 768 17 q 740 0 753 0 l 531 0 q 503 25 506 0 l 489 194 l 279 153 l 249 25 q 221 4 243 4 l 15 8 q -6 19 1 8 q -11 44 -14 29 q 85 372 24 175 q 169 610 117 476 q 300 925 218 733 q 321 942 306 938 l 350 947 q 414 958 392 956 q 456 961 426 961 q 494 960 482 961 q 601 864 561 954 q 631 768 614 831 q 664 615 649 693 l 768 33 l 768 28 m 333 900 l 333 908 l 328 908 l 328 900 l 333 900 m 501 864 l 501 875 l 497 875 l 497 864 l 501 864 m 490 840 q 493 851 493 846 q 486 853 486 851 l 486 844 l 490 840 m 329 846 l 329 828 q 336 844 329 833 l 332 844 l 329 846 m 513 842 q 517 844 515 844 l 501 846 l 501 840 q 503 836 503 839 l 508 836 q 513 842 508 838 m 501 836 l 501 839 l 499 844 l 499 840 l 501 836 m 528 829 q 518 819 522 829 l 521 817 l 539 817 l 544 819 q 538 828 538 824 l 540 832 q 528 829 532 829 m 524 792 q 518 786 518 792 q 525 783 521 783 q 532 781 526 783 q 535 785 535 783 l 536 788 q 524 792 529 792 m 411 779 l 413 783 l 411 783 l 408 781 l 411 779 m 426 765 l 433 765 q 436 765 435 764 q 439 765 438 765 q 436 774 439 771 q 433 773 435 774 q 431 772 432 772 l 425 772 l 426 765 m 547 747 q 540 743 547 746 q 538 739 538 743 q 540 735 538 738 l 549 735 q 554 740 554 738 q 547 747 554 747 m 242 693 q 238 692 243 696 q 233 686 233 688 q 237 676 233 682 q 242 671 240 671 q 243 682 243 675 q 242 693 243 690 m 338 672 q 338 673 338 672 q 340 674 339 674 q 346 675 344 672 l 339 678 q 338 675 338 678 l 338 672 m 240 636 l 246 636 l 246 653 l 240 651 l 240 636 m 403 646 q 386 636 392 646 q 393 625 389 626 q 406 628 397 624 l 410 639 l 408 642 q 406 646 408 643 l 403 646 m 553 642 l 563 642 l 563 644 l 553 644 l 553 642 m 568 619 q 560 626 568 626 l 558 622 l 560 619 l 568 619 m 447 467 q 438 533 442 511 q 419 621 426 592 l 351 397 l 456 400 l 447 467 m 388 601 l 390 600 l 394 611 l 392 613 l 388 601 m 522 601 l 525 603 l 522 606 l 518 604 l 522 601 m 349 521 q 358 530 353 524 q 364 540 363 536 l 367 551 l 381 581 l 374 583 l 367 578 q 360 572 361 572 q 353 547 353 546 q 347 538 349 538 q 343 532 347 535 q 339 522 340 529 l 329 492 l 324 472 q 311 450 319 460 q 301 433 303 440 q 299 425 299 426 q 296 413 296 419 q 288 393 294 404 q 281 376 282 382 q 283 367 281 367 q 290 367 288 365 q 294 371 290 367 q 303 394 300 383 q 313 417 304 407 q 321 429 313 421 l 326 444 q 335 467 329 449 q 349 504 340 485 l 349 521 m 540 553 q 541 553 540 553 q 542 554 542 554 l 532 556 l 532 550 l 540 550 l 540 553 m 568 540 l 560 543 l 560 540 l 568 538 l 568 540 m 501 533 q 506 531 503 531 q 508 533 508 531 l 501 533 m 574 485 q 581 490 581 485 l 574 485 m 485 481 q 482 485 485 482 l 476 486 l 476 481 l 485 481 m 535 467 q 518 481 533 478 q 514 472 514 479 l 522 472 q 521 463 515 468 l 533 463 l 533 467 l 535 467 m 571 475 q 579 478 579 475 q 577 478 578 478 q 576 481 576 479 l 574 481 q 571 478 571 481 l 571 475 m 553 475 q 557 472 556 472 l 560 476 q 551 478 560 478 l 553 475 m 571 460 q 579 457 576 457 q 593 461 586 457 q 582 467 588 467 l 571 467 l 571 460 m 533 443 q 540 442 539 443 l 549 442 l 549 449 l 544 450 q 540 451 543 451 q 533 443 533 449 m 478 447 l 478 444 l 489 444 l 489 447 l 478 447 m 600 442 q 596 447 599 447 l 582 447 q 571 440 575 442 q 567 436 567 438 q 579 411 567 431 l 599 411 l 604 413 q 594 419 600 419 q 581 428 589 419 q 592 433 590 431 q 600 442 593 438 m 261 443 l 258 431 q 263 422 258 425 q 267 433 267 429 l 267 443 l 261 443 m 536 436 l 535 439 l 525 439 l 525 433 l 532 428 l 532 429 l 535 431 l 538 431 l 536 436 m 553 429 q 552 430 553 429 q 551 431 551 431 l 549 431 l 551 414 q 557 428 556 419 l 553 429 m 519 422 q 513 423 517 424 q 508 422 510 422 l 513 415 q 521 417 515 417 l 531 415 q 537 417 533 415 q 540 422 540 419 l 519 422 m 506 407 l 504 403 l 507 401 l 508 407 l 506 407 m 525 388 q 526 392 526 389 l 518 393 l 515 390 l 514 388 l 524 385 q 525 388 524 388 m 503 388 q 506 390 508 388 l 503 388 m 581 372 q 576 378 581 374 l 572 376 q 571 375 571 376 l 579 372 l 581 372 m 568 353 q 565 361 565 356 q 563 369 563 367 q 540 376 550 378 q 544 374 540 374 q 554 361 550 372 l 554 353 l 568 353 m 494 367 l 494 361 l 499 361 l 499 367 l 494 367 m 625 350 l 625 351 l 617 353 l 617 350 l 625 350 m 525 343 l 531 343 l 531 350 l 525 350 l 525 343 m 494 338 l 494 340 l 490 340 l 490 338 l 494 338 m 442 333 l 442 331 l 449 331 l 449 333 l 442 333 m 478 311 q 479 318 479 313 q 469 314 476 318 l 475 314 l 478 311 m 524 308 q 517 301 517 301 q 531 297 525 297 q 540 308 540 304 q 536 314 540 310 q 532 317 532 314 l 524 308 m 553 269 l 560 269 l 560 272 l 553 272 l 553 269 m 535 269 q 543 258 535 263 l 543 269 l 535 269 m 589 260 q 592 252 589 257 q 601 247 596 247 q 610 249 608 247 q 618 250 610 249 q 614 253 617 253 l 608 257 q 607 269 607 258 q 600 264 606 264 l 589 260 m 278 258 l 278 251 l 293 251 l 293 258 l 278 258 m 260 232 q 257 240 257 238 q 240 247 243 247 q 230 243 233 247 q 226 236 226 239 q 232 227 226 232 q 244 222 238 222 q 249 224 247 222 l 263 224 l 260 232 m 494 247 l 494 242 l 499 242 l 499 247 l 494 247 m 651 243 l 651 246 l 646 246 l 646 243 l 651 243 m 510 242 q 515 238 515 240 l 529 238 l 529 242 l 510 242 m 442 240 l 438 239 l 439 236 l 443 238 l 442 240 m 674 50 q 681 53 678 50 l 675 86 l 669 119 l 664 126 l 661 133 q 668 143 661 138 q 657 156 656 150 q 660 167 660 164 q 654 185 660 175 q 650 194 650 192 q 654 200 650 200 q 656 204 656 200 q 651 218 656 210 l 642 210 l 632 203 l 628 206 l 628 219 q 640 226 628 226 l 646 222 l 646 233 q 635 238 642 236 q 625 240 628 240 q 608 235 618 240 q 599 225 599 231 q 601 221 599 224 l 607 217 q 607 207 603 213 l 613 203 q 615 201 614 203 q 615 200 615 200 q 606 197 611 197 q 593 190 593 197 q 590 181 590 181 q 597 181 593 182 q 599 176 600 179 q 596 174 599 174 q 594 172 594 174 q 593 168 594 169 l 590 163 l 590 150 q 605 143 592 149 q 606 132 618 138 q 622 131 610 131 q 629 132 626 131 l 638 132 l 638 113 l 636 113 l 636 111 l 635 111 l 639 107 q 643 103 643 103 q 646 100 643 100 q 650 96 646 100 l 651 83 q 661 72 654 76 q 660 68 661 69 l 660 65 q 665 56 660 63 q 674 50 671 50 m 150 217 q 146 222 154 221 l 146 219 l 150 217 m 210 194 q 208 201 213 197 q 206 194 206 199 q 208 193 206 193 q 210 194 210 193 m 579 181 q 581 185 581 181 l 571 185 q 572 181 571 181 q 576 176 572 181 q 577 178 576 178 q 579 181 578 179 m 176 169 l 179 171 l 179 178 q 171 182 179 182 l 168 181 q 167 180 168 181 q 167 179 167 179 l 167 174 l 176 169 m 514 181 l 514 175 l 524 175 l 524 181 l 514 181 m 549 164 q 545 169 549 168 q 540 169 542 169 l 540 164 l 549 164 m 171 147 q 173 150 171 149 q 176 153 175 151 l 186 156 l 186 161 q 182 164 183 164 l 176 168 q 154 156 171 156 q 158 149 154 153 q 167 144 163 144 q 171 147 168 144 m 532 154 q 525 157 526 156 l 526 147 l 540 150 l 532 154 m 226 119 q 229 125 229 121 l 226 128 q 224 126 224 128 l 221 126 l 215 125 l 221 121 l 226 119 m 168 111 q 164 113 167 111 q 158 117 161 115 q 151 111 151 117 q 160 111 153 110 l 168 111 m 185 106 q 190 110 189 110 q 185 117 190 115 q 176 111 176 113 l 185 106 m 557 106 q 551 114 557 108 l 544 110 l 542 106 l 557 106 m 571 40 q 572 41 571 40 q 572 42 572 42 q 568 56 568 50 l 554 56 q 561 45 557 50 q 569 38 565 40 l 571 40 z "},"":{"ha":836,"x_min":-14,"x_max":768,"o":"m 647 0 q 578 -61 599 -40 q 557 -101 557 -82 q 565 -122 557 -115 q 582 -128 572 -128 q 603 -117 592 -128 q 636 -78 614 -107 q 647 -69 639 -72 q 663 -67 654 -65 q 706 -93 679 -72 q 744 -132 732 -114 q 751 -151 751 -142 q 747 -165 751 -160 q 695 -228 718 -207 q 641 -260 672 -250 q 560 -271 610 -271 q 480 -251 514 -271 q 428 -199 446 -231 q 410 -136 410 -168 q 501 35 410 -54 l 489 194 l 279 153 l 249 25 q 221 4 243 4 l 15 8 q -6 19 1 8 q -11 44 -14 29 q 85 372 24 175 q 169 610 117 476 q 300 925 218 733 q 321 942 306 938 l 350 947 q 414 958 392 956 q 456 961 426 961 q 494 960 482 961 q 601 864 561 954 q 631 768 614 831 q 664 615 649 693 l 768 33 l 768 28 q 760 8 768 17 q 740 0 753 0 l 647 0 m 333 900 l 333 908 l 328 908 l 328 900 l 333 900 m 501 864 l 501 875 l 497 875 l 497 864 l 501 864 m 490 840 q 493 851 493 846 q 486 853 486 851 l 486 844 l 490 840 m 329 846 l 329 828 q 336 844 329 833 l 332 844 l 329 846 m 513 842 q 517 844 515 844 l 501 846 l 501 840 q 503 836 503 839 l 508 836 q 513 842 508 838 m 501 836 l 501 839 l 499 844 l 499 840 l 501 836 m 528 829 q 518 819 522 829 l 521 817 l 539 817 l 544 819 q 538 828 538 824 l 540 832 q 528 829 532 829 m 524 792 q 518 786 518 792 q 525 783 521 783 q 532 781 526 783 q 535 785 535 783 l 536 788 q 524 792 529 792 m 411 779 l 413 783 l 411 783 l 408 781 l 411 779 m 426 765 l 433 765 q 436 765 435 764 q 439 765 438 765 q 436 774 439 771 q 433 773 435 774 q 431 772 432 772 l 425 772 l 426 765 m 547 747 q 540 743 547 746 q 538 739 538 743 q 540 735 538 738 l 549 735 q 554 740 554 738 q 547 747 554 747 m 242 693 q 238 692 243 696 q 233 686 233 688 q 237 676 233 682 q 242 671 240 671 q 243 682 243 675 q 242 693 243 690 m 338 672 q 338 673 338 672 q 340 674 339 674 q 346 675 344 672 l 339 678 q 338 675 338 678 l 338 672 m 240 636 l 246 636 l 246 653 l 240 651 l 240 636 m 403 646 q 386 636 392 646 q 393 625 389 626 q 406 628 397 624 l 410 639 l 408 642 q 406 646 408 643 l 403 646 m 553 642 l 563 642 l 563 644 l 553 644 l 553 642 m 568 619 q 560 626 568 626 l 558 622 l 560 619 l 568 619 m 447 467 q 438 533 442 511 q 419 621 426 592 l 351 397 l 456 400 l 447 467 m 388 601 l 390 600 l 394 611 l 392 613 l 388 601 m 522 601 l 525 603 l 522 606 l 518 604 l 522 601 m 349 521 q 358 530 353 524 q 364 540 363 536 l 367 551 l 381 581 l 374 583 l 367 578 q 360 572 361 572 q 353 547 353 546 q 347 538 349 538 q 343 532 347 535 q 339 522 340 529 l 329 492 l 324 472 q 311 450 319 460 q 301 433 303 440 q 299 425 299 426 q 296 413 296 419 q 288 393 294 404 q 281 376 282 382 q 283 367 281 367 q 290 367 288 365 q 294 371 290 367 q 303 394 300 383 q 313 417 304 407 q 321 429 313 421 l 326 444 q 335 467 329 449 q 349 504 340 485 l 349 521 m 540 553 q 541 553 540 553 q 542 554 542 554 l 532 556 l 532 550 l 540 550 l 540 553 m 568 540 l 560 543 l 560 540 l 568 538 l 568 540 m 501 533 q 506 531 503 531 q 508 533 508 531 l 501 533 m 574 485 q 581 490 581 485 l 574 485 m 485 481 q 482 485 485 482 l 476 486 l 476 481 l 485 481 m 535 467 q 518 481 533 478 q 514 472 514 479 l 522 472 q 521 463 515 468 l 533 463 l 533 467 l 535 467 m 571 475 q 579 478 579 475 q 577 478 578 478 q 576 481 576 479 l 574 481 q 571 478 571 481 l 571 475 m 560 476 q 551 478 560 478 l 553 475 q 557 472 556 472 l 560 476 m 571 460 q 579 457 576 457 q 593 461 586 457 q 582 467 588 467 l 571 467 l 571 460 m 540 451 q 533 443 533 449 q 540 442 539 443 l 549 442 l 549 449 l 544 450 q 540 451 543 451 m 478 447 l 478 444 l 489 444 l 489 447 l 478 447 m 600 442 q 596 447 599 447 l 582 447 q 571 440 575 442 q 567 436 567 438 q 579 411 567 431 l 599 411 l 604 413 q 594 419 600 419 q 581 428 589 419 q 592 433 590 431 q 600 442 593 438 m 261 443 l 258 431 q 263 422 258 425 q 267 433 267 429 l 267 443 l 261 443 m 525 433 l 532 428 l 532 429 l 535 431 l 538 431 l 536 436 l 535 439 l 525 439 l 525 433 m 553 429 q 552 430 553 429 q 551 431 551 431 l 549 431 l 551 414 q 557 428 556 419 l 553 429 m 519 422 q 513 423 517 424 q 508 422 510 422 l 513 415 q 521 417 515 417 l 531 415 q 537 417 533 415 q 540 422 540 419 l 519 422 m 508 407 l 506 407 l 504 403 l 507 401 l 508 407 m 525 388 q 526 392 526 389 l 518 393 l 515 390 l 514 388 l 524 385 q 525 388 524 388 m 503 388 q 506 390 508 388 l 503 388 m 579 372 l 581 372 q 576 378 581 374 l 572 376 q 571 375 571 376 l 579 372 m 563 369 q 540 376 550 378 q 544 374 540 374 q 554 361 550 372 l 554 353 l 568 353 q 565 361 565 356 q 563 369 563 367 m 494 367 l 494 361 l 499 361 l 499 367 l 494 367 m 625 350 l 625 351 l 617 353 l 617 350 l 625 350 m 525 343 l 531 343 l 531 350 l 525 350 l 525 343 m 494 338 l 494 340 l 490 340 l 490 338 l 494 338 m 442 333 l 442 331 l 449 331 l 449 333 l 442 333 m 478 311 q 479 318 479 313 q 469 314 476 318 l 475 314 l 478 311 m 524 308 q 517 301 517 301 q 531 297 525 297 q 540 308 540 304 q 536 314 540 310 q 532 317 532 314 l 524 308 m 553 269 l 560 269 l 560 272 l 553 272 l 553 269 m 535 269 q 543 258 535 263 l 543 269 l 535 269 m 607 269 q 600 264 606 264 l 589 260 q 592 252 589 257 q 601 247 596 247 q 610 249 608 247 q 618 250 610 249 q 614 253 617 253 l 608 257 q 607 269 607 258 m 278 258 l 278 251 l 293 251 l 293 258 l 278 258 m 260 232 q 257 240 257 238 q 240 247 243 247 q 230 243 233 247 q 226 236 226 239 q 232 227 226 232 q 244 222 238 222 q 249 224 247 222 l 263 224 l 260 232 m 494 247 l 494 242 l 499 242 l 499 247 l 494 247 m 651 243 l 651 246 l 646 246 l 646 243 l 651 243 m 529 242 l 510 242 q 515 238 515 240 l 529 238 l 529 242 m 442 240 l 438 239 l 439 236 l 443 238 l 442 240 m 646 233 q 635 238 642 236 q 625 240 628 240 q 608 235 618 240 q 599 225 599 231 q 601 221 599 224 l 607 217 q 607 207 603 213 l 613 203 q 615 201 614 203 q 615 200 615 200 q 606 197 611 197 q 593 190 593 197 q 590 181 590 181 q 597 181 593 182 q 599 176 600 179 q 596 174 599 174 q 594 172 594 174 q 593 168 594 169 l 590 163 l 590 150 q 605 143 592 149 q 606 132 618 138 q 622 131 610 131 q 629 132 626 131 l 638 132 l 638 113 l 636 113 l 636 111 l 635 111 l 639 107 q 643 103 643 103 q 646 100 643 100 q 650 96 646 100 l 651 83 q 661 72 654 76 q 660 68 661 69 l 660 65 q 665 56 660 63 q 674 50 671 50 q 681 53 678 50 l 675 86 l 669 119 l 664 126 l 661 133 q 668 143 661 138 q 657 156 656 150 q 660 167 660 164 q 654 185 660 175 q 650 194 650 192 q 654 200 650 200 q 656 204 656 200 q 651 218 656 210 l 642 210 l 632 203 l 628 206 l 628 219 q 640 226 628 226 l 646 222 l 646 233 m 150 217 q 146 222 154 221 l 146 219 l 150 217 m 210 194 q 208 201 213 197 q 206 194 206 199 q 208 193 206 193 q 210 194 210 193 m 571 185 q 572 181 571 181 q 576 176 572 181 q 577 178 576 178 q 579 181 578 179 q 581 185 581 181 l 571 185 m 176 169 l 179 171 l 179 178 q 171 182 179 182 l 168 181 q 167 180 168 181 q 167 179 167 179 l 167 174 l 176 169 m 514 175 l 524 175 l 524 181 l 514 181 l 514 175 m 549 164 q 545 169 549 168 q 540 169 542 169 l 540 164 l 549 164 m 171 147 q 173 150 171 149 q 176 153 175 151 l 186 156 l 186 161 q 182 164 183 164 l 176 168 q 154 156 171 156 q 158 149 154 153 q 167 144 163 144 q 171 147 168 144 m 532 154 q 525 157 526 156 l 526 147 l 540 150 l 532 154 m 226 119 q 229 125 229 121 l 226 128 q 224 126 224 128 l 221 126 l 215 125 l 221 121 l 226 119 m 168 111 q 164 113 167 111 q 158 117 161 115 q 151 111 151 117 q 160 111 153 110 l 168 111 m 185 106 q 190 110 189 110 q 185 117 190 115 q 176 111 176 113 l 185 106 m 557 106 q 551 114 557 108 l 544 110 l 542 106 l 557 106 m 508 -37 q 501 -29 508 -29 q 497 -39 497 -33 q 499 -42 497 -40 q 500 -46 500 -44 l 504 -46 l 508 -37 m 664 -106 q 656 -114 664 -106 l 668 -111 l 669 -104 q 669 -104 669 -104 q 668 -104 668 -104 l 664 -106 m 683 -111 q 681 -112 681 -111 q 683 -114 682 -114 q 692 -117 690 -118 q 683 -111 682 -107 m 651 -118 l 653 -115 l 651 -114 l 650 -115 l 651 -118 m 483 -128 q 485 -136 485 -131 q 492 -135 489 -136 l 492 -128 l 489 -126 q 488 -124 489 -125 q 488 -124 488 -124 q 485 -126 485 -124 q 484 -127 485 -126 q 483 -128 483 -128 m 649 -126 q 647 -130 646 -128 q 647 -132 647 -132 l 647 -136 q 651 -135 647 -136 q 650 -129 653 -132 l 653 -124 q 651 -124 651 -125 l 649 -126 m 633 -132 q 633 -134 632 -133 q 635 -133 633 -135 q 638 -133 635 -136 l 640 -131 l 638 -128 l 633 -132 m 661 -133 q 661 -132 663 -132 l 663 -131 l 661 -129 l 660 -131 l 657 -132 l 658 -133 l 660 -133 q 660 -133 660 -133 q 661 -133 661 -133 m 511 -150 q 515 -146 515 -150 q 514 -139 515 -139 q 510 -146 510 -139 l 511 -150 m 661 -149 q 661 -144 661 -144 q 661 -143 661 -144 q 661 -142 661 -142 l 656 -143 l 656 -147 l 661 -149 m 488 -150 q 490 -153 489 -153 q 493 -150 492 -153 l 492 -146 q 488 -150 489 -146 m 710 -151 q 697 -151 704 -158 l 701 -156 l 714 -158 l 725 -147 q 710 -151 718 -147 m 663 -157 q 664 -151 667 -154 l 661 -153 l 657 -154 l 663 -157 m 633 -158 q 628 -158 631 -160 l 632 -161 l 635 -160 l 633 -158 m 676 -186 q 674 -193 672 -190 l 675 -194 l 676 -194 l 686 -186 q 685 -179 688 -185 l 682 -182 q 681 -183 682 -182 q 681 -183 681 -183 l 676 -186 m 564 -187 q 564 -196 561 -190 l 564 -203 l 568 -203 q 567 -196 568 -196 q 564 -192 567 -192 l 564 -187 m 558 -189 q 556 -190 557 -189 q 554 -193 554 -192 l 553 -197 l 549 -196 l 549 -203 q 551 -208 549 -206 q 556 -211 553 -211 q 560 -207 558 -211 l 560 -196 l 558 -189 m 519 -199 q 515 -197 519 -197 q 519 -199 518 -197 m 628 -203 q 633 -197 632 -203 l 631 -197 l 628 -203 m 529 -199 l 525 -199 q 524 -201 524 -199 l 528 -203 l 532 -203 l 529 -199 m 563 -224 q 560 -219 563 -219 q 556 -215 560 -218 q 553 -215 556 -214 q 558 -219 554 -218 q 563 -224 561 -221 m 579 -219 l 579 -215 l 575 -215 l 575 -219 l 579 -219 z "},"":{"ha":785,"x_min":-14,"x_max":768,"o":"m 768 28 q 760 8 768 17 q 740 0 753 0 l 531 0 q 503 25 506 0 l 489 194 l 279 153 l 249 25 q 221 4 243 4 l 15 8 q -6 19 1 8 q -11 44 -14 29 q 85 372 24 175 q 169 610 117 476 q 300 925 218 733 l 303 929 q 278 1040 278 971 q 333 1169 278 1124 q 475 1214 388 1214 q 611 1178 560 1214 q 663 1063 663 1142 q 643 974 663 1014 q 589 910 624 935 q 631 768 613 835 q 664 615 649 693 l 768 33 l 768 28 m 628 1126 l 628 1132 l 614 1132 l 614 1126 l 628 1126 m 471 1106 q 428 1085 444 1106 q 413 1033 413 1065 q 426 991 413 1007 q 461 975 439 975 q 501 997 486 975 q 515 1053 515 1019 q 503 1091 515 1076 q 471 1106 492 1106 m 633 1043 q 633 1044 633 1043 q 632 1044 632 1044 l 628 1046 q 617 1044 626 1047 l 628 1039 l 633 1043 m 588 1046 q 588 1043 585 1043 q 590 1042 588 1042 l 594 1042 l 594 1046 l 588 1046 m 603 1040 q 599 1036 599 1040 l 596 1032 l 600 1032 q 603 1036 603 1033 q 603 1037 601 1036 q 608 1039 606 1038 q 607 1040 607 1039 l 603 1040 m 364 1035 q 365 1034 364 1035 q 367 1033 365 1033 q 364 1036 369 1036 l 364 1035 m 639 1029 q 638 1026 635 1031 q 642 1019 640 1019 q 639 1029 642 1033 m 608 1029 l 606 1031 l 606 1028 l 607 1028 q 608 1027 607 1028 q 608 1026 608 1026 q 610 1028 610 1026 l 611 1028 l 611 1029 l 608 1029 m 568 1024 l 571 1024 l 571 1025 l 567 1028 l 568 1024 m 596 1019 q 599 1015 596 1018 q 601 1018 601 1018 q 602 1019 601 1018 q 603 1019 603 1019 l 597 1022 q 596 1021 597 1021 l 596 1019 m 596 1011 q 592 1013 594 1013 l 594 1007 q 599 1011 599 1007 l 596 1011 m 603 999 q 606 1004 606 999 l 596 1004 q 589 1001 589 1004 l 589 1000 l 590 999 l 603 999 m 292 1001 l 292 1000 l 296 999 l 297 1000 l 292 1001 m 300 986 q 301 985 300 986 q 301 985 301 985 l 310 985 l 311 986 l 311 996 l 307 996 q 302 994 304 996 q 300 989 300 992 l 300 986 m 561 982 q 569 982 565 981 l 568 985 l 561 982 m 538 978 q 540 976 538 975 l 539 976 l 538 979 l 538 978 m 582 951 l 588 951 l 582 954 q 579 957 579 954 l 579 954 l 582 951 m 328 901 l 328 900 l 329 900 l 328 901 m 497 872 l 497 864 l 501 864 l 501 874 l 497 872 m 493 851 q 486 853 486 851 l 486 844 l 490 840 q 493 851 493 846 m 329 846 l 329 828 q 336 844 329 833 l 332 844 l 329 846 m 508 836 q 513 842 508 838 q 517 844 515 844 l 501 846 l 501 840 q 503 836 503 839 l 508 836 m 501 836 l 501 839 l 499 844 l 499 840 l 501 836 m 544 819 q 538 828 538 824 l 540 832 q 528 829 532 829 q 518 819 522 829 l 521 817 l 539 817 l 544 819 m 524 792 q 518 786 518 792 q 525 783 521 783 q 532 781 526 783 q 535 785 535 783 l 536 788 q 524 792 529 792 m 413 783 l 411 783 l 408 781 l 411 779 l 413 783 m 439 765 q 436 774 439 771 q 433 773 435 774 q 431 772 432 772 l 425 772 l 426 765 l 433 765 q 436 765 435 764 q 439 765 438 765 m 549 735 q 554 740 554 738 q 547 747 554 747 q 540 743 547 746 q 538 739 538 743 q 540 735 538 738 l 549 735 m 242 693 q 238 692 243 696 q 233 686 233 688 q 237 676 233 682 q 242 671 240 671 q 243 682 243 675 q 242 693 243 690 m 339 678 q 338 675 338 678 l 338 672 q 338 673 338 672 q 340 674 339 674 q 346 675 344 672 l 339 678 m 240 636 l 246 636 l 246 653 l 240 651 l 240 636 m 386 636 q 393 625 389 626 q 406 628 397 624 l 410 639 l 408 642 q 406 646 408 643 l 403 646 q 386 636 392 646 m 553 644 l 553 642 l 563 642 l 563 644 l 553 644 m 568 619 q 560 626 568 626 l 558 622 l 560 619 l 568 619 m 447 467 q 438 533 442 511 q 419 621 426 592 l 351 397 l 456 400 l 447 467 m 388 601 l 390 600 l 394 611 l 392 613 l 388 601 m 522 601 l 525 603 l 522 606 l 518 604 l 522 601 m 349 521 q 358 530 353 524 q 364 540 363 536 l 367 551 l 381 581 l 374 583 l 367 578 q 360 572 361 572 q 353 547 353 546 q 347 538 349 538 q 343 532 347 535 q 339 522 340 529 l 329 492 l 324 472 q 311 450 319 460 q 301 433 303 440 q 299 425 299 426 q 296 413 296 419 q 288 393 294 404 q 281 376 282 382 q 283 367 281 367 q 290 367 288 365 q 294 371 290 367 q 303 394 300 383 q 313 417 304 407 q 321 429 313 421 l 326 444 q 335 467 329 449 q 349 504 340 485 l 349 521 m 532 550 l 540 550 l 540 553 q 541 553 540 553 q 542 554 542 554 l 532 556 l 532 550 m 560 540 l 568 538 l 568 540 l 560 543 l 560 540 m 501 533 q 506 531 503 531 q 508 533 508 531 l 501 533 m 574 485 q 581 490 581 485 l 574 485 m 485 481 q 482 485 485 482 l 476 486 l 476 481 l 485 481 m 522 472 q 521 463 515 468 l 533 463 l 533 467 l 535 467 q 518 481 533 478 q 514 472 514 479 l 522 472 m 574 481 q 571 478 571 481 l 571 475 q 579 478 579 475 q 577 478 578 478 q 576 481 576 479 l 574 481 m 553 475 q 557 472 556 472 l 560 476 q 551 478 560 478 l 553 475 m 571 460 q 579 457 576 457 q 593 461 586 457 q 582 467 588 467 l 571 467 l 571 460 m 533 443 q 540 442 539 443 l 549 442 l 549 449 l 544 450 q 540 451 543 451 q 533 443 533 449 m 478 447 l 478 444 l 489 444 l 489 447 l 478 447 m 600 442 q 596 447 599 447 l 582 447 q 571 440 575 442 q 567 436 567 438 q 579 411 567 431 l 599 411 l 604 413 q 594 419 600 419 q 581 428 589 419 q 592 433 590 431 q 600 442 593 438 m 261 443 l 258 431 q 263 422 258 425 q 267 433 267 429 l 267 443 l 261 443 m 532 428 l 532 429 l 535 431 l 538 431 l 536 436 l 535 439 l 525 439 l 525 433 l 532 428 m 553 429 q 552 430 553 429 q 551 431 551 431 l 549 431 l 551 414 q 557 428 556 419 l 553 429 m 519 422 q 513 423 517 424 q 508 422 510 422 l 513 415 q 521 417 515 417 l 531 415 q 537 417 533 415 q 540 422 540 419 l 519 422 m 506 407 l 504 403 l 507 401 l 508 407 l 506 407 m 525 388 q 526 392 526 389 l 518 393 l 515 390 l 514 388 l 524 385 q 525 388 524 388 m 503 388 q 506 390 508 388 l 503 388 m 581 372 q 576 378 581 374 l 572 376 q 571 375 571 376 l 579 372 l 581 372 m 568 353 q 565 361 565 356 q 563 369 563 367 q 540 376 550 378 q 544 374 540 374 q 554 361 550 372 l 554 353 l 568 353 m 494 367 l 494 361 l 499 361 l 499 367 l 494 367 m 625 350 l 625 351 l 617 353 l 617 350 l 625 350 m 525 343 l 531 343 l 531 350 l 525 350 l 525 343 m 494 338 l 494 340 l 490 340 l 490 338 l 494 338 m 442 333 l 442 331 l 449 331 l 449 333 l 442 333 m 478 311 q 479 318 479 313 q 469 314 476 318 l 475 314 l 478 311 m 524 308 q 517 301 517 301 q 531 297 525 297 q 540 308 540 304 q 536 314 540 310 q 532 317 532 314 l 524 308 m 553 269 l 560 269 l 560 272 l 553 272 l 553 269 m 535 269 q 543 258 535 263 l 543 269 l 535 269 m 589 260 q 592 252 589 257 q 601 247 596 247 q 610 249 608 247 q 618 250 610 249 q 614 253 617 253 l 608 257 q 607 269 607 258 q 600 264 606 264 l 589 260 m 278 258 l 278 251 l 293 251 l 293 258 l 278 258 m 260 232 q 257 240 257 238 q 240 247 243 247 q 230 243 233 247 q 226 236 226 239 q 232 227 226 232 q 244 222 238 222 q 249 224 247 222 l 263 224 l 260 232 m 494 247 l 494 242 l 499 242 l 499 247 l 494 247 m 651 243 l 651 246 l 646 246 l 646 243 l 651 243 m 510 242 q 515 238 515 240 l 529 238 l 529 242 l 510 242 m 442 240 l 438 239 l 439 236 l 443 238 l 442 240 m 674 50 q 681 53 678 50 l 675 86 l 669 119 l 664 126 l 661 133 q 668 143 661 138 q 657 156 656 150 q 660 167 660 164 q 654 185 660 175 q 650 194 650 192 q 654 200 650 200 q 656 204 656 200 q 651 218 656 210 l 642 210 l 632 203 l 628 206 l 628 219 q 640 226 628 226 l 646 222 l 646 233 q 635 238 642 236 q 625 240 628 240 q 608 235 618 240 q 599 225 599 231 q 601 221 599 224 l 607 217 q 607 207 603 213 l 613 203 q 615 201 614 203 q 615 200 615 200 q 606 197 611 197 q 593 190 593 197 q 590 181 590 181 q 597 181 593 182 q 599 176 600 179 q 596 174 599 174 q 594 172 594 174 q 593 168 594 169 l 590 163 l 590 150 q 605 143 592 149 q 606 132 618 138 q 622 131 610 131 q 629 132 626 131 l 638 132 l 638 113 l 636 113 l 636 111 l 635 111 l 639 107 q 643 103 643 103 q 646 100 643 100 q 650 96 646 100 l 651 83 q 661 72 654 76 q 660 68 661 69 l 660 65 q 665 56 660 63 q 674 50 671 50 m 150 217 q 146 222 154 221 l 146 219 l 150 217 m 210 194 q 208 201 213 197 q 206 194 206 199 q 208 193 206 193 q 210 194 210 193 m 579 181 q 581 185 581 181 l 571 185 q 572 181 571 181 q 576 176 572 181 q 577 178 576 178 q 579 181 578 179 m 176 169 l 179 171 l 179 178 q 171 182 179 182 l 168 181 q 167 180 168 181 q 167 179 167 179 l 167 174 l 176 169 m 514 181 l 514 175 l 524 175 l 524 181 l 514 181 m 549 164 q 545 169 549 168 q 540 169 542 169 l 540 164 l 549 164 m 171 147 q 173 150 171 149 q 176 153 175 151 l 186 156 l 186 161 q 182 164 183 164 l 176 168 q 154 156 171 156 q 158 149 154 153 q 167 144 163 144 q 171 147 168 144 m 532 154 q 525 157 526 156 l 526 147 l 540 150 l 532 154 m 226 119 q 229 125 229 121 l 226 128 q 224 126 224 128 l 221 126 l 215 125 l 221 121 l 226 119 m 168 111 q 164 113 167 111 q 158 117 161 115 q 151 111 151 117 q 160 111 153 110 l 168 111 m 185 106 q 190 110 189 110 q 185 117 190 115 q 176 111 176 113 l 185 106 m 557 106 q 551 114 557 108 l 544 110 l 542 106 l 557 106 m 571 40 q 572 41 571 40 q 572 42 572 42 q 568 56 568 50 l 554 56 q 561 45 557 50 q 569 38 565 40 l 571 40 z "},"":{"ha":836,"x_min":-14,"x_max":768,"o":"m 229 1047 q 204 1075 204 1047 q 207 1094 204 1081 q 272 1235 228 1190 q 386 1279 315 1279 q 447 1268 422 1279 q 497 1236 471 1257 q 526 1217 514 1224 q 550 1211 538 1211 q 574 1224 563 1211 q 589 1254 585 1236 q 608 1272 593 1272 l 710 1276 q 740 1253 740 1276 q 738 1238 740 1249 q 670 1086 713 1133 q 563 1039 628 1039 q 506 1049 526 1039 q 460 1078 485 1058 q 427 1100 440 1093 q 394 1107 414 1107 q 371 1098 382 1107 q 356 1076 360 1089 q 331 1050 347 1050 l 229 1047 m 386 1214 l 386 1224 l 368 1224 l 368 1214 l 386 1214 m 394 1189 q 392 1183 394 1188 q 399 1176 389 1179 l 401 1175 q 413 1178 406 1175 q 421 1186 419 1182 l 421 1189 q 415 1199 421 1193 l 413 1200 q 394 1189 406 1200 m 438 1194 q 436 1189 435 1192 l 440 1189 l 443 1192 l 440 1193 l 438 1194 m 663 1192 q 649 1190 660 1196 l 657 1178 l 663 1192 m 356 1182 q 363 1185 360 1182 q 362 1185 363 1185 q 361 1186 361 1186 l 356 1186 l 356 1182 m 460 1183 l 463 1182 l 468 1182 l 467 1186 l 463 1185 l 460 1183 m 304 1157 q 319 1182 315 1171 q 308 1175 313 1182 q 307 1165 307 1174 l 304 1157 m 446 1175 q 442 1171 442 1174 q 442 1170 442 1171 q 443 1169 443 1169 l 449 1169 q 456 1174 451 1169 l 450 1178 l 446 1175 m 582 1164 l 588 1178 l 578 1178 l 563 1160 l 582 1164 m 606 1163 l 606 1174 l 604 1174 q 600 1175 603 1175 q 595 1172 597 1175 q 593 1165 593 1169 l 593 1163 l 606 1163 m 478 1143 q 475 1140 475 1143 l 478 1138 l 486 1138 l 488 1142 q 490 1149 490 1149 l 492 1158 q 494 1163 492 1163 l 494 1169 q 492 1167 492 1169 l 489 1160 l 488 1153 l 485 1149 q 484 1148 485 1149 q 483 1147 483 1147 q 478 1143 483 1143 m 638 1151 l 649 1158 l 646 1163 l 635 1156 l 638 1151 m 379 1156 q 376 1158 382 1158 l 376 1157 q 377 1156 376 1157 q 379 1156 378 1156 m 508 1154 q 503 1157 508 1157 l 503 1154 l 508 1154 m 564 1138 l 564 1143 l 549 1143 l 549 1138 l 564 1138 m 525 1125 l 525 1135 l 517 1135 l 517 1125 l 525 1125 m 303 1118 l 304 1119 l 299 1121 l 299 1119 l 303 1118 m 315 1115 q 309 1113 311 1115 q 307 1107 307 1110 l 307 1104 q 308 1103 307 1104 q 308 1103 308 1103 l 318 1103 l 319 1104 l 319 1115 l 315 1115 m 597 1108 l 610 1108 l 610 1115 l 597 1115 l 597 1108 m 550 1099 l 550 1104 l 528 1108 l 528 1103 l 550 1099 m 267 1094 l 267 1104 l 261 1104 l 261 1094 l 267 1094 m 768 28 q 760 8 768 17 q 740 0 753 0 l 531 0 q 503 25 506 0 l 489 194 l 279 153 l 249 25 q 221 4 243 4 l 15 8 q -6 19 1 8 q -11 44 -14 29 q 85 372 24 175 q 169 610 117 476 q 300 925 218 733 q 321 942 306 938 l 350 947 q 414 958 392 956 q 456 961 426 961 q 494 960 482 961 q 601 864 561 954 q 631 768 614 831 q 664 615 649 693 l 768 33 l 768 28 m 333 900 l 333 908 l 328 908 l 328 900 l 333 900 m 501 864 l 501 875 l 497 875 l 497 864 l 501 864 m 490 840 q 493 851 493 846 q 486 853 486 851 l 486 844 l 490 840 m 329 846 l 329 828 q 336 844 329 833 l 332 844 l 329 846 m 513 842 q 517 844 515 844 l 501 846 l 501 840 q 503 836 503 839 l 508 836 q 513 842 508 838 m 501 836 l 501 839 l 499 844 l 499 840 l 501 836 m 528 829 q 518 819 522 829 l 521 817 l 539 817 l 544 819 q 538 828 538 824 l 540 832 q 528 829 532 829 m 524 792 q 518 786 518 792 q 525 783 521 783 q 532 781 526 783 q 535 785 535 783 l 536 788 q 524 792 529 792 m 411 779 l 413 783 l 411 783 l 408 781 l 411 779 m 426 765 l 433 765 q 436 765 435 764 q 439 765 438 765 q 436 774 439 771 q 433 773 435 774 q 431 772 432 772 l 425 772 l 426 765 m 547 747 q 540 743 547 746 q 538 739 538 743 q 540 735 538 738 l 549 735 q 554 740 554 738 q 547 747 554 747 m 242 693 q 238 692 243 696 q 233 686 233 688 q 237 676 233 682 q 242 671 240 671 q 243 682 243 675 q 242 693 243 690 m 338 672 q 338 673 338 672 q 340 674 339 674 q 346 675 344 672 l 339 678 q 338 675 338 678 l 338 672 m 240 636 l 246 636 l 246 653 l 240 651 l 240 636 m 403 646 q 386 636 392 646 q 393 625 389 626 q 406 628 397 624 l 410 639 l 408 642 q 406 646 408 643 l 403 646 m 553 642 l 563 642 l 563 644 l 553 644 l 553 642 m 568 619 q 560 626 568 626 l 558 622 l 560 619 l 568 619 m 447 467 q 438 533 442 511 q 419 621 426 592 l 351 397 l 456 400 l 447 467 m 388 601 l 390 600 l 394 611 l 392 613 l 388 601 m 522 601 l 525 603 l 522 606 l 518 604 l 522 601 m 349 521 q 358 530 353 524 q 364 540 363 536 l 367 551 l 381 581 l 374 583 l 367 578 q 360 572 361 572 q 353 547 353 546 q 347 538 349 538 q 343 532 347 535 q 339 522 340 529 l 329 492 l 324 472 q 311 450 319 460 q 301 433 303 440 q 299 425 299 426 q 296 413 296 419 q 288 393 294 404 q 281 376 282 382 q 283 367 281 367 q 290 367 288 365 q 294 371 290 367 q 303 394 300 383 q 313 417 304 407 q 321 429 313 421 l 326 444 q 335 467 329 449 q 349 504 340 485 l 349 521 m 540 553 q 541 553 540 553 q 542 554 542 554 l 532 556 l 532 550 l 540 550 l 540 553 m 568 540 l 560 543 l 560 540 l 568 538 l 568 540 m 501 533 q 506 531 503 531 q 508 533 508 531 l 501 533 m 574 485 q 581 490 581 485 l 574 485 m 485 481 q 482 485 485 482 l 476 486 l 476 481 l 485 481 m 535 467 q 518 481 533 478 q 514 472 514 479 l 522 472 q 521 463 515 468 l 533 463 l 533 467 l 535 467 m 571 475 q 579 478 579 475 q 577 478 578 478 q 576 481 576 479 l 574 481 q 571 478 571 481 l 571 475 m 553 475 q 557 472 556 472 l 560 476 q 551 478 560 478 l 553 475 m 571 460 q 579 457 576 457 q 593 461 586 457 q 582 467 588 467 l 571 467 l 571 460 m 533 443 q 540 442 539 443 l 549 442 l 549 449 l 544 450 q 540 451 543 451 q 533 443 533 449 m 478 447 l 478 444 l 489 444 l 489 447 l 478 447 m 600 442 q 596 447 599 447 l 582 447 q 571 440 575 442 q 567 436 567 438 q 579 411 567 431 l 599 411 l 604 413 q 594 419 600 419 q 581 428 589 419 q 592 433 590 431 q 600 442 593 438 m 261 443 l 258 431 q 263 422 258 425 q 267 433 267 429 l 267 443 l 261 443 m 536 436 l 535 439 l 525 439 l 525 433 l 532 428 l 532 429 l 535 431 l 538 431 l 536 436 m 553 429 q 552 430 553 429 q 551 431 551 431 l 549 431 l 551 414 q 557 428 556 419 l 553 429 m 519 422 q 513 423 517 424 q 508 422 510 422 l 513 415 q 521 417 515 417 l 531 415 q 537 417 533 415 q 540 422 540 419 l 519 422 m 506 407 l 504 403 l 507 401 l 508 407 l 506 407 m 525 388 q 526 392 526 389 l 518 393 l 515 390 l 514 388 l 524 385 q 525 388 524 388 m 503 388 q 506 390 508 388 l 503 388 m 581 372 q 576 378 581 374 l 572 376 q 571 375 571 376 l 579 372 l 581 372 m 568 353 q 565 361 565 356 q 563 369 563 367 q 540 376 550 378 q 544 374 540 374 q 554 361 550 372 l 554 353 l 568 353 m 494 367 l 494 361 l 499 361 l 499 367 l 494 367 m 625 350 l 625 351 l 617 353 l 617 350 l 625 350 m 525 343 l 531 343 l 531 350 l 525 350 l 525 343 m 494 338 l 494 340 l 490 340 l 490 338 l 494 338 m 442 333 l 442 331 l 449 331 l 449 333 l 442 333 m 478 311 q 479 318 479 313 q 469 314 476 318 l 475 314 l 478 311 m 524 308 q 517 301 517 301 q 531 297 525 297 q 540 308 540 304 q 536 314 540 310 q 532 317 532 314 l 524 308 m 553 269 l 560 269 l 560 272 l 553 272 l 553 269 m 535 269 q 543 258 535 263 l 543 269 l 535 269 m 589 260 q 592 252 589 257 q 601 247 596 247 q 610 249 608 247 q 618 250 610 249 q 614 253 617 253 l 608 257 q 607 269 607 258 q 600 264 606 264 l 589 260 m 278 258 l 278 251 l 293 251 l 293 258 l 278 258 m 260 232 q 257 240 257 238 q 240 247 243 247 q 230 243 233 247 q 226 236 226 239 q 232 227 226 232 q 244 222 238 222 q 249 224 247 222 l 263 224 l 260 232 m 494 247 l 494 242 l 499 242 l 499 247 l 494 247 m 651 243 l 651 246 l 646 246 l 646 243 l 651 243 m 510 242 q 515 238 515 240 l 529 238 l 529 242 l 510 242 m 442 240 l 438 239 l 439 236 l 443 238 l 442 240 m 674 50 q 681 53 678 50 l 675 86 l 669 119 l 664 126 l 661 133 q 668 143 661 138 q 657 156 656 150 q 660 167 660 164 q 654 185 660 175 q 650 194 650 192 q 654 200 650 200 q 656 204 656 200 q 651 218 656 210 l 642 210 l 632 203 l 628 206 l 628 219 q 640 226 628 226 l 646 222 l 646 233 q 635 238 642 236 q 625 240 628 240 q 608 235 618 240 q 599 225 599 231 q 601 221 599 224 l 607 217 q 607 207 603 213 l 613 203 q 615 201 614 203 q 615 200 615 200 q 606 197 611 197 q 593 190 593 197 q 590 181 590 181 q 597 181 593 182 q 599 176 600 179 q 596 174 599 174 q 594 172 594 174 q 593 168 594 169 l 590 163 l 590 150 q 605 143 592 149 q 606 132 618 138 q 622 131 610 131 q 629 132 626 131 l 638 132 l 638 113 l 636 113 l 636 111 l 635 111 l 639 107 q 643 103 643 103 q 646 100 643 100 q 650 96 646 100 l 651 83 q 661 72 654 76 q 660 68 661 69 l 660 65 q 665 56 660 63 q 674 50 671 50 m 150 217 q 146 222 154 221 l 146 219 l 150 217 m 210 194 q 208 201 213 197 q 206 194 206 199 q 208 193 206 193 q 210 194 210 193 m 579 181 q 581 185 581 181 l 571 185 q 572 181 571 181 q 576 176 572 181 q 577 178 576 178 q 579 181 578 179 m 176 169 l 179 171 l 179 178 q 171 182 179 182 l 168 181 q 167 180 168 181 q 167 179 167 179 l 167 174 l 176 169 m 514 181 l 514 175 l 524 175 l 524 181 l 514 181 m 549 164 q 545 169 549 168 q 540 169 542 169 l 540 164 l 549 164 m 171 147 q 173 150 171 149 q 176 153 175 151 l 186 156 l 186 161 q 182 164 183 164 l 176 168 q 154 156 171 156 q 158 149 154 153 q 167 144 163 144 q 171 147 168 144 m 532 154 q 525 157 526 156 l 526 147 l 540 150 l 532 154 m 226 119 q 229 125 229 121 l 226 128 q 224 126 224 128 l 221 126 l 215 125 l 221 121 l 226 119 m 168 111 q 164 113 167 111 q 158 117 161 115 q 151 111 151 117 q 160 111 153 110 l 168 111 m 185 106 q 190 110 189 110 q 185 117 190 115 q 176 111 176 113 l 185 106 m 557 106 q 551 114 557 108 l 544 110 l 542 106 l 557 106 m 571 40 q 572 41 571 40 q 572 42 572 42 q 568 56 568 50 l 554 56 q 561 45 557 50 q 569 38 565 40 l 571 40 z "},"":{"ha":1168,"x_min":-17,"x_max":1122,"o":"m 1092 968 q 1114 960 1106 968 q 1122 939 1122 951 l 1118 774 q 1092 746 1115 747 l 765 706 l 756 593 l 986 608 l 986 472 l 992 472 l 992 608 q 1012 600 1003 608 q 1021 581 1021 592 l 1021 436 q 997 408 1021 413 l 749 368 l 742 250 l 1057 261 q 1078 253 1069 261 q 1086 233 1086 244 l 1086 58 q 1060 31 1086 32 l 531 0 q 510 8 518 0 q 501 29 501 15 q 506 156 501 76 l 301 138 l 249 26 q 224 8 243 11 l 181 6 q 183 11 182 7 q 182 19 183 15 l 181 29 q 183 42 181 36 q 192 47 185 44 q 199 61 203 53 q 197 68 197 64 q 199 71 197 71 q 203 74 203 74 l 203 93 q 174 72 178 79 q 171 69 174 69 l 165 65 q 161 47 161 60 q 164 44 161 44 l 165 42 l 165 4 l 17 -4 q -8 7 1 -6 q -12 35 -17 19 l 451 917 q 492 942 465 939 l 1092 968 m 751 938 l 754 938 l 754 942 l 751 942 l 751 938 m 842 929 q 841 927 840 928 q 844 926 842 926 q 842 929 842 926 m 868 906 q 871 911 871 908 q 863 917 871 917 q 850 911 854 917 l 846 906 q 850 911 850 908 l 857 913 q 865 906 865 911 l 865 900 q 868 906 865 903 m 1021 915 l 1018 915 l 1018 911 l 1021 911 l 1021 915 m 682 907 l 711 907 l 711 911 l 682 911 l 682 907 m 782 911 l 763 911 l 763 910 l 760 910 q 753 906 753 907 l 763 906 l 764 907 l 782 907 l 782 911 m 736 906 l 740 906 l 740 908 l 736 908 l 736 906 m 967 906 l 956 906 l 956 900 l 967 900 l 967 906 m 801 900 q 799 893 799 900 q 804 899 799 893 q 801 900 808 901 m 893 896 l 888 896 l 888 893 l 893 893 l 893 896 m 669 872 l 671 867 l 671 864 l 676 864 q 679 868 676 865 q 682 871 682 871 l 669 872 m 839 853 q 832 858 832 856 l 832 860 l 839 867 l 833 864 l 831 864 q 828 863 829 864 q 826 863 828 863 l 824 863 q 813 851 817 860 l 815 849 l 832 849 q 834 849 833 849 q 835 850 835 850 l 836 850 l 839 853 m 886 849 l 888 849 l 889 847 l 890 851 l 886 851 l 886 849 m 807 839 l 804 847 q 793 839 793 843 q 799 839 797 838 l 807 839 m 868 828 q 861 836 868 831 l 857 828 l 868 828 m 925 826 q 922 831 925 828 l 919 833 q 908 825 908 829 l 925 826 m 832 825 q 819 829 824 829 q 813 822 813 829 l 819 818 l 824 817 l 825 817 q 828 821 828 817 l 832 825 m 886 814 q 893 814 889 811 q 888 824 893 822 l 882 822 l 876 821 l 879 814 l 886 814 m 853 806 q 857 811 857 806 q 850 817 857 817 l 847 815 l 846 815 l 844 814 q 842 808 842 811 l 843 806 l 853 806 m 1004 815 l 1001 815 l 1001 808 l 1004 808 l 1004 815 m 479 801 l 482 797 q 490 800 488 797 l 485 801 l 479 801 m 453 756 q 446 749 446 753 l 453 744 l 460 746 l 460 754 q 453 756 454 754 m 850 747 l 847 747 l 847 743 l 850 743 l 850 747 m 494 717 q 489 721 490 721 q 483 717 489 717 l 483 704 l 492 708 l 499 713 l 494 717 m 401 715 q 399 711 399 713 q 401 707 399 710 l 407 706 q 413 710 413 706 q 407 715 413 713 l 401 715 m 733 700 q 731 696 731 700 l 733 696 l 735 697 q 733 700 733 697 m 485 682 l 482 679 l 485 678 l 488 679 l 485 682 m 388 674 q 382 671 382 674 q 388 667 382 667 q 399 669 392 667 l 396 672 l 394 675 l 388 674 m 518 368 q 543 650 531 538 l 404 356 l 518 368 m 464 647 q 458 650 464 650 q 461 644 458 644 l 464 647 m 728 644 q 725 642 725 642 l 732 640 q 732 647 733 642 q 728 644 731 647 m 382 643 q 390 635 386 635 l 401 633 l 399 636 q 404 643 399 640 q 399 644 403 644 l 386 644 l 382 643 m 368 621 l 381 622 q 375 629 375 628 l 369 629 q 369 627 369 628 q 368 625 368 626 l 368 621 m 729 619 l 729 618 l 735 617 l 736 618 l 729 619 m 751 601 l 744 601 l 744 594 l 751 594 l 751 601 m 429 588 q 418 596 429 596 q 412 594 414 596 q 410 589 410 592 q 413 585 410 588 l 426 585 q 427 585 426 585 q 428 586 428 586 l 429 586 l 429 588 m 394 583 l 392 582 l 394 581 l 396 583 l 394 583 m 401 567 l 407 568 l 413 569 l 419 569 q 426 567 422 567 q 429 571 429 568 l 429 574 q 413 575 417 574 l 392 576 q 391 577 392 576 q 390 578 390 578 q 388 581 390 581 l 379 578 q 369 575 371 575 l 368 572 q 379 568 371 568 q 385 567 383 568 l 401 567 m 749 576 q 743 578 744 576 l 738 579 l 736 578 q 732 572 732 576 q 743 565 732 565 q 749 567 747 565 l 749 576 m 854 568 l 856 568 l 856 569 l 854 568 m 997 550 q 1004 549 1001 550 l 1011 547 l 1017 554 l 1017 565 q 1012 568 1015 567 q 1006 569 1008 569 l 997 564 l 997 550 m 861 567 l 864 568 l 861 568 l 861 567 m 385 550 q 378 554 381 554 l 375 554 q 372 553 375 553 l 372 558 l 365 558 l 365 550 q 369 547 367 550 l 374 546 l 379 547 l 382 549 l 385 550 m 825 553 l 832 547 q 835 552 835 549 q 833 557 836 556 q 831 556 831 557 l 829 556 l 825 553 m 861 551 l 867 549 l 869 557 l 864 557 l 861 551 m 779 542 q 779 550 788 544 l 779 542 m 350 531 l 354 531 l 356 533 q 356 534 356 533 q 357 535 357 535 q 354 538 354 538 l 353 539 q 346 533 347 536 l 350 531 m 758 533 l 764 528 l 771 526 l 772 528 l 775 528 l 775 535 q 767 538 769 535 l 764 536 q 763 535 764 536 q 763 535 763 535 l 758 533 m 825 535 l 828 529 l 838 529 l 833 532 l 828 536 l 825 535 m 742 531 l 733 531 q 728 533 732 532 q 721 535 724 535 q 725 529 721 532 q 738 526 728 526 l 742 526 l 742 531 m 822 514 l 833 514 q 836 518 836 515 l 836 524 l 825 524 l 824 518 l 822 514 m 342 488 l 336 489 q 332 492 332 489 l 326 492 l 326 481 l 335 482 q 342 483 340 482 l 342 488 m 367 481 q 356 479 361 483 q 365 475 361 479 l 367 478 l 367 481 m 321 474 q 329 471 324 471 l 332 476 l 331 478 q 326 479 331 479 q 324 478 324 479 q 321 476 321 478 l 321 474 m 989 435 l 994 442 l 997 447 l 994 457 q 989 469 993 458 l 989 435 m 358 463 q 353 458 353 463 q 356 457 353 457 l 357 454 l 360 457 l 360 460 l 358 463 m 669 460 q 667 458 667 460 q 667 456 667 457 q 669 457 668 456 l 674 458 l 671 460 l 669 460 m 646 439 q 642 431 642 435 l 650 432 q 660 435 657 432 q 654 438 657 435 l 653 439 l 646 439 m 650 419 q 657 424 653 426 q 669 425 665 424 q 650 428 663 425 l 646 425 l 650 419 m 610 425 q 606 419 606 424 l 610 417 l 615 418 q 619 422 615 421 l 615 424 l 610 425 m 933 413 l 950 413 l 950 417 l 933 417 l 933 413 m 669 396 l 668 400 q 676 414 668 403 l 671 415 l 665 415 q 657 413 661 415 l 646 408 q 653 406 650 407 q 658 403 657 404 q 657 393 656 396 l 669 396 m 631 403 q 638 403 635 400 l 636 404 l 633 406 l 631 404 l 631 403 m 675 404 q 678 399 676 400 q 685 397 681 397 q 694 400 686 397 l 690 404 l 675 404 m 633 400 q 629 393 625 396 l 631 388 q 639 390 636 388 q 633 400 639 396 m 285 385 q 288 381 285 381 q 290 376 290 378 l 299 378 l 301 379 q 292 392 301 388 q 285 390 290 390 l 285 385 m 678 369 q 696 375 683 369 l 696 386 l 689 386 q 685 383 685 386 q 682 381 685 381 q 678 389 682 388 l 669 389 q 672 386 669 386 l 676 382 l 667 378 l 660 372 q 663 371 661 371 q 667 369 665 371 l 675 369 l 678 369 m 646 381 q 639 376 642 381 q 636 367 636 371 l 636 360 q 649 354 643 354 l 653 354 l 657 357 l 657 375 l 651 379 l 646 381 m 624 374 q 619 372 622 374 q 617 368 617 369 q 626 368 622 367 l 624 374 m 689 361 q 692 365 692 361 l 683 365 l 681 361 l 689 361 m 613 360 q 606 354 606 358 l 613 354 q 613 360 614 356 m 676 351 q 685 350 679 350 q 679 357 685 354 l 676 351 m 331 344 q 342 350 336 344 q 339 351 339 350 l 336 354 l 326 353 l 326 344 l 331 344 m 643 342 l 646 347 q 643 351 643 350 l 636 351 q 631 343 631 346 l 643 342 m 213 339 q 215 343 215 342 q 213 347 215 347 q 211 350 211 347 q 207 347 208 347 q 201 344 200 344 l 201 340 l 207 338 l 211 336 l 213 339 m 660 340 l 658 349 q 651 343 651 349 l 651 338 l 660 340 m 686 338 q 683 340 686 340 l 681 343 q 668 342 678 342 l 663 340 l 660 339 l 667 333 q 676 336 675 336 l 686 338 m 307 332 l 303 333 l 301 331 l 307 331 l 307 332 m 265 329 q 269 325 265 329 q 274 322 274 325 q 281 328 281 326 l 274 329 l 265 329 m 668 326 l 657 329 l 657 324 l 664 324 l 668 326 m 646 321 q 654 324 651 321 q 643 326 649 326 l 646 321 m 650 310 q 653 314 653 310 l 638 315 q 635 311 638 314 l 650 310 m 624 306 q 632 301 626 301 l 626 313 l 617 311 l 624 306 m 647 293 q 646 300 644 299 q 646 306 647 304 l 642 301 q 640 299 640 301 l 640 293 l 647 293 m 675 296 q 682 301 682 296 l 675 301 l 675 296 m 601 300 q 597 296 597 299 l 606 293 q 607 297 606 296 l 608 299 l 601 300 m 640 290 l 640 285 l 644 285 l 644 290 l 640 290 m 650 282 l 660 285 q 658 288 658 285 l 658 289 q 654 288 656 289 q 651 288 653 288 l 647 288 q 649 285 647 285 l 650 282 m 361 279 q 364 286 364 282 l 353 286 l 351 281 l 356 279 l 361 279 m 306 275 l 299 278 q 292 281 294 278 q 289 274 289 278 q 297 275 294 274 l 306 275 m 669 275 l 661 275 l 661 269 l 669 269 l 669 275 m 590 267 q 592 258 588 263 q 599 267 599 261 l 590 267 m 622 256 q 626 257 625 256 l 625 264 l 622 264 q 622 263 622 264 q 621 263 621 263 l 618 263 l 618 257 l 619 257 l 622 256 m 214 243 q 210 247 214 246 l 213 247 q 199 247 204 251 l 199 240 l 204 240 q 211 239 206 239 l 213 240 l 214 243 m 597 236 q 598 238 597 238 q 600 240 599 239 l 596 243 l 589 240 l 590 235 q 597 236 596 235 m 624 236 l 629 235 l 631 238 l 624 238 l 624 236 m 426 235 q 419 235 422 239 l 421 235 l 422 233 l 426 235 m 422 224 q 422 228 425 226 q 419 226 421 228 q 417 224 417 225 l 422 224 m 615 222 q 615 226 615 222 q 608 221 611 226 q 615 218 611 218 l 615 222 m 290 219 l 286 225 l 281 225 q 261 219 276 225 q 269 217 267 217 l 279 218 l 290 219 m 319 225 l 308 225 q 315 224 311 222 l 319 225 m 125 210 q 122 222 122 217 l 36 60 q 42 61 38 61 q 46 61 46 60 q 57 75 54 69 l 63 89 q 73 110 67 96 q 88 140 79 125 l 96 156 l 100 164 q 110 176 110 176 q 113 182 110 179 l 122 197 l 125 210 m 788 213 l 799 213 l 799 215 l 788 215 l 788 213 m 843 211 q 836 207 838 207 q 840 201 840 206 l 847 201 q 850 206 850 204 l 851 208 l 849 215 q 847 213 849 214 q 843 211 846 211 m 922 206 l 925 206 l 926 208 l 925 210 l 922 206 m 804 208 l 796 208 l 796 206 l 804 206 l 804 208 m 868 197 l 874 199 q 872 200 874 200 q 869 203 872 200 l 868 197 m 788 194 l 790 192 q 793 197 797 194 q 790 196 790 197 l 788 196 l 788 194 m 836 192 q 829 194 833 194 l 832 185 q 833 185 832 185 q 833 186 833 186 q 835 189 835 186 q 836 192 836 189 m 863 189 q 856 182 856 186 l 863 182 q 864 186 863 185 l 863 189 m 211 169 l 204 168 l 204 163 q 207 163 206 163 q 211 164 208 164 l 211 169 m 665 168 l 665 160 q 668 163 665 160 l 674 168 l 665 168 m 693 168 q 700 164 693 164 l 700 167 q 701 168 700 168 l 693 168 m 765 164 l 768 158 l 771 158 l 767 164 l 765 164 m 899 160 q 906 153 899 153 l 908 157 l 910 160 l 899 160 m 850 157 l 847 157 l 846 153 l 850 153 l 850 157 m 806 149 q 806 149 806 149 q 807 150 807 150 l 804 153 l 801 153 l 804 147 q 805 148 804 147 q 806 149 806 149 m 685 133 l 674 133 l 674 126 l 685 126 l 685 133 m 557 103 q 561 111 557 110 l 543 111 l 543 103 l 557 103 m 1007 106 l 1024 103 l 1024 107 l 1010 111 l 1007 106 m 647 108 l 632 108 l 632 103 l 647 103 l 647 108 m 739 103 l 739 96 l 750 96 l 750 103 l 739 103 m 815 97 q 814 86 814 94 l 815 79 l 835 79 l 838 85 q 839 90 839 86 l 832 97 l 815 97 m 601 90 l 617 90 l 617 96 l 601 96 l 601 90 m 663 61 q 669 69 667 63 q 672 82 672 75 q 668 94 672 90 q 657 90 665 94 q 663 61 663 78 m 524 81 q 531 77 525 76 q 540 81 538 78 l 524 81 m 582 75 l 579 75 l 579 81 l 567 81 l 567 75 l 579 75 l 579 69 l 582 69 l 582 75 m 726 72 q 711 71 715 72 l 703 68 l 696 67 q 701 62 699 65 q 706 56 704 58 q 719 67 713 60 l 726 72 m 632 60 q 635 68 635 64 l 611 68 l 611 56 q 631 53 622 56 l 632 60 m 886 61 l 896 61 l 896 64 l 886 64 l 886 61 m 1007 43 q 1004 39 1007 39 q 1013 43 1008 39 l 1007 43 m 615 40 l 604 40 l 604 35 l 615 35 l 615 40 z "},"B":{"ha":750,"x_min":-14,"x_max":690,"o":"m 611 515 q 678 631 660 567 l 679 632 l 679 633 q 690 729 690 682 q 667 836 690 794 q 514 946 619 921 q 440 953 485 953 q 347 946 396 953 l 81 915 q 56 890 58 914 l -14 31 q -6 8 -14 17 q 14 0 3 0 l 333 0 q 504 28 439 0 q 619 128 576 56 q 663 281 663 200 q 642 394 663 350 q 575 478 621 439 l 611 515 m 579 856 l 576 850 l 574 850 l 575 856 l 579 856 m 376 828 l 369 831 q 361 833 364 833 l 367 838 l 374 842 l 383 833 l 383 831 l 381 828 l 376 828 m 378 785 q 374 783 376 783 l 372 786 q 371 790 371 788 l 372 797 l 381 807 q 379 803 381 804 l 378 800 q 378 793 375 797 q 381 786 381 790 l 378 785 m 414 788 l 417 788 l 417 782 l 414 782 l 414 788 m 483 757 l 486 763 l 489 763 l 486 756 l 483 757 m 297 715 q 381 725 353 725 q 414 715 400 725 q 424 689 424 710 q 419 656 424 676 q 386 611 411 625 q 250 567 342 585 l 263 711 l 297 715 m 500 663 q 497 656 500 658 l 494 657 q 500 663 494 660 m 246 647 q 238 636 246 640 l 240 631 l 244 626 q 245 626 244 626 q 246 625 246 625 l 243 619 l 235 619 q 231 624 231 619 l 228 629 q 233 638 236 635 l 229 638 l 228 639 l 226 639 q 229 642 226 642 l 232 642 l 231 644 q 230 646 231 644 q 228 647 229 647 l 228 651 q 229 653 228 653 l 229 656 l 232 656 l 236 658 q 239 656 239 656 l 244 650 l 246 647 m 625 606 q 621 603 622 603 q 618 601 618 603 q 615 603 617 601 q 613 607 613 604 q 618 611 613 611 l 621 611 l 625 610 l 625 606 m 235 601 q 240 597 236 600 l 242 592 l 226 592 l 229 597 l 232 599 l 235 601 m 422 589 q 425 599 425 592 l 438 599 l 438 594 l 439 592 l 439 589 l 422 589 m 403 589 q 408 585 403 585 q 389 585 397 578 l 397 586 q 403 590 401 589 q 403 589 406 592 m 236 585 q 238 583 236 583 l 238 582 l 229 578 q 218 588 224 579 l 229 589 l 232 588 l 235 588 l 236 586 l 236 585 m 431 582 q 431 581 431 582 q 432 581 432 581 l 432 578 l 426 578 q 419 579 422 578 q 423 583 419 581 q 431 585 426 585 l 431 582 m 456 557 q 447 553 451 553 q 439 550 444 553 q 438 554 439 553 l 435 556 l 432 558 l 435 561 l 439 567 q 447 575 446 571 l 456 557 m 367 569 l 367 574 l 378 572 l 378 567 l 367 569 m 172 557 q 167 558 171 558 l 164 560 l 156 563 q 167 571 156 567 l 172 567 l 172 557 m 372 565 q 372 556 378 561 l 369 556 l 367 557 q 366 558 367 557 q 365 558 365 558 l 367 561 l 369 564 l 372 565 m 143 553 q 136 554 139 553 l 139 563 q 142 562 140 563 q 144 561 143 561 l 150 561 l 150 553 l 143 553 m 214 554 q 216 556 214 556 q 219 558 218 557 l 219 553 q 218 546 219 549 l 211 550 q 214 554 211 551 m 560 551 q 565 554 561 553 q 574 556 569 556 l 579 556 l 583 554 l 578 549 l 560 551 m 554 549 l 551 547 l 550 551 l 553 551 l 554 549 m 438 536 l 438 544 l 444 544 l 444 536 l 438 536 m 422 536 q 432 525 432 532 l 419 525 q 422 536 422 531 m 567 533 l 561 531 l 561 533 l 565 535 l 567 533 m 365 485 q 358 486 363 482 l 357 490 q 363 496 357 496 q 369 494 367 496 l 369 485 l 365 485 m 460 475 l 460 481 q 461 482 461 481 l 469 482 l 467 475 l 460 475 m 375 376 q 365 383 368 376 q 374 382 371 383 q 375 376 375 381 m 294 367 l 296 368 q 347 375 326 375 q 371 371 363 375 q 396 326 396 356 q 386 290 396 308 q 363 261 376 272 q 309 231 338 242 q 236 217 281 221 l 242 356 l 294 367 m 435 375 l 438 375 l 438 368 l 435 368 l 435 375 m 129 353 q 125 346 129 349 l 125 358 q 129 353 129 354 m 132 335 q 131 334 132 335 q 131 333 131 333 q 125 324 124 329 q 126 321 126 322 q 125 318 125 319 q 119 319 124 319 l 119 324 q 125 332 125 328 q 129 339 121 336 l 131 339 l 131 336 q 132 335 132 336 m 129 304 q 127 295 129 301 q 122 286 125 289 q 126 282 122 286 q 127 281 126 282 q 128 281 128 281 l 125 279 q 119 281 124 281 l 119 297 q 119 313 117 306 l 125 313 q 128 308 125 311 l 129 304 m 182 306 q 183 303 183 304 q 182 300 182 301 l 181 303 q 179 307 181 306 q 182 311 179 310 l 182 306 m 125 256 q 124 258 125 257 q 122 258 122 258 q 120 260 121 258 q 119 261 119 261 l 125 261 l 125 256 m 126 197 q 125 186 125 194 q 118 183 119 186 q 122 181 121 181 q 125 178 125 181 q 124 176 124 178 l 122 175 l 117 181 q 113 185 113 183 l 114 190 l 115 194 l 119 194 l 124 196 q 117 199 121 199 q 114 228 114 213 q 119 231 114 231 q 124 236 124 233 l 124 240 q 125 246 124 244 l 126 222 q 119 218 122 222 q 124 215 121 217 q 127 210 126 213 q 128 206 128 208 l 126 197 m 363 206 q 354 203 360 203 l 350 207 l 356 210 l 361 213 l 363 206 m 114 168 l 114 172 l 115 174 l 119 174 l 125 172 l 125 164 l 121 164 l 114 168 m 176 76 q 176 77 176 76 q 175 78 175 78 l 175 81 q 178 90 175 85 q 183 97 181 94 l 183 103 l 182 108 l 183 110 q 185 111 183 111 q 186 131 181 122 q 192 157 192 142 l 194 165 q 200 174 197 171 l 200 76 l 176 76 m 118 142 l 115 142 l 115 147 l 118 147 l 118 142 m 118 129 l 115 129 l 115 133 l 118 133 l 118 129 m 117 104 q 107 104 111 103 l 107 110 l 117 110 l 117 104 m 169 86 q 167 81 169 83 q 164 75 164 78 q 165 69 165 74 q 160 58 165 64 l 157 57 l 156 57 q 154 65 154 58 q 157 74 154 74 q 165 88 160 74 q 167 86 167 88 l 169 86 z "},"C":{"ha":750,"x_min":-14,"x_max":685,"o":"m 650 849 q 685 714 685 788 l 683 690 q 665 579 683 643 q 639 558 661 558 l 446 558 q 426 567 433 558 q 418 586 418 575 q 419 596 418 593 l 440 675 q 449 736 449 719 q 444 760 449 750 q 418 776 435 776 q 333 715 371 776 q 273 564 294 653 q 251 399 251 475 q 267 273 251 329 q 329 208 283 217 q 426 249 379 201 q 446 271 429 251 l 463 294 q 518 383 488 331 q 542 396 526 396 q 563 388 554 396 l 646 300 q 653 282 653 293 q 650 268 653 272 q 540 108 590 157 q 300 0 432 0 q 204 14 251 0 q 46 147 106 40 q -14 399 -14 253 q 164 867 -14 674 q 408 971 257 971 q 454 968 424 971 q 568 932 518 961 q 650 849 618 903 m 467 953 q 461 946 461 949 q 472 940 469 940 q 482 943 474 940 q 494 944 488 944 l 489 949 q 478 950 485 950 l 467 953 m 478 919 q 481 926 475 925 q 494 928 485 928 q 500 935 496 929 l 508 938 q 517 943 514 940 q 508 946 514 946 q 501 947 503 946 q 500 943 499 944 q 500 938 501 939 q 492 932 493 935 q 485 929 489 929 q 478 928 479 929 q 474 928 475 928 q 471 929 472 929 q 471 933 469 932 q 468 938 471 935 q 454 931 460 936 q 458 924 461 928 l 476 915 l 476 918 q 478 919 476 919 m 319 932 q 319 933 319 932 q 318 935 318 933 l 318 938 l 297 938 q 307 935 304 938 q 310 932 310 935 l 310 931 l 314 929 q 318 931 318 929 l 319 932 m 351 932 l 357 938 l 344 938 l 344 932 l 351 932 m 528 929 l 528 926 l 535 926 l 535 929 l 528 929 m 363 915 l 368 919 q 363 926 363 921 l 354 926 q 351 924 351 926 q 357 918 351 921 l 363 915 m 447 914 q 454 910 454 913 l 456 914 q 456 919 458 917 q 447 914 453 919 m 360 907 q 357 911 357 910 l 351 911 q 346 907 347 907 q 349 906 347 907 q 353 906 350 906 q 360 904 356 904 l 360 907 m 344 875 l 343 872 l 346 871 l 349 872 l 344 875 m 463 840 q 465 846 465 843 q 463 844 463 846 l 463 840 m 446 828 l 446 810 l 457 811 l 457 828 l 446 828 m 375 808 l 371 800 l 367 793 l 375 793 q 378 797 376 794 q 379 800 379 799 l 383 808 l 375 808 m 521 774 q 510 779 521 779 l 508 764 l 514 760 l 518 767 q 521 774 521 769 m 560 758 l 560 761 l 561 763 q 563 764 561 764 l 563 767 l 547 767 l 544 761 l 560 758 m 542 738 q 553 726 542 726 l 560 729 q 565 731 564 731 q 567 732 567 732 l 572 733 l 572 740 q 568 744 568 744 l 563 747 q 554 750 557 750 q 547 745 550 750 q 542 738 543 740 m 254 744 l 251 746 q 249 743 249 746 l 256 743 l 254 744 m 526 728 q 514 740 528 732 l 515 739 q 509 733 513 733 q 504 732 506 732 q 499 731 503 731 l 493 729 l 493 724 q 501 721 497 721 q 508 719 504 719 l 518 722 l 526 728 m 572 718 l 564 715 q 556 719 560 715 l 554 721 l 550 721 q 544 707 544 714 l 553 703 q 563 699 561 700 l 568 703 q 564 710 568 708 l 567 711 l 567 713 l 571 713 q 572 715 571 714 q 574 715 574 715 l 576 718 l 572 718 m 203 711 l 203 707 l 207 707 l 207 711 l 203 711 m 176 676 q 174 685 174 682 q 163 701 174 696 q 158 710 157 704 q 150 700 150 704 q 157 696 150 699 q 167 694 160 694 q 160 685 165 690 l 156 676 q 158 671 156 671 l 160 671 q 163 672 160 672 q 168 671 167 672 q 171 668 168 671 q 174 672 171 671 l 176 676 m 194 696 q 192 700 194 697 l 188 703 l 185 701 q 182 699 185 699 l 194 696 m 201 699 q 202 698 201 699 q 203 697 203 697 l 201 699 m 121 676 q 129 672 125 672 l 132 676 q 121 682 126 682 l 121 676 m 99 665 q 106 663 101 663 l 113 663 l 99 665 m 122 660 q 140 657 135 660 q 144 665 144 660 l 122 665 l 122 660 m 164 657 l 164 654 l 171 654 l 171 657 l 164 657 m 285 653 l 285 649 l 288 649 l 288 653 l 285 653 m 581 646 l 579 646 l 581 643 l 583 644 l 581 646 m 115 636 q 113 639 113 638 l 103 639 l 103 636 q 111 625 103 629 q 117 632 117 629 q 115 636 117 636 m 158 615 q 135 631 139 631 l 128 631 q 132 624 132 629 q 131 619 132 619 l 128 619 l 126 621 l 124 621 l 121 619 q 119 618 119 619 q 118 617 118 617 l 121 615 q 122 613 121 614 q 122 613 122 613 q 133 615 128 613 q 143 619 140 619 l 149 617 q 153 615 149 615 l 158 615 m 100 611 q 93 618 100 615 q 96 613 93 615 q 100 611 99 611 m 74 617 l 74 614 l 81 614 l 81 617 l 74 617 m 168 599 q 164 613 168 604 q 160 601 160 604 q 163 593 160 599 l 167 593 l 168 599 m 146 606 l 146 603 l 157 601 l 157 604 l 146 606 m 111 578 q 118 579 115 578 l 122 579 l 122 588 q 117 590 117 588 l 114 583 l 111 578 m 72 574 q 81 582 81 578 l 78 582 l 76 583 q 67 576 67 581 l 72 574 m 122 574 l 121 568 l 128 568 l 129 574 l 122 574 m 100 556 l 101 557 q 103 560 103 557 l 101 563 l 93 563 l 93 556 l 100 556 m 107 531 q 99 532 104 532 l 90 532 l 92 529 l 93 525 q 113 521 101 525 l 113 528 l 107 531 m 111 518 q 107 513 107 518 l 108 510 q 111 507 110 510 l 111 518 m 164 482 q 165 500 165 488 q 164 510 165 507 q 160 499 160 506 q 163 490 160 493 l 164 482 m -3 435 l -3 431 l -4 426 q -3 421 -4 422 l 0 417 q 7 424 7 421 l 7 435 l -3 435 m 540 367 q 544 357 539 363 q 547 361 544 358 q 549 365 549 363 l 542 369 q 540 369 540 368 l 540 367 m 42 258 l 38 261 l 28 261 l 21 258 l 21 253 l 24 251 l 28 250 q 32 251 29 251 l 42 258 m 138 243 l 138 232 l 140 232 l 140 243 l 138 243 m 422 43 l 431 60 l 426 63 l 418 44 l 422 43 m 272 39 q 264 32 264 35 l 275 32 l 274 36 l 272 39 z "},"":{"ha":750,"x_min":-14,"x_max":685,"o":"m 300 1042 q 280 1049 289 1042 q 271 1067 271 1057 q 274 1078 271 1074 l 382 1249 q 410 1269 393 1269 l 629 1276 q 647 1269 639 1276 q 656 1251 656 1261 q 647 1233 656 1242 l 481 1065 q 461 1049 469 1054 q 440 1044 453 1044 l 300 1042 m 433 1228 q 434 1224 433 1226 q 433 1218 435 1222 q 435 1210 435 1215 q 454 1197 444 1197 q 453 1200 454 1199 q 450 1201 451 1201 q 444 1215 447 1206 l 446 1224 l 433 1228 m 475 1219 l 476 1226 l 471 1228 l 469 1221 l 475 1219 m 511 1221 l 513 1224 l 508 1224 l 507 1221 l 511 1221 m 560 1215 l 561 1218 l 554 1219 l 553 1217 l 560 1215 m 418 1206 l 425 1206 q 417 1211 419 1211 l 415 1211 l 418 1206 m 501 1196 l 503 1201 l 499 1203 l 497 1197 l 501 1196 m 467 1183 q 464 1179 464 1182 q 467 1178 465 1179 q 471 1176 468 1176 l 475 1178 l 476 1181 l 468 1185 q 467 1184 468 1185 q 467 1183 467 1183 m 390 1154 q 381 1149 386 1150 q 383 1142 381 1144 l 396 1139 q 410 1144 407 1143 q 414 1147 414 1144 l 414 1150 q 412 1160 414 1154 q 408 1174 410 1167 l 397 1176 l 389 1178 l 383 1178 q 392 1169 386 1169 q 403 1157 397 1167 q 390 1154 392 1157 m 488 1178 q 485 1175 483 1178 l 488 1178 m 481 1160 l 482 1163 l 481 1165 l 478 1160 l 481 1160 m 435 1164 q 425 1151 429 1160 l 429 1150 l 431 1147 l 433 1147 l 435 1164 m 471 1153 q 463 1154 465 1153 q 460 1156 461 1154 q 454 1157 458 1157 q 447 1157 451 1158 q 443 1153 443 1156 l 463 1149 q 474 1146 467 1146 l 471 1153 m 443 1144 q 444 1142 443 1143 q 443 1139 444 1140 l 444 1136 l 454 1133 l 456 1139 l 450 1146 l 449 1144 l 446 1143 l 443 1144 m 432 1128 q 436 1125 433 1125 q 444 1131 442 1125 q 438 1135 438 1133 l 435 1135 q 431 1136 433 1136 l 428 1129 l 432 1128 m 404 1124 q 382 1128 396 1132 q 392 1119 389 1121 q 403 1117 403 1117 l 404 1124 m 488 1119 l 486 1117 l 497 1114 l 499 1117 l 488 1119 m 450 1092 q 457 1099 454 1092 l 453 1099 q 449 1100 451 1100 q 451 1110 457 1103 l 440 1113 l 439 1108 l 438 1108 q 450 1092 438 1096 m 392 1108 q 397 1107 393 1108 q 400 1107 400 1106 q 396 1109 399 1108 q 392 1108 393 1110 m 418 1104 q 415 1108 417 1108 l 411 1106 q 418 1101 411 1104 q 418 1104 419 1103 m 396 1100 q 390 1101 393 1101 q 388 1097 388 1100 l 396 1100 m 342 1090 q 343 1085 340 1089 q 347 1082 346 1085 l 349 1088 l 342 1090 m 650 849 q 685 714 685 788 l 683 690 q 665 579 683 643 q 639 558 661 558 l 446 558 q 426 567 433 558 q 418 586 418 575 q 419 596 418 593 l 440 675 q 449 736 449 719 q 444 760 449 750 q 418 776 435 776 q 333 715 371 776 q 273 564 294 653 q 251 399 251 475 q 267 273 251 329 q 329 208 283 217 q 426 249 379 201 q 446 271 429 251 l 463 294 q 518 383 488 331 q 542 396 526 396 q 563 388 554 396 l 646 300 q 653 282 653 293 q 650 268 653 272 q 540 108 590 157 q 300 0 432 0 q 204 14 251 0 q 46 147 106 40 q -14 399 -14 253 q 164 867 -14 674 q 408 971 257 971 q 454 968 424 971 q 568 932 518 961 q 650 849 618 903 m 467 953 q 461 946 461 949 q 472 940 469 940 q 482 943 474 940 q 494 944 488 944 l 489 949 q 478 950 485 950 l 467 953 m 478 919 q 481 926 475 925 q 494 928 485 928 q 500 935 496 929 l 508 938 q 517 943 514 940 q 508 946 514 946 q 501 947 503 946 q 500 943 499 944 q 500 938 501 939 q 492 932 493 935 q 485 929 489 929 q 478 928 479 929 q 474 928 475 928 q 471 929 472 929 q 471 933 469 932 q 468 938 471 935 q 454 931 460 936 q 458 924 461 928 l 476 915 l 476 918 q 478 919 476 919 m 319 932 q 319 933 319 932 q 318 935 318 933 l 318 938 l 297 938 q 307 935 304 938 q 310 932 310 935 l 310 931 l 314 929 q 318 931 318 929 l 319 932 m 351 932 l 357 938 l 344 938 l 344 932 l 351 932 m 528 929 l 528 926 l 535 926 l 535 929 l 528 929 m 363 915 l 368 919 q 363 926 363 921 l 354 926 q 351 924 351 926 q 357 918 351 921 l 363 915 m 447 914 q 454 910 454 913 l 456 914 q 456 919 458 917 q 447 914 453 919 m 360 907 q 357 911 357 910 l 351 911 q 346 907 347 907 q 349 906 347 907 q 353 906 350 906 q 360 904 356 904 l 360 907 m 344 875 l 343 872 l 346 871 l 349 872 l 344 875 m 463 840 q 465 846 465 843 q 463 844 463 846 l 463 840 m 446 828 l 446 810 l 457 811 l 457 828 l 446 828 m 375 808 l 371 800 l 367 793 l 375 793 q 378 797 376 794 q 379 800 379 799 l 383 808 l 375 808 m 521 774 q 510 779 521 779 l 508 764 l 514 760 l 518 767 q 521 774 521 769 m 560 758 l 560 761 l 561 763 q 563 764 561 764 l 563 767 l 547 767 l 544 761 l 560 758 m 542 738 q 553 726 542 726 l 560 729 q 565 731 564 731 q 567 732 567 732 l 572 733 l 572 740 q 568 744 568 744 l 563 747 q 554 750 557 750 q 547 745 550 750 q 542 738 543 740 m 254 744 l 251 746 q 249 743 249 746 l 256 743 l 254 744 m 526 728 q 514 740 528 732 l 515 739 q 509 733 513 733 q 504 732 506 732 q 499 731 503 731 l 493 729 l 493 724 q 501 721 497 721 q 508 719 504 719 l 518 722 l 526 728 m 572 718 l 564 715 q 556 719 560 715 l 554 721 l 550 721 q 544 707 544 714 l 553 703 q 563 699 561 700 l 568 703 q 564 710 568 708 l 567 711 l 567 713 l 571 713 q 572 715 571 714 q 574 715 574 715 l 576 718 l 572 718 m 203 711 l 203 707 l 207 707 l 207 711 l 203 711 m 176 676 q 174 685 174 682 q 163 701 174 696 q 158 710 157 704 q 150 700 150 704 q 157 696 150 699 q 167 694 160 694 q 160 685 165 690 l 156 676 q 158 671 156 671 l 160 671 q 163 672 160 672 q 168 671 167 672 q 171 668 168 671 q 174 672 171 671 l 176 676 m 194 696 q 192 700 194 697 l 188 703 l 185 701 q 182 699 185 699 l 194 696 m 201 699 q 202 698 201 699 q 203 697 203 697 l 201 699 m 121 676 q 129 672 125 672 l 132 676 q 121 682 126 682 l 121 676 m 99 665 q 106 663 101 663 l 113 663 l 99 665 m 122 660 q 140 657 135 660 q 144 665 144 660 l 122 665 l 122 660 m 164 657 l 164 654 l 171 654 l 171 657 l 164 657 m 285 653 l 285 649 l 288 649 l 288 653 l 285 653 m 581 646 l 579 646 l 581 643 l 583 644 l 581 646 m 115 636 q 113 639 113 638 l 103 639 l 103 636 q 111 625 103 629 q 117 632 117 629 q 115 636 117 636 m 158 615 q 135 631 139 631 l 128 631 q 132 624 132 629 q 131 619 132 619 l 128 619 l 126 621 l 124 621 l 121 619 q 119 618 119 619 q 118 617 118 617 l 121 615 q 122 613 121 614 q 122 613 122 613 q 133 615 128 613 q 143 619 140 619 l 149 617 q 153 615 149 615 l 158 615 m 100 611 q 93 618 100 615 q 96 613 93 615 q 100 611 99 611 m 74 617 l 74 614 l 81 614 l 81 617 l 74 617 m 168 599 q 164 613 168 604 q 160 601 160 604 q 163 593 160 599 l 167 593 l 168 599 m 146 606 l 146 603 l 157 601 l 157 604 l 146 606 m 111 578 q 118 579 115 578 l 122 579 l 122 588 q 117 590 117 588 l 114 583 l 111 578 m 72 574 q 81 582 81 578 l 78 582 l 76 583 q 67 576 67 581 l 72 574 m 122 574 l 121 568 l 128 568 l 129 574 l 122 574 m 100 556 l 101 557 q 103 560 103 557 l 101 563 l 93 563 l 93 556 l 100 556 m 107 531 q 99 532 104 532 l 90 532 l 92 529 l 93 525 q 113 521 101 525 l 113 528 l 107 531 m 111 518 q 107 513 107 518 l 108 510 q 111 507 110 510 l 111 518 m 164 482 q 165 500 165 488 q 164 510 165 507 q 160 499 160 506 q 163 490 160 493 l 164 482 m -3 435 l -3 431 l -4 426 q -3 421 -4 422 l 0 417 q 7 424 7 421 l 7 435 l -3 435 m 540 367 q 544 357 539 363 q 547 361 544 358 q 549 365 549 363 l 542 369 q 540 369 540 368 l 540 367 m 42 258 l 38 261 l 28 261 l 21 258 l 21 253 l 24 251 l 28 250 q 32 251 29 251 l 42 258 m 138 243 l 138 232 l 140 232 l 140 243 l 138 243 m 422 43 l 431 60 l 426 63 l 418 44 l 422 43 m 272 39 q 264 32 264 35 l 275 32 l 274 36 l 272 39 z "},"":{"ha":750,"x_min":-14,"x_max":710,"o":"m 683 1285 q 701 1278 693 1286 q 710 1261 710 1271 q 701 1242 710 1253 l 549 1064 q 508 1042 531 1042 l 354 1038 q 314 1058 328 1038 l 190 1236 q 185 1254 185 1243 q 192 1271 185 1264 q 210 1278 200 1278 l 381 1279 q 407 1257 396 1279 l 442 1182 l 486 1257 q 514 1278 497 1278 l 683 1285 m 365 1229 q 368 1239 368 1233 q 361 1239 365 1240 l 365 1229 m 568 1228 q 558 1236 568 1232 q 565 1222 561 1225 l 568 1228 m 550 1231 l 540 1231 l 540 1222 l 550 1222 l 550 1231 m 515 1215 q 524 1209 521 1208 q 529 1215 528 1210 l 515 1215 m 574 1211 q 583 1200 576 1210 q 590 1190 589 1190 q 593 1211 594 1190 l 574 1211 m 307 1200 l 304 1197 l 311 1193 l 314 1196 l 307 1200 m 543 1200 l 543 1194 l 557 1194 l 557 1200 l 543 1200 m 500 1186 q 492 1192 500 1189 q 483 1193 485 1194 l 483 1186 l 500 1186 m 339 1192 q 333 1188 336 1190 q 328 1183 329 1185 l 328 1178 q 344 1186 336 1178 l 339 1192 m 492 1163 q 496 1167 496 1165 q 483 1174 496 1172 l 483 1165 l 492 1163 m 346 1146 q 357 1142 354 1142 l 360 1143 l 340 1158 l 344 1168 l 333 1169 l 331 1164 l 339 1157 l 340 1158 l 340 1154 l 343 1149 l 346 1146 m 500 1167 l 500 1161 l 510 1161 l 510 1167 l 500 1167 m 561 1161 l 563 1140 l 576 1150 l 576 1167 l 561 1161 m 331 1151 q 339 1142 331 1144 q 335 1148 338 1146 q 331 1151 332 1150 m 374 1147 q 369 1136 369 1139 l 374 1135 q 376 1135 375 1135 q 376 1133 376 1135 q 374 1147 376 1140 m 360 1142 l 357 1139 l 361 1133 l 367 1133 l 360 1142 m 493 1142 q 486 1132 486 1138 l 500 1132 l 493 1142 m 372 1119 q 385 1117 375 1117 q 375 1131 383 1124 q 371 1128 371 1131 q 371 1124 369 1128 q 372 1119 372 1121 m 528 1129 l 528 1118 l 536 1118 l 536 1129 l 528 1129 m 464 1128 l 464 1118 l 475 1118 l 475 1128 l 464 1128 m 454 968 q 568 932 518 961 q 650 849 618 903 q 685 714 685 788 l 683 690 q 665 579 683 643 q 639 558 661 558 l 446 558 q 426 567 433 558 q 418 586 418 575 q 419 596 418 593 l 440 675 q 449 736 449 719 q 444 760 449 750 q 418 776 435 776 q 333 715 371 776 q 273 564 294 653 q 251 399 251 475 q 267 273 251 329 q 329 208 283 217 q 426 249 379 201 q 446 271 429 251 l 463 294 q 518 383 488 331 q 542 396 526 396 q 563 388 554 396 l 646 300 q 653 282 653 293 q 650 268 653 272 q 540 108 590 157 q 300 0 432 0 q 204 14 251 0 q 46 147 106 40 q -14 399 -14 253 q 164 867 -14 674 q 408 971 257 971 q 454 968 424 971 m 467 953 q 461 946 461 949 q 472 940 469 940 q 482 943 474 940 q 494 944 488 944 l 489 949 q 478 950 485 950 l 467 953 m 478 919 q 481 926 475 925 q 494 928 485 928 q 500 935 496 929 l 508 938 q 517 943 514 940 q 508 946 514 946 q 501 947 503 946 q 500 943 499 944 q 500 938 501 939 q 492 932 493 935 q 485 929 489 929 q 478 928 479 929 q 474 928 475 928 q 471 929 472 929 q 471 933 469 932 q 468 938 471 935 q 454 931 460 936 q 458 924 461 928 l 476 915 l 476 918 q 478 919 476 919 m 319 932 q 319 933 319 932 q 318 935 318 933 l 318 938 l 297 938 q 307 935 304 938 q 310 932 310 935 l 310 931 l 314 929 q 318 931 318 929 l 319 932 m 351 932 l 357 938 l 344 938 l 344 932 l 351 932 m 528 929 l 528 926 l 535 926 l 535 929 l 528 929 m 363 915 l 368 919 q 363 926 363 921 l 354 926 q 351 924 351 926 q 357 918 351 921 l 363 915 m 447 914 q 454 910 454 913 l 456 914 q 456 919 458 917 q 447 914 453 919 m 360 907 q 357 911 357 910 l 351 911 q 346 907 347 907 q 349 906 347 907 q 353 906 350 906 q 360 904 356 904 l 360 907 m 344 875 l 343 872 l 346 871 l 349 872 l 344 875 m 463 840 q 465 846 465 843 q 463 844 463 846 l 463 840 m 446 828 l 446 810 l 457 811 l 457 828 l 446 828 m 375 808 l 371 800 l 367 793 l 375 793 q 378 797 376 794 q 379 800 379 799 l 383 808 l 375 808 m 521 774 q 510 779 521 779 l 508 764 l 514 760 l 518 767 q 521 774 521 769 m 560 758 l 560 761 l 561 763 q 563 764 561 764 l 563 767 l 547 767 l 544 761 l 560 758 m 542 738 q 553 726 542 726 l 560 729 q 565 731 564 731 q 567 732 567 732 l 572 733 l 572 740 q 568 744 568 744 l 563 747 q 554 750 557 750 q 547 745 550 750 q 542 738 543 740 m 254 744 l 251 746 q 249 743 249 746 l 256 743 l 254 744 m 526 728 q 514 740 528 732 l 515 739 q 509 733 513 733 q 504 732 506 732 q 499 731 503 731 l 493 729 l 493 724 q 501 721 497 721 q 508 719 504 719 l 518 722 l 526 728 m 572 718 l 564 715 q 556 719 560 715 l 554 721 l 550 721 q 544 707 544 714 l 553 703 q 563 699 561 700 l 568 703 q 564 710 568 708 l 567 711 l 567 713 l 571 713 q 572 715 571 714 q 574 715 574 715 l 576 718 l 572 718 m 203 711 l 203 707 l 207 707 l 207 711 l 203 711 m 176 676 q 174 685 174 682 q 163 701 174 696 q 158 710 157 704 q 150 700 150 704 q 157 696 150 699 q 167 694 160 694 q 160 685 165 690 l 156 676 q 158 671 156 671 l 160 671 q 163 672 160 672 q 168 671 167 672 q 171 668 168 671 q 174 672 171 671 l 176 676 m 194 696 q 192 700 194 697 l 188 703 l 185 701 q 182 699 185 699 l 194 696 m 201 699 q 202 698 201 699 q 203 697 203 697 l 201 699 m 121 676 q 129 672 125 672 l 132 676 q 121 682 126 682 l 121 676 m 99 665 q 106 663 101 663 l 113 663 l 99 665 m 122 660 q 140 657 135 660 q 144 665 144 660 l 122 665 l 122 660 m 164 657 l 164 654 l 171 654 l 171 657 l 164 657 m 285 653 l 285 649 l 288 649 l 288 653 l 285 653 m 581 646 l 579 646 l 581 643 l 583 644 l 581 646 m 115 636 q 113 639 113 638 l 103 639 l 103 636 q 111 625 103 629 q 117 632 117 629 q 115 636 117 636 m 158 615 q 135 631 139 631 l 128 631 q 132 624 132 629 q 131 619 132 619 l 128 619 l 126 621 l 124 621 l 121 619 q 119 618 119 619 q 118 617 118 617 l 121 615 q 122 613 121 614 q 122 613 122 613 q 133 615 128 613 q 143 619 140 619 l 149 617 q 153 615 149 615 l 158 615 m 100 611 q 93 618 100 615 q 96 613 93 615 q 100 611 99 611 m 74 617 l 74 614 l 81 614 l 81 617 l 74 617 m 168 599 q 164 613 168 604 q 160 601 160 604 q 163 593 160 599 l 167 593 l 168 599 m 146 606 l 146 603 l 157 601 l 157 604 l 146 606 m 111 578 q 118 579 115 578 l 122 579 l 122 588 q 117 590 117 588 l 114 583 l 111 578 m 72 574 q 81 582 81 578 l 78 582 l 76 583 q 67 576 67 581 l 72 574 m 122 574 l 121 568 l 128 568 l 129 574 l 122 574 m 100 556 l 101 557 q 103 560 103 557 l 101 563 l 93 563 l 93 556 l 100 556 m 107 531 q 99 532 104 532 l 90 532 l 92 529 l 93 525 q 113 521 101 525 l 113 528 l 107 531 m 111 518 q 107 513 107 518 l 108 510 q 111 507 110 510 l 111 518 m 164 482 q 165 500 165 488 q 164 510 165 507 q 160 499 160 506 q 163 490 160 493 l 164 482 m -3 435 l -3 431 l -4 426 q -3 421 -4 422 l 0 417 q 7 424 7 421 l 7 435 l -3 435 m 540 367 q 544 357 539 363 q 547 361 544 358 q 549 365 549 363 l 542 369 q 540 369 540 368 l 540 367 m 42 258 l 38 261 l 28 261 l 21 258 l 21 253 l 24 251 l 28 250 q 32 251 29 251 l 42 258 m 138 243 l 138 232 l 140 232 l 140 243 l 138 243 m 422 43 l 431 60 l 426 63 l 418 44 l 422 43 m 272 39 q 264 32 264 35 l 275 32 l 274 36 l 272 39 z "},"":{"ha":750,"x_min":-14,"x_max":685,"o":"m 650 849 q 685 714 685 788 l 683 690 q 665 579 683 643 q 639 558 661 558 l 446 558 q 426 567 433 558 q 418 586 418 575 q 419 596 418 593 l 440 675 q 449 736 449 719 q 444 760 449 750 q 418 776 435 776 q 333 715 371 776 q 273 564 294 653 q 251 399 251 475 q 267 273 251 329 q 329 208 283 217 q 426 249 379 201 q 446 271 429 251 l 463 294 q 518 383 488 331 q 542 396 526 396 q 563 388 554 396 l 646 300 q 653 282 653 293 q 650 268 653 272 q 540 108 590 157 q 333 1 446 14 l 315 -33 l 322 -33 q 409 -60 374 -33 q 444 -137 444 -87 q 389 -235 444 -200 q 257 -271 333 -271 q 159 -253 204 -271 q 88 -201 114 -236 q 135 -121 101 -156 q 256 -175 194 -175 q 274 -174 267 -175 q 293 -163 286 -172 q 300 -143 300 -154 q 293 -126 300 -133 q 274 -118 286 -118 q 236 -131 249 -118 q 169 -100 190 -118 q 219 10 188 -54 l 204 14 q 46 147 106 40 q -14 399 -14 253 q 164 867 -14 674 q 408 971 257 971 q 454 968 424 971 q 568 932 518 961 q 650 849 618 903 m 467 953 q 461 946 461 949 q 472 940 469 940 q 482 943 474 940 q 494 944 488 944 l 489 949 q 478 950 485 950 l 467 953 m 478 919 q 481 926 475 925 q 494 928 485 928 q 500 935 496 929 l 508 938 q 517 943 514 940 q 508 946 514 946 q 501 947 503 946 q 500 943 499 944 q 500 938 501 939 q 492 932 493 935 q 485 929 489 929 q 478 928 479 929 q 474 928 475 928 q 471 929 472 929 q 471 933 469 932 q 468 938 471 935 q 454 931 460 936 q 458 924 461 928 l 476 915 l 476 918 q 478 919 476 919 m 319 932 q 319 933 319 932 q 318 935 318 933 l 318 938 l 297 938 q 307 935 304 938 q 310 932 310 935 l 310 931 l 314 929 q 318 931 318 929 l 319 932 m 351 932 l 357 938 l 344 938 l 344 932 l 351 932 m 528 929 l 528 926 l 535 926 l 535 929 l 528 929 m 363 915 l 368 919 q 363 926 363 921 l 354 926 q 351 924 351 926 q 357 918 351 921 l 363 915 m 447 914 q 454 910 454 913 l 456 914 q 456 919 458 917 q 447 914 453 919 m 360 907 q 357 911 357 910 l 351 911 q 346 907 347 907 q 349 906 347 907 q 353 906 350 906 q 360 904 356 904 l 360 907 m 344 875 l 343 872 l 346 871 l 349 872 l 344 875 m 463 840 q 465 846 465 843 q 463 844 463 846 l 463 840 m 446 828 l 446 810 l 457 811 l 457 828 l 446 828 m 375 808 l 371 800 l 367 793 l 375 793 q 378 797 376 794 q 379 800 379 799 l 383 808 l 375 808 m 521 774 q 510 779 521 779 l 508 764 l 514 760 l 518 767 q 521 774 521 769 m 560 758 l 560 761 l 561 763 q 563 764 561 764 l 563 767 l 547 767 l 544 761 l 560 758 m 542 738 q 553 726 542 726 l 560 729 q 565 731 564 731 q 567 732 567 732 l 572 733 l 572 740 q 568 744 568 744 l 563 747 q 554 750 557 750 q 547 745 550 750 q 542 738 543 740 m 254 744 l 251 746 q 249 743 249 746 l 256 743 l 254 744 m 526 728 q 514 740 528 732 l 515 739 q 509 733 513 733 q 504 732 506 732 q 499 731 503 731 l 493 729 l 493 724 q 501 721 497 721 q 508 719 504 719 l 518 722 l 526 728 m 572 718 l 564 715 q 556 719 560 715 l 554 721 l 550 721 q 544 707 544 714 l 553 703 q 563 699 561 700 l 568 703 q 564 710 568 708 l 567 711 l 567 713 l 571 713 q 572 715 571 714 q 574 715 574 715 l 576 718 l 572 718 m 203 711 l 203 707 l 207 707 l 207 711 l 203 711 m 176 676 q 174 685 174 682 q 163 701 174 696 q 158 710 157 704 q 150 700 150 704 q 157 696 150 699 q 167 694 160 694 q 160 685 165 690 l 156 676 q 158 671 156 671 l 160 671 q 163 672 160 672 q 168 671 167 672 q 171 668 168 671 q 174 672 171 671 l 176 676 m 194 696 q 192 700 194 697 l 188 703 l 185 701 q 182 699 185 699 l 194 696 m 201 699 q 202 698 201 699 q 203 697 203 697 l 201 699 m 121 676 q 129 672 125 672 l 132 676 q 121 682 126 682 l 121 676 m 99 665 q 106 663 101 663 l 113 663 l 99 665 m 122 660 q 140 657 135 660 q 144 665 144 660 l 122 665 l 122 660 m 164 657 l 164 654 l 171 654 l 171 657 l 164 657 m 285 653 l 285 649 l 288 649 l 288 653 l 285 653 m 581 646 l 579 646 l 581 643 l 583 644 l 581 646 m 115 636 q 113 639 113 638 l 103 639 l 103 636 q 111 625 103 629 q 117 632 117 629 q 115 636 117 636 m 158 615 q 135 631 139 631 l 128 631 q 132 624 132 629 q 131 619 132 619 l 128 619 l 126 621 l 124 621 l 121 619 q 119 618 119 619 q 118 617 118 617 l 121 615 q 122 613 121 614 q 122 613 122 613 q 133 615 128 613 q 143 619 140 619 l 149 617 q 153 615 149 615 l 158 615 m 100 611 q 93 618 100 615 q 96 613 93 615 q 100 611 99 611 m 74 617 l 74 614 l 81 614 l 81 617 l 74 617 m 168 599 q 164 613 168 604 q 160 601 160 604 q 163 593 160 599 l 167 593 l 168 599 m 146 606 l 146 603 l 157 601 l 157 604 l 146 606 m 111 578 q 118 579 115 578 l 122 579 l 122 588 q 117 590 117 588 l 114 583 l 111 578 m 72 574 q 81 582 81 578 l 78 582 l 76 583 q 67 576 67 581 l 72 574 m 122 574 l 121 568 l 128 568 l 129 574 l 122 574 m 100 556 l 101 557 q 103 560 103 557 l 101 563 l 93 563 l 93 556 l 100 556 m 107 531 q 99 532 104 532 l 90 532 l 92 529 l 93 525 q 113 521 101 525 l 113 528 l 107 531 m 111 518 q 107 513 107 518 l 108 510 q 111 507 110 510 l 111 518 m 164 482 q 165 500 165 488 q 164 510 165 507 q 160 499 160 506 q 163 490 160 493 l 164 482 m -3 435 l -3 431 l -4 426 q -3 421 -4 422 l 0 417 q 7 424 7 421 l 7 435 l -3 435 m 540 367 q 544 357 539 363 q 547 361 544 358 q 549 365 549 363 l 542 369 q 540 369 540 368 l 540 367 m 42 258 l 38 261 l 28 261 l 21 258 l 21 253 l 24 251 l 28 250 q 32 251 29 251 l 42 258 m 138 243 l 138 232 l 140 232 l 140 243 l 138 243 m 422 43 l 431 60 l 426 63 l 418 44 l 422 43 m 213 -75 q 213 -74 213 -75 q 213 -74 213 -74 q 208 -69 208 -72 q 203 -74 206 -67 l 203 -76 l 211 -79 l 213 -75 m 358 -117 l 358 -111 l 349 -112 l 347 -118 l 358 -117 m 347 -132 l 358 -136 q 351 -128 356 -132 q 346 -121 347 -125 q 333 -114 335 -115 l 332 -128 l 347 -132 m 347 -151 l 346 -158 l 358 -162 l 361 -156 l 347 -151 m 350 -172 l 346 -182 l 354 -185 l 357 -175 l 350 -172 m 149 -197 l 140 -201 l 146 -210 l 153 -206 l 149 -197 m 324 -199 q 319 -201 319 -199 l 325 -210 l 331 -204 l 331 -201 l 332 -200 q 324 -199 324 -199 m 171 -219 q 179 -207 179 -210 q 165 -211 172 -207 l 171 -219 m 207 -221 l 194 -228 l 199 -235 l 211 -228 l 207 -221 z "},"":{"ha":750,"x_min":-14,"x_max":685,"o":"m 418 1029 q 360 1056 386 1029 q 333 1132 333 1083 q 352 1209 333 1175 q 401 1262 371 1243 q 461 1281 431 1281 q 535 1244 504 1281 q 561 1158 567 1208 q 513 1064 554 1099 q 418 1029 472 1029 m 418 1244 q 413 1238 415 1240 q 410 1233 410 1235 q 412 1226 410 1229 q 415 1221 414 1222 l 421 1224 q 420 1235 421 1229 q 418 1244 419 1242 m 496 1196 l 501 1197 l 496 1217 l 490 1215 l 496 1196 m 471 1208 l 472 1215 l 463 1215 l 461 1208 l 471 1208 m 481 1179 q 485 1186 486 1183 q 476 1192 483 1189 l 481 1179 m 442 1181 q 447 1178 442 1178 q 450 1176 447 1176 l 454 1175 q 457 1185 451 1179 l 442 1181 m 529 1125 q 536 1126 531 1126 l 536 1131 l 538 1132 q 536 1136 536 1133 l 532 1136 q 529 1138 532 1138 l 518 1126 l 529 1125 m 447 1115 l 447 1113 l 458 1113 l 458 1115 l 447 1115 m 356 1103 q 365 1099 356 1099 l 365 1103 q 369 1107 367 1106 l 369 1114 l 361 1114 q 356 1103 358 1111 m 513 1107 q 515 1097 511 1100 q 528 1101 525 1099 q 528 1104 528 1101 q 528 1108 529 1107 l 526 1114 l 517 1114 q 513 1107 513 1114 m 408 1086 l 410 1086 l 407 1089 l 406 1088 l 408 1086 m 447 1053 l 447 1064 l 435 1064 l 432 1056 l 447 1053 m 650 849 q 685 714 685 788 l 683 690 q 665 579 683 643 q 639 558 661 558 l 446 558 q 426 567 433 558 q 418 586 418 575 q 419 596 418 593 l 440 675 q 449 736 449 719 q 444 760 449 750 q 418 776 435 776 q 333 715 371 776 q 273 564 294 653 q 251 399 251 475 q 267 273 251 329 q 329 208 283 217 q 426 249 379 201 q 446 271 429 251 l 463 294 q 518 383 488 331 q 542 396 526 396 q 563 388 554 396 l 646 300 q 653 282 653 293 q 650 268 653 272 q 540 108 590 157 q 300 0 432 0 q 204 14 251 0 q 46 147 106 40 q -14 399 -14 253 q 164 867 -14 674 q 408 971 257 971 q 454 968 424 971 q 568 932 518 961 q 650 849 618 903 m 467 953 q 461 946 461 949 q 472 940 469 940 q 482 943 474 940 q 494 944 488 944 l 489 949 q 478 950 485 950 l 467 953 m 478 919 q 481 926 475 925 q 494 928 485 928 q 500 935 496 929 l 508 938 q 517 943 514 940 q 508 946 514 946 q 501 947 503 946 q 500 943 499 944 q 500 938 501 939 q 492 932 493 935 q 485 929 489 929 q 478 928 479 929 q 474 928 475 928 q 471 929 472 929 q 471 933 469 932 q 468 938 471 935 q 454 931 460 936 q 458 924 461 928 l 476 915 l 476 918 q 478 919 476 919 m 319 932 q 319 933 319 932 q 318 935 318 933 l 318 938 l 297 938 q 307 935 304 938 q 310 932 310 935 l 310 931 l 314 929 q 318 931 318 929 l 319 932 m 351 932 l 357 938 l 344 938 l 344 932 l 351 932 m 528 929 l 528 926 l 535 926 l 535 929 l 528 929 m 363 915 l 368 919 q 363 926 363 921 l 354 926 q 351 924 351 926 q 357 918 351 921 l 363 915 m 447 914 q 454 910 454 913 l 456 914 q 456 919 458 917 q 447 914 453 919 m 360 907 q 357 911 357 910 l 351 911 q 346 907 347 907 q 349 906 347 907 q 353 906 350 906 q 360 904 356 904 l 360 907 m 344 875 l 343 872 l 346 871 l 349 872 l 344 875 m 463 840 q 465 846 465 843 q 463 844 463 846 l 463 840 m 446 828 l 446 810 l 457 811 l 457 828 l 446 828 m 375 808 l 371 800 l 367 793 l 375 793 q 378 797 376 794 q 379 800 379 799 l 383 808 l 375 808 m 521 774 q 510 779 521 779 l 508 764 l 514 760 l 518 767 q 521 774 521 769 m 560 758 l 560 761 l 561 763 q 563 764 561 764 l 563 767 l 547 767 l 544 761 l 560 758 m 542 738 q 553 726 542 726 l 560 729 q 565 731 564 731 q 567 732 567 732 l 572 733 l 572 740 q 568 744 568 744 l 563 747 q 554 750 557 750 q 547 745 550 750 q 542 738 543 740 m 254 744 l 251 746 q 249 743 249 746 l 256 743 l 254 744 m 526 728 q 514 740 528 732 l 515 739 q 509 733 513 733 q 504 732 506 732 q 499 731 503 731 l 493 729 l 493 724 q 501 721 497 721 q 508 719 504 719 l 518 722 l 526 728 m 572 718 l 564 715 q 556 719 560 715 l 554 721 l 550 721 q 544 707 544 714 l 553 703 q 563 699 561 700 l 568 703 q 564 710 568 708 l 567 711 l 567 713 l 571 713 q 572 715 571 714 q 574 715 574 715 l 576 718 l 572 718 m 203 711 l 203 707 l 207 707 l 207 711 l 203 711 m 176 676 q 174 685 174 682 q 163 701 174 696 q 158 710 157 704 q 150 700 150 704 q 157 696 150 699 q 167 694 160 694 q 160 685 165 690 l 156 676 q 158 671 156 671 l 160 671 q 163 672 160 672 q 168 671 167 672 q 171 668 168 671 q 174 672 171 671 l 176 676 m 194 696 q 192 700 194 697 l 188 703 l 185 701 q 182 699 185 699 l 194 696 m 201 699 q 202 698 201 699 q 203 697 203 697 l 201 699 m 121 676 q 129 672 125 672 l 132 676 q 121 682 126 682 l 121 676 m 99 665 q 106 663 101 663 l 113 663 l 99 665 m 122 660 q 140 657 135 660 q 144 665 144 660 l 122 665 l 122 660 m 164 657 l 164 654 l 171 654 l 171 657 l 164 657 m 285 653 l 285 649 l 288 649 l 288 653 l 285 653 m 581 646 l 579 646 l 581 643 l 583 644 l 581 646 m 115 636 q 113 639 113 638 l 103 639 l 103 636 q 111 625 103 629 q 117 632 117 629 q 115 636 117 636 m 158 615 q 135 631 139 631 l 128 631 q 132 624 132 629 q 131 619 132 619 l 128 619 l 126 621 l 124 621 l 121 619 q 119 618 119 619 q 118 617 118 617 l 121 615 q 122 613 121 614 q 122 613 122 613 q 133 615 128 613 q 143 619 140 619 l 149 617 q 153 615 149 615 l 158 615 m 100 611 q 93 618 100 615 q 96 613 93 615 q 100 611 99 611 m 74 617 l 74 614 l 81 614 l 81 617 l 74 617 m 168 599 q 164 613 168 604 q 160 601 160 604 q 163 593 160 599 l 167 593 l 168 599 m 146 606 l 146 603 l 157 601 l 157 604 l 146 606 m 111 578 q 118 579 115 578 l 122 579 l 122 588 q 117 590 117 588 l 114 583 l 111 578 m 72 574 q 81 582 81 578 l 78 582 l 76 583 q 67 576 67 581 l 72 574 m 122 574 l 121 568 l 128 568 l 129 574 l 122 574 m 100 556 l 101 557 q 103 560 103 557 l 101 563 l 93 563 l 93 556 l 100 556 m 107 531 q 99 532 104 532 l 90 532 l 92 529 l 93 525 q 113 521 101 525 l 113 528 l 107 531 m 111 518 q 107 513 107 518 l 108 510 q 111 507 110 510 l 111 518 m 164 482 q 165 500 165 488 q 164 510 165 507 q 160 499 160 506 q 163 490 160 493 l 164 482 m -3 435 l -3 431 l -4 426 q -3 421 -4 422 l 0 417 q 7 424 7 421 l 7 435 l -3 435 m 540 367 q 544 357 539 363 q 547 361 544 358 q 549 365 549 363 l 542 369 q 540 369 540 368 l 540 367 m 42 258 l 38 261 l 28 261 l 21 258 l 21 253 l 24 251 l 28 250 q 32 251 29 251 l 42 258 m 138 243 l 138 232 l 140 232 l 140 243 l 138 243 m 422 43 l 431 60 l 426 63 l 418 44 l 422 43 m 272 39 q 264 32 264 35 l 275 32 l 274 36 l 272 39 z "},"D":{"ha":719,"x_min":-14,"x_max":663,"o":"m -14 29 q -6 8 -14 17 q 14 0 1 0 l 158 0 q 251 6 188 0 q 458 97 376 22 q 565 225 517 150 q 638 397 613 300 q 663 590 663 500 q 638 765 663 681 q 552 899 614 844 q 401 964 490 954 q 347 967 365 967 q 194 949 268 967 l 56 915 q 33 889 36 911 l -14 29 m 403 911 q 393 913 397 911 q 403 922 396 918 l 406 921 l 411 919 l 411 917 q 413 914 411 914 l 413 911 l 403 911 m 113 897 l 111 896 l 108 899 l 108 900 l 113 897 m 239 900 q 238 889 239 889 l 238 885 q 226 889 226 885 q 231 900 226 892 l 239 900 m 406 889 q 393 883 406 889 q 389 893 389 888 q 393 900 389 900 l 403 900 q 404 894 403 896 q 406 889 406 893 m 158 881 q 153 880 157 881 q 140 879 150 879 l 140 882 q 139 885 139 882 l 139 886 l 142 886 l 144 888 q 158 881 151 888 m 328 851 l 325 840 l 310 842 l 313 851 l 328 851 m 546 750 q 526 739 546 739 q 514 747 514 739 l 517 753 l 524 758 q 544 763 535 758 l 544 756 l 546 750 m 475 754 l 478 754 l 478 749 l 475 749 l 475 754 m 313 735 q 347 739 332 739 q 386 728 371 739 q 411 694 401 718 q 428 637 422 663 q 433 579 433 611 l 432 551 l 438 558 q 456 549 456 554 q 442 539 456 539 q 435 543 438 539 q 431 547 433 543 q 411 446 426 503 q 375 357 400 410 q 315 281 353 308 q 215 242 276 253 l 218 299 l 217 299 q 203 307 207 299 q 200 317 200 313 l 200 324 q 210 332 200 325 l 221 332 l 242 658 q 236 664 236 661 q 226 686 236 667 q 243 697 239 690 l 244 697 l 246 722 l 313 735 m 53 597 q 50 596 53 596 q 47 594 50 597 l 63 717 q 67 708 64 715 q 69 699 71 701 q 66 682 68 692 q 63 669 64 672 l 61 656 l 58 618 l 58 608 l 53 597 m 533 706 q 531 708 533 708 l 536 711 q 544 708 542 711 l 536 701 l 533 706 m 444 699 q 446 697 446 699 q 443 694 446 694 q 435 697 440 694 q 444 699 439 701 m 553 675 q 547 681 547 675 q 556 686 550 686 q 560 681 556 685 l 553 675 m 508 669 q 503 663 508 665 q 494 661 497 660 q 479 675 494 671 q 483 679 483 678 q 489 682 486 682 l 494 682 q 497 678 497 681 l 500 675 q 506 672 500 672 q 508 669 508 672 m 478 675 q 474 672 475 674 q 471 669 472 669 l 463 669 l 461 671 q 460 672 461 671 q 460 672 460 672 q 467 678 460 678 l 475 678 l 478 675 m 556 658 q 549 663 549 658 q 553 669 549 668 l 556 664 l 556 658 m 560 610 l 553 611 q 551 613 551 613 q 550 615 550 614 q 556 619 550 619 q 564 618 563 619 l 564 611 l 560 610 m 453 596 q 440 603 440 600 q 438 613 442 606 l 443 610 q 453 614 449 610 l 456 613 l 457 610 l 457 599 l 453 596 m 503 603 l 497 597 q 489 601 489 593 q 494 608 489 604 l 500 607 l 504 606 l 503 603 m 589 589 q 581 593 586 588 l 582 594 l 583 594 q 589 593 588 594 l 589 589 m 486 554 q 482 549 486 551 l 478 549 q 472 547 476 547 q 462 554 467 547 q 457 564 457 561 q 458 567 457 567 q 460 571 460 568 q 458 574 460 574 q 453 578 454 576 q 453 578 453 578 q 454 579 454 579 l 457 579 q 471 571 467 579 q 472 567 472 569 q 474 564 472 565 l 475 560 l 486 554 m 514 538 l 513 542 q 524 544 518 544 q 524 542 524 543 q 524 540 525 542 l 524 536 l 515 535 l 514 538 m 501 525 l 501 526 l 506 525 l 504 524 l 501 525 m 493 504 l 486 504 l 485 507 q 483 515 483 508 l 489 517 q 494 515 493 517 q 497 511 494 514 l 497 506 l 493 504 m 507 499 q 506 489 510 493 l 500 496 l 503 497 l 507 499 m 479 490 q 475 486 479 486 q 471 488 471 486 l 468 489 l 471 492 l 478 492 q 479 490 478 490 m 592 478 q 585 479 585 478 l 588 482 q 592 478 592 482 m 72 469 q 64 469 68 468 l 56 469 l 56 481 q 72 469 67 475 m 522 465 q 513 465 519 465 q 507 465 507 464 q 508 472 508 467 q 513 478 508 476 l 518 478 l 521 474 q 525 469 521 469 l 525 465 l 522 465 m 504 464 l 503 463 l 501 463 l 500 461 l 497 461 q 493 469 493 465 l 501 469 l 504 468 q 506 465 506 468 l 506 464 l 504 464 m 544 421 q 540 414 544 418 q 538 406 538 411 l 533 406 q 524 415 524 411 l 524 433 q 525 436 524 436 q 528 442 528 439 q 526 446 528 444 q 524 453 526 447 q 529 454 525 454 l 531 454 q 533 453 531 453 l 535 453 q 539 424 535 447 q 540 423 539 424 q 542 422 540 422 q 544 421 544 422 m 569 444 q 564 440 569 443 q 561 440 563 440 q 558 439 560 439 q 551 442 557 439 l 551 451 q 552 452 551 451 q 553 453 553 453 l 556 453 q 566 450 563 453 q 569 444 569 447 m 550 428 q 549 427 550 428 q 549 426 549 426 l 547 425 l 547 424 l 544 426 l 550 428 m 494 406 q 492 410 492 407 q 493 414 492 413 q 494 417 494 414 l 497 418 q 504 413 504 415 q 503 411 504 411 l 503 410 q 508 408 504 408 l 510 406 q 511 403 511 406 l 497 403 l 494 406 m 536 401 l 539 401 l 539 393 l 536 393 l 536 401 m 481 393 q 471 388 476 389 l 468 392 l 468 394 l 471 396 l 475 397 l 481 393 m 503 369 q 492 364 494 369 q 485 365 489 363 q 482 369 482 367 q 483 376 482 372 q 488 381 485 379 q 494 375 486 383 q 503 369 503 369 m 167 343 l 161 342 l 160 347 q 161 351 157 347 l 169 351 q 175 344 175 349 l 167 343 m 456 344 q 456 339 457 340 q 453 340 454 339 q 453 342 453 342 l 456 344 m 443 340 q 442 340 443 340 q 442 339 442 339 q 436 336 439 336 l 436 342 q 443 340 440 342 m 511 319 q 500 328 500 319 q 504 333 500 332 l 515 333 q 519 331 519 333 l 522 326 l 522 322 l 511 319 m 529 283 l 529 286 l 538 286 l 538 281 l 528 281 l 529 283 m 28 274 q 24 276 25 274 q 26 278 22 278 l 26 276 q 28 275 26 275 l 28 274 m 167 167 l 167 172 q 172 165 176 172 l 167 167 m 53 153 l 51 151 l 44 153 l 44 156 l 53 153 m 90 143 l 75 142 q 74 144 75 144 l 74 147 q 85 156 74 156 q 92 152 88 156 q 97 144 97 149 l 90 143 m 72 110 q 67 103 72 108 q 58 92 61 99 q 51 103 53 97 l 47 119 l 46 124 q 44 128 46 126 q 56 126 49 126 l 68 126 q 69 118 67 124 l 72 110 m 292 75 l 288 75 l 292 76 l 294 78 q 297 74 297 78 l 292 75 m 67 64 q 63 61 65 64 q 56 60 61 60 q 48 61 51 60 q 44 64 44 63 q 51 65 50 64 q 58 67 54 67 l 67 64 z "}}}
